<svg width="48" height="49" viewBox="0 0 48 49" fill="none" xmlns="http://www.w3.org/2000/svg">
<path d="M42.0623 18.3219H39.2589V36.615C39.2616 36.8513 39.2172 37.0858 39.1283 37.3049C39.0394 37.524 38.9078 37.7233 38.741 37.8913C38.5742 38.0594 38.3755 38.1928 38.1566 38.2838C37.9377 38.3749 37.7028 38.4218 37.4655 38.4217H34.3117C34.0744 38.4218 33.8395 38.3749 33.6206 38.2838C33.4016 38.1928 33.203 38.0594 33.0362 37.8913C32.8694 37.7233 32.7378 37.524 32.6489 37.3049C32.56 37.0858 32.5156 36.8513 32.5183 36.615V18.3219H27.7154V36.615C27.7181 36.8513 27.6738 37.0858 27.5848 37.3049C27.4959 37.524 27.3643 37.7233 27.1975 37.8913C27.0307 38.0594 26.8321 38.1928 26.6131 38.2838C26.3942 38.3749 26.1593 38.4218 25.922 38.4217H22.7888C22.5516 38.4218 22.3167 38.3749 22.0977 38.2838C21.8788 38.1928 21.6802 38.0594 21.5134 37.8913C21.3466 37.7233 21.2149 37.524 21.126 37.3049C21.0371 37.0858 20.9927 36.8513 20.9954 36.615V18.3219H15.9452V36.615C15.9479 36.853 15.9029 37.0892 15.8127 37.3097C15.7225 37.5301 15.589 37.7304 15.42 37.8987C15.251 38.067 15.05 38.2 14.8286 38.2898C14.6073 38.3796 14.3702 38.4245 14.1312 38.4217H10.998C10.7607 38.4218 10.5258 38.3749 10.3069 38.2838C10.088 38.1928 9.88934 38.0594 9.72254 37.8913C9.55573 37.7233 9.42407 37.524 9.33517 37.3049C9.24626 37.0858 9.20189 36.8513 9.20462 36.615V18.3219H6.64856C3.84515 18.3219 2.67019 15.3655 4.91704 13.9694L20.8718 4.19662C21.919 3.55347 23.1251 3.21289 24.3554 3.21289C25.5857 3.21289 26.7918 3.55347 27.8391 4.19662L43.7938 13.9694C46.0407 15.3655 44.9688 18.3219 42.0623 18.3219ZM44.9688 44.2731C44.9688 43.8647 44.8059 43.473 44.516 43.1842C44.226 42.8955 43.8328 42.7332 43.4228 42.7332H4.546C4.13598 42.7332 3.74274 42.8955 3.45281 43.1842C3.16288 43.473 3 43.8647 3 44.2731C3 44.6815 3.16288 45.0731 3.45281 45.3619C3.74274 45.6507 4.13598 45.8129 4.546 45.8129H43.4022C43.8141 45.8129 44.2095 45.6514 44.5027 45.3632C44.7959 45.075 44.9633 44.6833 44.9688 44.2731Z" fill="white"/>
</svg>
