<svg width="45" height="36" viewBox="0 0 45 36" fill="none" xmlns="http://www.w3.org/2000/svg">
<path d="M3.375 0C1.51172 0 0 1.51172 0 3.375V32.625C0 34.4883 1.51172 36 3.375 36H10.125V30.375C10.125 28.5117 11.6367 27 13.5 27C15.3633 27 16.875 28.5117 16.875 30.375V36H23.1961C22.7531 35.2828 22.5 34.4391 22.5 33.532C22.5 30.2344 24.3141 27.3586 27 25.8539V3.375C27 1.51172 25.4883 0 23.625 0H3.375ZM4.5 16.875C4.5 16.2562 5.00625 15.75 5.625 15.75H7.875C8.49375 15.75 9 16.2562 9 16.875V19.125C9 19.7437 8.49375 20.25 7.875 20.25H5.625C5.00625 20.25 4.5 19.7437 4.5 19.125V16.875ZM12.375 15.75H14.625C15.2437 15.75 15.75 16.2562 15.75 16.875V19.125C15.75 19.7437 15.2437 20.25 14.625 20.25H12.375C11.7563 20.25 11.25 19.7437 11.25 19.125V16.875C11.25 16.2562 11.7563 15.75 12.375 15.75ZM18 16.875C18 16.2562 18.5062 15.75 19.125 15.75H21.375C21.9937 15.75 22.5 16.2562 22.5 16.875V19.125C22.5 19.7437 21.9937 20.25 21.375 20.25H19.125C18.5062 20.25 18 19.7437 18 19.125V16.875ZM5.625 6.75H7.875C8.49375 6.75 9 7.25625 9 7.875V10.125C9 10.7437 8.49375 11.25 7.875 11.25H5.625C5.00625 11.25 4.5 10.7437 4.5 10.125V7.875C4.5 7.25625 5.00625 6.75 5.625 6.75ZM11.25 7.875C11.25 7.25625 11.7563 6.75 12.375 6.75H14.625C15.2437 6.75 15.75 7.25625 15.75 7.875V10.125C15.75 10.7437 15.2437 11.25 14.625 11.25H12.375C11.7563 11.25 11.25 10.7437 11.25 10.125V7.875ZM19.125 6.75H21.375C21.9937 6.75 22.5 7.25625 22.5 7.875V10.125C22.5 10.7437 21.9937 11.25 21.375 11.25H19.125C18.5062 11.25 18 10.7437 18 10.125V7.875C18 7.25625 18.5062 6.75 19.125 6.75ZM40.5 19.125C40.5 14.7949 35.8125 12.0885 32.0625 14.2536C30.3221 15.2584 29.25 17.1154 29.25 19.125C29.25 23.4551 33.9375 26.1615 37.6875 23.9964C39.4279 22.9916 40.5 21.1346 40.5 19.125ZM24.75 33.5461C24.75 34.9031 25.8469 36 27.2039 36H42.5461C43.9031 36 45 34.9031 45 33.5461C45 29.932 42.068 27 38.4539 27H31.2961C27.682 27 24.75 29.932 24.75 33.5461Z" fill="#1255FB"/>
</svg>
