<svg width="48" height="49" viewBox="0 0 48 49" fill="none" xmlns="http://www.w3.org/2000/svg">
<path d="M44 30.8613C44 38.6013 37.74 44.8613 30 44.8613L32.1 41.3613" stroke="white" stroke-width="7.136" stroke-linecap="round" stroke-linejoin="round"/>
<path d="M4 18.8555C4 11.1155 10.26 4.85547 18 4.85547L15.9 8.35547" stroke="white" stroke-width="7.136" stroke-linecap="round" stroke-linejoin="round"/>
<path d="M43.9998 9.25547V9.47547C43.9998 10.0355 43.5598 10.4755 42.9998 10.4755H24.9998C24.4398 10.4755 23.9998 10.0355 23.9998 9.47547V9.25547C23.9998 5.73547 24.8798 4.85547 28.4398 4.85547H39.5598C43.1198 4.85547 43.9998 5.73547 43.9998 9.25547Z" fill="white"/>
<path d="M24.9998 12.4824C24.4398 12.4824 23.9998 12.9224 23.9998 13.4824V15.4824V17.4624C23.9998 20.9824 24.8798 21.8624 28.4398 21.8624H39.5598C43.1198 21.8624 43.9998 20.9824 43.9998 17.4624V15.4824V13.4824C43.9998 12.9224 43.5598 12.4824 42.9998 12.4824H24.9998Z" fill="white"/>
<path d="M24 32.2613V32.4813C24 33.0413 23.56 33.4813 23 33.4813H5C4.44 33.4813 4 33.0413 4 32.4813V32.2613C4 28.7413 4.88 27.8613 8.44 27.8613H19.56C23.12 27.8613 24 28.7413 24 32.2613Z" fill="white"/>
<path d="M5 35.4805C4.44 35.4805 4 35.9205 4 36.4805V38.4805V40.4605C4 43.9805 4.88 44.8605 8.44 44.8605H19.56C23.12 44.8605 24 43.9805 24 40.4605V38.4805V36.4805C24 35.9205 23.56 35.4805 23 35.4805H5Z" fill="white"/>
</svg>
