<svg width="48" height="49" viewBox="0 0 48 49" fill="none" xmlns="http://www.w3.org/2000/svg">
<path d="M46 10.9534V25.5394C46 27.6886 45.1477 29.7502 43.6301 31.272C42.1124 32.7937 40.0532 33.6516 37.904 33.6574H36.1V24.1754C36.0942 21.149 34.8894 18.2481 32.7493 16.1081C30.6093 13.9681 27.7085 12.7632 24.682 12.7574H15.2V10.9534C15.2058 8.80421 16.0637 6.74501 17.5855 5.22735C19.1073 3.70968 21.1688 2.85741 23.318 2.85742H37.904C40.0512 2.85742 42.1104 3.71039 43.6287 5.22869C45.147 6.74698 46 8.80623 46 10.9534ZM32.8 24.1534V38.7394C32.8 40.8925 31.9447 42.9573 30.4223 44.4797C28.8999 46.0021 26.835 46.8574 24.682 46.8574H10.096C7.94881 46.8574 5.88956 46.0045 4.37126 44.4862C2.85297 42.9679 2 40.9086 2 38.7614V24.1754C1.99999 22.0262 2.85226 19.9647 4.36992 18.4429C5.88759 16.9211 7.94679 16.0632 10.096 16.0574H24.682C25.7481 16.0574 26.8037 16.2674 27.7886 16.6754C28.7736 17.0833 29.6685 17.6813 30.4223 18.4351C31.1761 19.189 31.7741 20.0839 32.1821 21.0688C32.59 22.0537 32.8 23.1094 32.8 24.1754V24.1534ZM25.848 25.8474C25.5386 25.5384 25.1193 25.3649 24.682 25.3649C24.2448 25.3649 23.8254 25.5384 23.516 25.8474L16.542 32.5574L13.814 29.7634C13.5043 29.5509 13.1313 29.4504 12.7567 29.4786C12.3821 29.5068 12.0283 29.662 11.7539 29.9185C11.4794 30.175 11.3007 30.5174 11.2473 30.8893C11.1938 31.2611 11.2689 31.64 11.46 31.9634L15.332 35.9234C15.6441 36.2271 16.0625 36.3971 16.498 36.3971C16.9335 36.3971 17.3519 36.2271 17.664 35.9234L25.804 28.0694C26.0807 27.7724 26.2382 27.3837 26.2463 26.9778C26.2544 26.5719 26.1126 26.1773 25.848 25.8694V25.8474Z" fill="white"/>
</svg>
