<svg width="45" height="44" viewBox="0 0 45 44" fill="none" xmlns="http://www.w3.org/2000/svg">
<path d="M22.5 0.00585938C18.1488 0.00585937 13.8953 1.29614 10.2775 3.71353C6.65958 6.13092 3.83979 9.56685 2.17466 13.5868C0.509532 17.6068 0.073859 22.0303 0.922734 26.2978C1.77161 30.5654 3.8669 34.4854 6.94366 37.5622C10.0204 40.639 13.9404 42.7343 18.208 43.5831C22.4756 44.432 26.8991 43.9963 30.919 42.3312C34.939 40.6661 38.3749 37.8463 40.7923 34.2284C43.2097 30.6105 44.5 26.357 44.5 22.0059C44.5 19.1168 43.931 16.256 42.8253 13.5868C41.7197 10.9177 40.0992 8.4924 38.0563 6.44951C36.0135 4.40662 33.5882 2.78611 30.919 1.68051C28.2499 0.574906 25.3891 0.00585938 22.5 0.00585938V0.00585938ZM31.52 31.3119C30.669 32.1966 29.6424 32.8935 28.506 33.3579C27.1058 33.9068 25.6095 34.1687 24.106 34.1279C22.9741 34.1423 21.8444 34.0242 20.74 33.7759C19.7614 33.5655 18.8246 33.1938 17.968 32.6759C17.1899 32.1583 16.493 31.5281 15.9 30.8059C15.2716 30.0535 14.7395 29.2258 14.316 28.3419C14.0601 27.7768 13.8397 27.1963 13.656 26.6039H10.532C10.1132 26.5562 9.72656 26.3561 9.44585 26.0416C9.16514 25.7272 9.00999 25.3204 9.00999 24.8989C9.00999 24.4773 9.16514 24.0706 9.44585 23.7561C9.72656 23.4416 10.1132 23.2415 10.532 23.1939H12.952C12.952 22.8419 12.952 22.4899 12.952 22.1159C12.952 21.7419 12.952 21.3679 12.952 20.9939H10.532C10.1132 20.9462 9.72656 20.7461 9.44585 20.4316C9.16514 20.1172 9.00999 19.7104 9.00999 19.2889C9.00999 18.8673 9.16514 18.4606 9.44585 18.1461C9.72656 17.8316 10.1132 17.6315 10.532 17.5839H13.7C13.7137 17.3788 13.7137 17.173 13.7 16.9679C14.2241 15.5583 15.0415 14.276 16.098 13.2059C17.1013 12.1458 18.3256 11.3196 19.684 10.7859C21.0806 10.2178 22.5764 9.93357 24.084 9.94986C25.8153 9.90768 27.5327 10.2692 29.1 11.0059C30.31 11.6439 31.806 12.6339 31.916 14.1519C31.9337 14.5118 31.8627 14.8706 31.7093 15.1966C31.5558 15.5227 31.3246 15.8061 31.036 16.0219C30.8825 16.1644 30.7033 16.2764 30.508 16.3519C30.2821 16.4201 30.0447 16.4417 29.8102 16.4152C29.5756 16.3887 29.349 16.3148 29.144 16.1979C28.352 15.7799 27.868 15.0099 27.142 14.5259C26.2337 13.9152 25.1558 13.6072 24.062 13.6459C23.1653 13.6128 22.2738 13.7954 21.4622 14.1782C20.6507 14.561 19.9428 15.1329 19.398 15.8459C19.0248 16.3451 18.7214 16.8928 18.496 17.4739H27.164C27.4042 17.4465 27.6474 17.4703 27.8778 17.5435C28.1081 17.6167 28.3204 17.7377 28.5007 17.8987C28.6811 18.0597 28.8253 18.2569 28.9241 18.4775C29.0229 18.6981 29.074 18.9371 29.074 19.1789C29.074 19.4206 29.0229 19.6596 28.9241 19.8802C28.8253 20.1008 28.6811 20.298 28.5007 20.459C28.3204 20.62 28.1081 20.741 27.8778 20.8142C27.6474 20.8875 27.4042 20.9112 27.164 20.8839H17.792C17.792 21.3019 17.792 21.7199 17.792 22.1819C17.792 22.6439 17.792 22.7759 17.792 23.0839H25.47C25.8888 23.1315 26.2755 23.3316 26.5562 23.6461C26.8369 23.9606 26.992 24.3673 26.992 24.7889C26.992 25.2104 26.8369 25.6172 26.5562 25.9316C26.2755 26.2461 25.8888 26.4462 25.47 26.4939H18.43C18.4227 26.5744 18.4227 26.6554 18.43 26.7359C18.8599 27.8471 19.6299 28.7942 20.63 29.4419C21.612 30.0543 22.751 30.3677 23.908 30.3439C25.1473 30.379 26.3654 30.0167 27.384 29.3099C28.352 28.6279 29.034 27.2199 30.31 27.1099C30.677 27.0775 31.0465 27.1301 31.3899 27.2636C31.7333 27.3972 32.0413 27.608 32.29 27.8799C32.5355 28.1478 32.6895 28.4867 32.73 28.8479C32.7276 29.3233 32.6175 29.792 32.4079 30.2188C32.1983 30.6456 31.8948 31.0193 31.52 31.3119V31.3119Z" fill="white"/>
</svg>
