<svg width="14" height="14" viewBox="0 0 14 14" fill="none" xmlns="http://www.w3.org/2000/svg">
<path d="M13.2721 6.03713H10.3132C9.75603 6.02897 9.22486 5.80023 8.83612 5.40104C8.44738 5.00186 8.23279 4.46481 8.23941 3.90766C8.23655 3.87884 8.23655 3.84981 8.23941 3.82099V0.849642L13.2721 6.03713ZM10.3132 7.00282H10.2265C9.82558 6.98455 9.43221 6.88739 9.0689 6.71689C8.70558 6.54639 8.37947 6.30591 8.10922 6.00921C7.83897 5.71251 7.62989 5.36542 7.49396 4.98781C7.35803 4.6102 7.29791 4.20949 7.31705 3.80861V0.8125H4.22189C3.28879 0.820676 2.39707 1.19878 1.74249 1.86381C1.0879 2.52884 0.723961 3.42644 0.730557 4.35955V9.64608C0.727295 10.1092 0.815379 10.5683 0.989769 10.9973C1.16416 11.4263 1.42143 11.8167 1.74686 12.1462C2.0723 12.4756 2.4595 12.7377 2.88632 12.9173C3.31314 13.097 3.7712 13.1907 4.23428 13.1931H9.74985C10.684 13.1931 11.5799 12.822 12.2405 12.1615C12.901 11.5009 13.2721 10.605 13.2721 9.67084V7.00282H10.3132ZM7.06944 9.65227L5.3052 11.1565C5.3052 11.1565 5.25568 11.1565 5.23092 11.1999H5.1752C5.12274 11.2239 5.06577 11.2366 5.00806 11.237C4.95022 11.2378 4.89299 11.2251 4.84093 11.1999H4.78521C4.76066 11.1912 4.73767 11.1787 4.71712 11.1627L2.82288 9.66465C2.72681 9.58694 2.66517 9.47456 2.65127 9.35179C2.63737 9.22901 2.67233 9.10569 2.7486 9.00848C2.82416 8.92148 2.92938 8.8657 3.04379 8.85197C3.1582 8.83824 3.27363 8.86755 3.36763 8.93419L4.52522 9.84417V6.68711C4.52522 6.56398 4.57413 6.44589 4.6612 6.35882C4.74827 6.27175 4.86636 6.22284 4.98949 6.22284C5.11263 6.22284 5.23072 6.27175 5.31778 6.35882C5.40485 6.44589 5.45377 6.56398 5.45377 6.68711V9.78227L6.44422 8.93419C6.5378 8.85211 6.66016 8.81055 6.78437 8.81868C6.90859 8.82681 7.02449 8.88394 7.10658 8.97753C7.18867 9.07111 7.23022 9.19347 7.2221 9.31768C7.21397 9.4419 7.15683 9.5578 7.06325 9.63989L7.06944 9.65227Z" fill="#1255FB"/>
</svg>
