<svg width="188" height="194" viewBox="0 0 188 194" fill="none" xmlns="http://www.w3.org/2000/svg">
<path d="M187.998 139.769C187.998 168.912 149.547 192.536 102.116 192.536C54.6832 192.536 16.2324 168.912 16.2324 139.769C16.2324 110.625 54.6832 87.001 102.116 87.001C149.547 87.001 187.998 110.625 187.998 139.769Z" fill="white"/>
<path d="M129.534 176.636L128.321 178.153L126.185 177.393L127.441 173.834L133.46 173.321C133.434 173.43 133.485 173.214 133.46 173.321C132.313 172.658 129.26 170.91 127.292 170.718L125.609 170.592L125.403 172.043C124.326 172.316 123.379 172.694 122.594 173.157L121.933 170.592H117.884L115.205 174.111L119.076 176.563L77.1306 184.593C77.0141 184.516 76.8923 184.442 76.7665 184.369C74.7194 183.186 71.7612 182.609 68.811 182.903L68.6018 182.841L58.4468 180.913L54.6465 184.86L57.7622 187.725H61.3229C61.25 188.385 61.3851 189.062 61.7691 189.728C61.8234 189.823 61.8962 189.912 61.9598 190.004L60.106 192.552L67.4458 193.037C69.2599 193.399 71.2792 193.444 73.2389 193.07C76.7797 192.392 79.1036 190.57 79.4042 188.545L122.253 180.341L120.585 181.482L127.121 181.405C127.037 181.395 127.386 181.036 127.121 181.405C127.635 181.469 128.361 181.344 128.895 181.356L129.098 181.371L129.081 181.36C130.077 181.371 129.418 181.434 130.416 181.244C133.957 180.566 135.405 178.783 135.702 176.761L129.534 176.636Z" fill="#D8E7FF"/>
<path d="M131.594 143.357L113.329 156.457L113.318 161.842L131.584 148.742C132.601 148.014 133.103 147.135 133.105 146.256L133.116 140.87C133.113 141.75 132.611 142.629 131.594 143.357Z" fill="#70A1FD"/>
<path d="M70.0021 137.637C68.6395 136.85 67.9695 135.825 67.9735 134.806L67.9629 140.19C67.9603 141.211 68.6289 142.236 69.9915 143.022L103.126 162.151L103.135 156.766L70.0021 137.637Z" fill="#70A1FD"/>
<path d="M103.134 156.766L103.125 162.151C106.018 163.822 110.764 163.683 113.318 161.842L113.329 156.457C110.775 158.298 106.029 158.437 103.134 156.766Z" fill="#70A1FD"/>
<path d="M131.087 138.035L102.253 121.388C99.7499 119.944 95.7841 119.828 93.0563 121.107L70.4994 131.73C67.3386 133.221 67.1056 135.966 70.0002 137.637L103.133 156.766C106.028 158.437 110.774 158.298 113.328 156.457L131.593 143.357C133.802 141.776 133.582 139.476 131.087 138.035Z" fill="#D0E2FE"/>
<path d="M63.2573 1.12431C62.0947 0.452965 60.9983 0.37352 60.1402 0.786652L55.2422 3.13703C56.1002 2.72522 57.1966 2.80467 58.3593 3.47469L166.066 65.6597L170.964 63.308L63.2573 1.12431Z" fill="#1255FB"/>
<path d="M170.122 73.5555L163.461 162.163C163.345 163.712 162.685 164.786 161.727 165.247L166.625 162.895C167.583 162.435 168.243 161.36 168.359 159.812L175.02 71.2051L170.122 73.5555Z" fill="#1255FB"/>
<path d="M170.964 63.3085L166.066 65.6602C168.529 67.0824 170.342 70.6205 170.121 73.5562L175.019 71.2058C175.24 68.2688 173.427 64.7307 170.964 63.3085Z" fill="#1255FB"/>
<path d="M166.065 65.6601L58.3587 3.47511C55.8957 2.05296 53.7241 3.29106 53.503 6.22803L46.8425 94.8352C46.6213 97.7708 48.4341 101.301 50.8971 102.723L158.604 164.908C161.068 166.33 163.238 165.099 163.459 162.163L170.12 73.556C170.341 70.6204 168.528 67.0822 166.065 65.6601Z" fill="#D0E2FE"/>
<path d="M87.3758 123.784L126.995 146.657L120.441 151.356L82.5625 126.051L87.3758 123.784Z" fill="#93B9FF"/>
<mask id="mask0_9941_13369" style="mask-type:luminance" maskUnits="userSpaceOnUse" x="48" y="7" width="120" height="152">
<path d="M55.502 7.09779L48.9766 93.4751L161.094 158.205L167.62 71.8278L55.502 7.09779Z" fill="white"/>
</mask>
<g mask="url(#mask0_9941_13369)">
<path d="M55.502 7.09779L48.9766 93.4751L161.094 158.205L167.62 71.8278L55.502 7.09779Z" fill="#EDF4FF"/>
</g>
<path d="M107.546 86.3962C106.046 85.5303 104.72 86.2824 104.585 88.074C104.451 89.8682 105.558 92.0239 107.057 92.8899C108.559 93.7572 109.882 93.0038 110.017 91.2096C110.152 89.418 109.048 87.2636 107.546 86.3962Z" fill="#83C5EE"/>
<path d="M107.057 92.8898C105.558 92.0238 104.451 89.868 104.585 88.0738C104.72 86.2822 106.045 85.5301 107.546 86.3961C109.047 87.2634 110.151 89.4178 110.016 91.2094C109.881 93.0036 108.558 93.7571 107.057 92.8898ZM96.6371 75.5632L94.8164 99.7873L95.0958 96.0611L101.184 91.4729L107.224 102.091L114.366 96.8159L120.624 110.313L122.131 90.2825L96.6371 75.5632Z" fill="#71BAE9"/>
<path d="M114.366 96.816L107.224 102.091L101.184 91.473L95.0958 96.0612L94.8164 99.7874L120.309 114.505L120.624 110.313L114.366 96.816Z" fill="#5DAAE2"/>
<path d="M71.6643 92.2582L78.4599 96.1817C78.8598 96.4121 79.2133 96.2121 79.2504 95.7341L79.2848 95.276C79.3206 94.7953 79.0239 94.218 78.6241 93.9875L71.8298 90.0641C71.4299 89.8337 71.0751 90.035 71.0393 90.5156L71.0049 90.9738C70.9691 91.4518 71.2644 92.0278 71.6643 92.2582Z" fill="#72C4EF"/>
<path d="M84.1237 97.1629L81.0993 95.4163C80.6994 95.1859 80.3459 95.3859 80.3088 95.8665L80.2744 96.326C80.2387 96.8027 80.5352 97.38 80.9351 97.6104L83.9595 99.357C84.3594 99.5874 84.713 99.3875 84.75 98.9081L84.7832 98.45C84.8202 97.9693 84.5236 97.3933 84.1237 97.1629Z" fill="#72C4EF"/>
<path d="M83.7699 101.878L76.9744 97.9548C76.5745 97.7244 76.2196 97.9243 76.1838 98.4023L76.1494 98.8618C76.1137 99.3425 76.4089 99.9185 76.8088 100.149L83.6044 104.072C84.0043 104.303 84.3592 104.103 84.3949 103.622L84.4293 103.163C84.4651 102.685 84.1698 102.109 83.7699 101.878Z" fill="#72C4EF"/>
<path d="M94.5615 106.007L104.217 111.582C104.617 111.812 104.972 111.611 105.008 111.134L105.042 110.675C105.078 110.194 104.783 109.618 104.383 109.388L94.727 103.813C94.3245 103.58 93.9696 103.781 93.9338 104.262L93.8994 104.72C93.8637 105.198 94.159 105.774 94.5615 106.007Z" fill="#72C4EF"/>
<path d="M106.836 113.092L113.627 117.014C114.027 117.244 114.382 117.043 114.418 116.565L114.452 116.107C114.489 115.626 114.193 115.05 113.793 114.82L107 110.898C106.597 110.665 106.246 110.867 106.209 111.348L106.175 111.806C106.139 112.284 106.433 112.86 106.836 113.092Z" fill="#72C4EF"/>
<path d="M119.292 117.994L116.267 116.249C115.867 116.017 115.513 116.219 115.477 116.699L115.442 117.157C115.407 117.635 115.702 118.211 116.102 118.443L119.126 120.188C119.526 120.42 119.881 120.219 119.917 119.741L119.951 119.283C119.988 118.802 119.692 118.226 119.292 117.994Z" fill="#72C4EF"/>
<path d="M94.206 110.722L97.2291 112.467C97.6303 112.699 97.9825 112.496 98.0183 112.016L98.054 111.557C98.0898 111.079 97.7958 110.505 97.3933 110.273L94.3715 108.528C93.969 108.295 93.6141 108.496 93.5784 108.974L93.5439 109.432C93.5082 109.913 93.8035 110.489 94.206 110.722Z" fill="#72C4EF"/>
<path d="M109.599 117.318L99.9431 111.743C99.5432 111.513 99.1883 111.713 99.1526 112.191L99.1182 112.65C99.0824 113.131 99.3777 113.707 99.7776 113.938L109.433 119.512C109.833 119.744 110.188 119.543 110.224 119.062L110.258 118.604C110.294 118.126 109.999 117.55 109.599 117.318Z" fill="#72C4EF"/>
<path d="M118.938 122.71L112.145 118.789C111.744 118.556 111.392 118.758 111.356 119.236L111.322 119.695C111.284 120.175 111.578 120.751 111.981 120.983L118.774 124.905C119.174 125.136 119.527 124.934 119.564 124.454L119.599 123.995C119.635 123.517 119.338 122.941 118.938 122.71Z" fill="#72C4EF"/>
<path d="M155.976 93.0227L62.7347 39.1892C61.9429 38.7323 61.2397 39.1309 61.1682 40.083L59.0059 68.8489C58.9344 69.801 59.521 70.9437 60.3128 71.4006L153.556 125.234C154.352 125.695 155.055 125.296 155.126 124.344L157.289 95.5783C157.36 94.6262 156.774 93.4822 155.976 93.0227Z" fill="#B5CFFF"/>
<path d="M64.5687 44.1576L62.7109 68.8703L83.3956 80.8115L85.2534 56.0988L64.5687 44.1576Z" fill="#70A1FD"/>
<path d="M88.5915 67.2209L117.245 83.7649C117.877 84.129 118.435 83.8126 118.492 83.0578C118.549 82.303 118.082 81.3947 117.45 81.0292L88.7968 64.4865C88.1651 64.1224 87.6064 64.4388 87.5494 65.1936C87.4938 65.9484 87.9599 66.8568 88.5915 67.2209Z" fill="#70A1FD"/>
<path d="M150.79 100.278L122.324 83.8436C121.691 83.4782 121.134 83.7946 121.077 84.5494C121.02 85.3055 121.486 86.2139 122.118 86.578L150.583 103.012C151.215 103.378 151.774 103.061 151.83 102.306C151.887 101.552 151.421 100.642 150.79 100.278Z" fill="#70A1FD"/>
<path d="M88.2245 72.0847L106.61 82.7004C107.242 83.0646 107.801 82.7481 107.858 81.9933C107.915 81.2386 107.449 80.3302 106.817 79.9647L88.4298 69.349C87.7982 68.9848 87.2394 69.3013 87.1824 70.0561C87.1255 70.8108 87.5929 71.7192 88.2245 72.0847Z" fill="#70A1FD"/>
<path d="M87.8613 76.947L116.515 93.4896C117.146 93.8551 117.705 93.5386 117.762 92.7839C117.818 92.0278 117.352 91.1194 116.72 90.7553L88.0665 74.2126C87.4349 73.8471 86.8761 74.1636 86.8191 74.9184C86.7622 75.6745 87.2297 76.5828 87.8613 76.947Z" fill="#70A1FD"/>
<path d="M88.2636 58.472L87.9961 62.0168L152.077 99.0137L152.343 95.4689L88.2636 58.472Z" fill="#70A1FD"/>
<path d="M57.6757 131.468C55.426 130.828 52.2546 129.929 49.5044 129.153C45.7054 124.527 37.9538 121.355 29.0025 121.355C16.3025 121.355 6.00586 127.735 6.00586 135.606C6.00586 143.475 16.3025 149.855 29.0025 149.855C37.7856 149.855 45.4154 146.804 49.2885 142.319L57.6585 139.962C59.6884 139.39 61.0298 137.464 60.8616 135.361C60.7146 133.523 59.4488 131.972 57.6757 131.468Z" fill="#E6F3FF"/>
<path d="M36.1167 138.679C36.0745 138.716 36.0337 138.754 35.9902 138.79C36.0337 138.753 36.0745 138.716 36.1167 138.679Z" fill="#F8DABE"/>
<path d="M44.3037 138.588C44.2746 138.696 44.2415 138.805 44.207 138.912C44.2415 138.804 44.2746 138.696 44.3037 138.588Z" fill="#F8DABE"/>
<path d="M5.78516 133.228C5.78647 133.176 5.79042 133.125 5.79305 133.073C5.79042 133.126 5.78647 133.176 5.78516 133.228Z" fill="#F8DABE"/>
<path d="M5.84466 134.178C5.83676 134.128 5.82753 134.078 5.82227 134.026C5.82885 134.078 5.83676 134.128 5.84466 134.178Z" fill="#F8DABE"/>
<path d="M44.5679 136.715C44.5666 136.824 44.5613 136.934 44.5547 137.043C44.5613 136.934 44.5666 136.825 44.5679 136.715Z" fill="#F8DABE"/>
<path d="M9.39326 139.34C9.33662 139.298 9.27735 139.257 9.2207 139.213C9.27735 139.257 9.3353 139.298 9.39326 139.34Z" fill="#F8DABE"/>
<path d="M0.446003 135.386C0.418195 135.281 0.390393 135.175 0.365234 135.069C0.390393 135.175 0.418195 135.28 0.446003 135.386Z" fill="#F8DABE"/>
<path d="M43.9779 136.222C43.9382 136.318 43.8998 136.416 43.8574 136.512C43.8998 136.416 43.9382 136.32 43.9779 136.222Z" fill="#F8DABE"/>
<path d="M1.68386 141.335C1.62427 141.245 1.56866 141.155 1.51172 141.065C1.56866 141.155 1.62427 141.247 1.68386 141.335Z" fill="#F8DABE"/>
<path d="M0.537109 131.06C0.567565 130.963 0.599355 130.864 0.633783 130.767C0.599355 130.864 0.567565 130.962 0.537109 131.06Z" fill="#F8DABE"/>
<path d="M0.177164 133.256C0.177164 133.303 0.171875 133.35 0.171875 133.397C0.171875 133.454 0.178491 133.51 0.179815 133.567C0.177166 133.463 0.17584 133.359 0.177164 133.256Z" fill="#F8DABE"/>
<path d="M44.5652 133.269C44.5652 133.212 44.5599 133.156 44.5586 133.099C44.5612 133.203 44.5612 133.306 44.5599 133.409C44.5612 133.362 44.5652 133.315 44.5652 133.269Z" fill="#F8DABE"/>
<path d="M44.5703 134.921L44.5743 136.575C44.573 136.079 44.5716 135.5 44.5703 134.921Z" fill="#F8DABE"/>
<path d="M42.3653 142.196C42.4395 142.107 42.5083 142.017 42.5785 141.927C42.6606 141.823 42.7427 141.719 42.8182 141.616C42.8844 141.525 42.9466 141.432 43.0088 141.341C43.0803 141.236 43.1532 141.13 43.2194 141.024C43.279 140.931 43.3319 140.837 43.3876 140.743C43.4485 140.637 43.5107 140.533 43.5676 140.426C43.6193 140.33 43.6656 140.235 43.7133 140.138C43.7649 140.032 43.8179 139.925 43.8656 139.819C43.9079 139.722 43.9464 139.626 43.9861 139.529C44.0285 139.422 44.0721 139.313 44.1105 139.206C44.145 139.108 44.1754 139.01 44.2059 138.912C44.2403 138.805 44.2734 138.696 44.3025 138.588C44.329 138.49 44.3515 138.39 44.3741 138.292C44.3992 138.184 44.423 138.075 44.4429 137.965C44.4615 137.867 44.476 137.768 44.4906 137.669C44.5065 137.56 44.521 137.45 44.5316 137.342C44.5409 137.242 44.5488 137.143 44.5541 137.044C44.5608 136.934 44.5661 136.824 44.5674 136.715C44.5687 136.669 44.5727 136.621 44.5727 136.575L44.5687 134.921L44.5634 133.269C44.5634 133.315 44.5594 133.361 44.5581 133.409C44.5568 133.518 44.5515 133.627 44.5449 133.736C44.5396 133.835 44.5316 133.935 44.5224 134.034C44.5118 134.144 44.4972 134.252 44.4813 134.362C44.4667 134.462 44.4522 134.56 44.4336 134.659C44.4138 134.768 44.3899 134.876 44.3648 134.986C44.3423 135.084 44.3198 135.183 44.2933 135.281C44.2641 135.39 44.231 135.497 44.1966 135.606C44.1662 135.704 44.1357 135.802 44.1013 135.898C44.0629 136.007 44.0192 136.114 43.9768 136.221C43.9371 136.319 43.8987 136.416 43.8563 136.511C43.8086 136.619 43.7557 136.726 43.704 136.832C43.6564 136.927 43.61 137.024 43.5584 137.119C43.5014 137.225 43.4392 137.331 43.3783 137.437C43.3227 137.531 43.2697 137.624 43.2101 137.718C43.1439 137.824 43.0711 137.928 42.9996 138.034C42.936 138.126 42.8751 138.217 42.8089 138.308C42.7334 138.413 42.6513 138.516 42.5692 138.619C42.4991 138.71 42.4302 138.801 42.356 138.89C42.27 138.993 42.1786 139.094 42.0872 139.195C42.0091 139.284 41.9336 139.373 41.8515 139.46C41.7549 139.562 41.6516 139.662 41.551 139.762C41.4662 139.848 41.3828 139.933 41.2941 140.018C41.1868 140.118 41.0729 140.218 40.9604 140.318C40.869 140.399 40.7803 140.481 40.685 140.562C40.5645 140.664 40.436 140.765 40.3089 140.865C40.2149 140.941 40.1235 141.016 40.0255 141.092C39.8891 141.195 39.7448 141.296 39.6031 141.398C39.5051 141.466 39.4124 141.538 39.3131 141.605C39.1529 141.715 38.9847 141.821 38.8179 141.929C38.7278 141.987 38.6418 142.046 38.5491 142.103C38.2856 142.266 38.0141 142.425 37.7334 142.581C28.8881 147.514 14.8361 147.372 6.34961 142.264L6.35888 145.571C14.8467 150.679 28.8973 150.822 37.7427 145.889C38.0234 145.732 38.2949 145.573 38.5584 145.41C38.6511 145.353 38.7371 145.293 38.8272 145.235C38.994 145.129 39.1622 145.022 39.3224 144.913C39.4217 144.844 39.5157 144.774 39.6124 144.704C39.7541 144.602 39.8984 144.501 40.0348 144.398C40.1328 144.324 40.2242 144.247 40.3182 144.172C40.4453 144.071 40.5737 143.972 40.6956 143.868C40.7896 143.789 40.8783 143.707 40.9696 143.625C41.0822 143.525 41.1961 143.426 41.3033 143.324C41.3921 143.241 41.4755 143.155 41.5602 143.07C41.6622 142.969 41.7641 142.869 41.8608 142.767C41.9429 142.679 42.0184 142.591 42.0965 142.503C42.1879 142.401 42.2792 142.299 42.3653 142.196Z" fill="#E28A3D"/>
<path d="M0.188921 133.857C0.195541 133.963 0.206129 134.068 0.216723 134.174C0.227316 134.271 0.239236 134.368 0.252477 134.464C0.268367 134.57 0.2869 134.676 0.306763 134.781C0.325301 134.878 0.343844 134.974 0.365031 135.07C0.39019 135.175 0.417992 135.281 0.445799 135.386C0.472282 135.481 0.498768 135.577 0.527899 135.672C0.561003 135.777 0.598074 135.881 0.635151 135.987C0.669579 136.081 0.702688 136.177 0.739764 136.271C0.782137 136.375 0.827153 136.478 0.873498 136.583C0.915871 136.676 0.956923 136.77 1.00194 136.862C1.05226 136.967 1.10788 137.07 1.16217 137.174C1.21117 137.266 1.26015 137.358 1.31312 137.449C1.37138 137.552 1.43627 137.654 1.50115 137.758C1.55809 137.848 1.61371 137.939 1.67329 138.029C1.74215 138.131 1.8163 138.233 1.88913 138.334C1.95401 138.422 2.01625 138.511 2.08378 138.6C2.16191 138.7 2.24533 138.801 2.32875 138.902C2.40025 138.988 2.46911 139.075 2.54327 139.161C2.63198 139.262 2.726 139.361 2.81869 139.46C2.89681 139.544 2.97229 139.629 3.05307 139.711C3.15105 139.811 3.25566 139.909 3.35894 140.007C3.44369 140.088 3.52579 140.17 3.61318 140.25C3.72309 140.35 3.84094 140.448 3.95614 140.548C4.04486 140.623 4.13093 140.7 4.22229 140.775C4.34809 140.879 4.48183 140.979 4.61292 141.08C4.70296 141.149 4.78903 141.219 4.88172 141.288C5.0287 141.396 5.18628 141.502 5.33988 141.61C5.42463 141.668 5.50407 141.727 5.59014 141.784C5.83511 141.947 6.08802 142.107 6.34888 142.264C14.8354 147.372 28.8873 147.514 37.7327 142.581C38.0134 142.425 38.2849 142.266 38.5484 142.103C38.6411 142.047 38.7271 141.987 38.8172 141.929C38.984 141.821 39.1522 141.715 39.3124 141.606C39.4117 141.538 39.5044 141.467 39.6024 141.398C39.7441 141.296 39.8884 141.195 40.0248 141.092C40.1228 141.016 40.2142 140.941 40.3082 140.865C40.4353 140.765 40.5637 140.664 40.6842 140.562C40.7796 140.481 40.8683 140.399 40.9597 140.318C41.0722 140.218 41.1861 140.119 41.2933 140.018C41.3821 139.933 41.4655 139.848 41.5502 139.762C41.6509 139.662 41.7542 139.562 41.8508 139.46C41.9329 139.373 42.0084 139.284 42.0865 139.196C42.1779 139.094 42.2692 138.993 42.3553 138.89C42.4295 138.801 42.4983 138.71 42.5685 138.62C42.6506 138.516 42.7327 138.413 42.8082 138.308C42.8744 138.217 42.9353 138.126 42.9989 138.034C43.0704 137.928 43.1432 137.824 43.2094 137.718C43.269 137.624 43.3219 137.531 43.3776 137.437C43.4385 137.331 43.5007 137.225 43.5576 137.119C43.6093 137.024 43.6556 136.927 43.7033 136.832C43.7549 136.726 43.8079 136.619 43.8556 136.512C43.8979 136.416 43.9364 136.318 43.9761 136.222C44.0185 136.114 44.0621 136.007 44.1005 135.898C44.135 135.802 44.1654 135.704 44.1959 135.606C44.2303 135.497 44.2634 135.39 44.2925 135.281C44.319 135.183 44.3415 135.084 44.3641 134.986C44.3892 134.876 44.4131 134.768 44.4329 134.659C44.4515 134.56 44.466 134.462 44.4806 134.362C44.4965 134.253 44.511 134.144 44.5216 134.034C44.5309 133.935 44.5388 133.835 44.5441 133.736C44.5508 133.628 44.5561 133.518 44.5574 133.409C44.5587 133.306 44.5587 133.202 44.5561 133.099C44.5534 133.003 44.5494 132.906 44.5428 132.809C44.5362 132.702 44.5269 132.597 44.515 132.491C44.5044 132.395 44.4938 132.298 44.4793 132.201C44.4647 132.095 44.4448 131.99 44.425 131.885C44.4077 131.788 44.3892 131.692 44.3667 131.596C44.3429 131.49 44.3151 131.386 44.2859 131.28C44.2594 131.184 44.2343 131.089 44.2038 130.994C44.1721 130.889 44.135 130.783 44.0966 130.679C44.0635 130.585 44.0304 130.491 43.992 130.397C43.9509 130.291 43.9046 130.187 43.8582 130.083C43.8172 129.989 43.7761 129.896 43.7311 129.803C43.6808 129.699 43.6252 129.595 43.5696 129.491C43.5206 129.4 43.4729 129.308 43.4199 129.217C43.3604 129.113 43.2955 129.01 43.2306 128.907C43.1736 128.817 43.1194 128.727 43.0584 128.637C42.9909 128.535 42.9168 128.434 42.8426 128.332C42.779 128.244 42.7168 128.155 42.6493 128.066C42.5712 127.965 42.4864 127.865 42.4043 127.764C42.3328 127.678 42.264 127.591 42.1885 127.505C42.0998 127.404 42.0057 127.305 41.9131 127.204C41.8349 127.122 41.7608 127.037 41.68 126.955C41.5794 126.853 41.4734 126.754 41.3675 126.653C41.2854 126.575 41.2059 126.496 41.1199 126.418C41.0073 126.316 40.8881 126.215 40.7703 126.114C40.6842 126.04 40.6008 125.965 40.5108 125.89C40.385 125.789 40.2512 125.688 40.1188 125.586C40.0288 125.517 39.9427 125.447 39.8513 125.379C39.6991 125.267 39.5402 125.158 39.3813 125.05C39.3005 124.994 39.225 124.937 39.1429 124.883C38.8979 124.72 38.645 124.56 38.3828 124.402C37.6705 123.973 36.9051 123.592 36.1199 123.233C36.1848 123.446 36.251 123.661 36.3079 123.845C36.4032 124.156 36.5304 124.569 36.627 124.88C36.6747 125.035 36.7383 125.243 36.7859 125.398C36.8813 125.708 37.0084 126.122 37.1037 126.433C37.1991 126.743 37.3275 127.158 37.4228 127.468C37.4705 127.624 37.5341 127.83 37.5817 127.985C37.6771 128.296 37.8042 128.711 37.9009 129.021C37.9962 129.332 38.1233 129.745 38.2187 130.056C38.2663 130.211 38.3299 130.418 38.3776 130.574C38.4729 130.884 38.6013 131.298 38.6967 131.61C38.6993 131.62 38.702 131.631 38.7046 131.643C38.7139 131.67 38.7179 131.698 38.7258 131.727C38.7973 131.976 38.8489 132.227 38.886 132.478C38.894 132.532 38.9046 132.588 38.9112 132.644C38.9416 132.91 38.9549 133.177 38.9483 133.445C38.9469 133.496 38.9416 133.549 38.939 133.601C38.9258 133.85 38.8966 134.096 38.8503 134.344C38.845 134.378 38.841 134.414 38.8331 134.45C38.7788 134.717 38.6993 134.983 38.6053 135.247C38.5841 135.307 38.5616 135.366 38.5391 135.424C38.4345 135.692 38.318 135.957 38.1749 136.219C38.1657 136.235 38.1551 136.249 38.1471 136.265C38.0068 136.516 37.8452 136.762 37.6691 137.007C37.6307 137.061 37.5923 137.115 37.5526 137.168C37.3632 137.417 37.158 137.664 36.9316 137.905C36.8905 137.948 36.8442 137.991 36.8018 138.034C36.5886 138.253 36.3595 138.469 36.1146 138.679C36.0722 138.716 36.0312 138.753 35.9875 138.79C35.712 139.019 35.4154 139.243 35.1029 139.46C35.0341 139.508 34.9626 139.556 34.891 139.602C34.5613 139.823 34.2197 140.039 33.8503 140.244C27.2388 143.931 16.7382 143.825 10.3968 140.007C10.0393 139.793 9.70959 139.568 9.39312 139.34C9.33486 139.298 9.2766 139.257 9.21966 139.213C8.92305 138.992 8.64629 138.764 8.38808 138.531C8.33909 138.486 8.29142 138.441 8.24375 138.396C7.98422 138.152 7.73792 137.906 7.52076 137.653C7.51943 137.652 7.51811 137.65 7.51679 137.649C7.29963 137.396 7.10894 137.138 6.93151 136.878C6.8984 136.829 6.86531 136.782 6.83353 136.734C6.67066 136.481 6.52632 136.226 6.40053 135.967C6.37669 135.917 6.3555 135.867 6.33167 135.816C6.20985 135.548 6.10127 135.277 6.02049 135.005C6.01917 135.002 6.01917 134.999 6.01784 134.997C5.93839 134.725 5.88411 134.452 5.84438 134.178C5.83644 134.128 5.82849 134.078 5.82187 134.026C5.79009 133.761 5.77817 133.495 5.7848 133.228C5.78612 133.176 5.79009 133.126 5.79273 133.073C5.8073 132.797 5.83511 132.522 5.89073 132.248C5.89073 132.244 5.89205 132.241 5.89205 132.237C5.92912 132.058 5.97282 131.881 6.02711 131.702C6.12113 131.391 6.24561 130.977 6.33962 130.665C6.38597 130.51 6.4482 130.303 6.49587 130.148C6.58988 129.836 6.71435 129.421 6.80836 129.111C6.85471 128.955 6.91694 128.747 6.96461 128.592C7.01096 128.437 7.06658 128.254 7.12087 128.073C7.17516 127.891 7.23078 127.71 7.27712 127.555C7.32347 127.399 7.38702 127.192 7.43337 127.036C7.47971 126.881 7.53533 126.7 7.58962 126.518C7.64391 126.337 7.69952 126.155 7.74586 125.999C7.80015 125.818 7.85578 125.636 7.90212 125.481C7.94847 125.325 8.01203 125.117 8.05837 124.962C8.15239 124.651 8.27685 124.237 8.37087 123.925C8.41721 123.769 8.47283 123.588 8.52711 123.406C8.53771 123.375 8.54963 123.332 8.56022 123.298C8.02526 123.545 7.50223 123.804 6.99905 124.084C6.71833 124.241 6.44688 124.401 6.18469 124.564C6.09333 124.619 6.00858 124.678 5.91986 124.735C5.75037 124.843 5.58088 124.95 5.41933 125.06C5.32135 125.128 5.22998 125.197 5.13464 125.265C4.99031 125.369 4.84464 125.471 4.70693 125.575C4.60894 125.649 4.51891 125.725 4.42357 125.8C4.29777 125.901 4.168 126.002 4.0475 126.104C3.95349 126.184 3.86477 126.265 3.77473 126.346C3.66085 126.447 3.54565 126.547 3.43839 126.649C3.351 126.731 3.2689 126.816 3.18415 126.901C3.08219 127.001 2.97891 127.103 2.88224 127.207C2.80015 127.293 2.72467 127.381 2.64655 127.469C2.55518 127.571 2.46381 127.673 2.37641 127.776C2.30226 127.866 2.23341 127.956 2.16323 128.046C2.08246 128.15 2.00036 128.253 1.92356 128.357C1.85736 128.449 1.79644 128.541 1.73288 128.634C1.66138 128.739 1.58987 128.842 1.52233 128.948C1.46407 129.042 1.40979 129.136 1.3555 129.23C1.29326 129.336 1.23102 129.441 1.17408 129.548C1.12244 129.642 1.07743 129.738 1.02976 129.834C0.976793 129.94 0.925151 130.047 0.877481 130.154C0.833784 130.251 0.795376 130.348 0.756975 130.444C0.713278 130.552 0.670913 130.659 0.632513 130.767C0.598085 130.864 0.566294 130.963 0.535839 131.06C0.501411 131.169 0.46831 131.277 0.439178 131.384C0.412695 131.484 0.390192 131.583 0.367682 131.681C0.342523 131.79 0.318685 131.898 0.298823 132.007C0.281609 132.106 0.265711 132.205 0.251146 132.305C0.23658 132.413 0.222014 132.522 0.211421 132.632C0.200828 132.731 0.194209 132.83 0.187589 132.931C0.180968 133.04 0.176995 133.148 0.174347 133.257C0.173023 133.36 0.17435 133.463 0.176998 133.568C0.179646 133.665 0.1823 133.76 0.188921 133.857Z" fill="#F3A453"/>
<path d="M9.11851 121.507C9.133 121.449 9.13564 121.39 9.15408 121.332C9.15276 121.332 9.15276 121.333 9.15276 121.333C9.13563 121.391 9.13299 121.45 9.11719 121.51C9.1185 121.508 9.11851 121.508 9.11851 121.507Z" fill="#F8DABE"/>
<path d="M8.68555 122.889C8.73322 122.732 8.79545 122.526 8.84179 122.37C8.79545 122.526 8.73984 122.707 8.68555 122.889Z" fill="#F8DABE"/>
<path d="M35.5391 121.352C35.5483 121.384 35.5549 121.416 35.5629 121.446C35.5549 121.415 35.5483 121.383 35.5391 121.352Z" fill="#F8DABE"/>
<path d="M8.97591 122.219C8.97196 122.261 8.97854 122.304 8.97591 122.346C8.97591 122.346 8.97591 122.346 8.97591 122.344C8.97854 122.304 8.97196 122.261 8.97591 122.219Z" fill="#F8DABE"/>
<path d="M35.6546 121.882C35.6453 121.828 35.6414 121.776 35.6309 121.722C35.6414 121.774 35.6453 121.828 35.6546 121.882Z" fill="#F8DABE"/>
<path d="M35.5182 121.285C35.5156 121.276 35.5143 121.267 35.5117 121.257V121.256C35.5143 121.265 35.5156 121.274 35.5182 121.283C35.5182 121.283 35.5182 121.283 35.5182 121.285Z" fill="#F8DABE"/>
<path d="M7.12305 128.073C7.16939 127.918 7.23295 127.71 7.27929 127.555C7.23295 127.71 7.17734 127.891 7.12305 128.073Z" fill="#F8DABE"/>
<path d="M6.80859 129.111C6.85494 128.955 6.91055 128.773 6.96484 128.592C6.91717 128.747 6.85494 128.955 6.80859 129.111Z" fill="#F8DABE"/>
<path d="M10.0293 125.722C10.0701 125.777 10.1255 125.828 10.1676 125.882C10.1255 125.828 10.0688 125.777 10.0293 125.722Z" fill="#F8DABE"/>
<path d="M9.5 124.872C9.53161 124.937 9.58035 124.997 9.61592 125.061C9.61592 125.059 9.61592 125.059 9.61592 125.059C9.58035 124.996 9.53161 124.935 9.5 124.872Z" fill="#F8DABE"/>
<path d="M8.97461 123.111C8.97593 123.132 8.98388 123.153 8.98653 123.176V123.174C8.98388 123.153 8.97593 123.132 8.97461 123.111Z" fill="#F8DABE"/>
<path d="M7.43554 127.036C7.3892 127.192 7.32564 127.398 7.2793 127.555C7.32564 127.398 7.38125 127.217 7.43554 127.036Z" fill="#F8DABE"/>
<path d="M9.14844 123.999C9.15094 124.004 9.15344 124.009 9.15469 124.014C9.15469 124.011 9.15344 124.01 9.15219 124.007C9.15219 124.005 9.14969 124.001 9.14844 123.999Z" fill="#F8DABE"/>
<path d="M5.59296 141.784C5.50689 141.727 5.42745 141.667 5.3427 141.609C5.1891 141.502 5.03152 141.396 4.88454 141.287C4.79184 141.218 4.70578 141.148 4.61573 141.079C4.48464 140.979 4.3509 140.878 4.22511 140.775C4.13374 140.699 4.04768 140.622 3.95896 140.547C3.84376 140.448 3.7259 140.35 3.616 140.249C3.5286 140.17 3.4465 140.087 3.36176 140.007C3.25847 139.909 3.15387 139.811 3.05588 139.71C2.97511 139.628 2.89963 139.543 2.8215 139.46C2.72881 139.361 2.6348 139.261 2.54608 139.161C2.47193 139.074 2.40307 138.987 2.33157 138.901C2.24815 138.8 2.16472 138.7 2.0866 138.599C2.01907 138.51 1.95683 138.422 1.89194 138.333C1.81912 138.232 1.74497 138.13 1.67611 138.028C1.61652 137.938 1.56091 137.847 1.50397 137.757C1.43909 137.654 1.3742 137.552 1.31594 137.448C1.26297 137.357 1.21399 137.266 1.16499 137.173C1.1107 137.07 1.05508 136.966 1.00476 136.862C0.95974 136.769 0.918688 136.675 0.876315 136.582C0.82997 136.478 0.784954 136.375 0.742581 136.27C0.705504 136.176 0.672395 136.081 0.637967 135.987C0.600891 135.881 0.56382 135.776 0.530716 135.671C0.501584 135.576 0.475099 135.481 0.448616 135.385C0.420808 135.279 0.393006 135.175 0.367847 135.069C0.346661 134.974 0.328118 134.877 0.309579 134.78C0.289717 134.676 0.271184 134.57 0.255294 134.464C0.242053 134.367 0.230133 134.27 0.219539 134.174C0.208946 134.068 0.198358 133.962 0.191737 133.856C0.185117 133.759 0.182463 133.664 0.179815 133.567C0.178491 133.51 0.171875 133.453 0.171875 133.397L0.181134 136.704C0.181134 136.761 0.187762 136.817 0.189086 136.874C0.191735 136.97 0.195699 137.067 0.200996 137.162C0.207617 137.27 0.218218 137.376 0.228811 137.482C0.239404 137.578 0.251324 137.675 0.264566 137.772C0.280456 137.876 0.298989 137.982 0.318851 138.088C0.337389 138.185 0.355933 138.28 0.377119 138.375C0.402278 138.481 0.430075 138.587 0.459206 138.693C0.484365 138.788 0.510856 138.882 0.539988 138.978C0.573091 139.084 0.610163 139.188 0.647239 139.293C0.681667 139.388 0.714776 139.482 0.751852 139.576C0.794225 139.681 0.840573 139.786 0.886919 139.89C0.927968 139.983 0.969011 140.077 1.01403 140.17C1.06435 140.274 1.11997 140.377 1.17558 140.481C1.22458 140.573 1.27225 140.665 1.32389 140.755C1.3848 140.859 1.44968 140.961 1.51324 141.065C1.57018 141.155 1.62579 141.245 1.68538 141.335C1.75424 141.438 1.82838 141.54 1.90254 141.642C1.96609 141.729 2.02834 141.818 2.09587 141.906C2.174 142.007 2.25874 142.108 2.34216 142.209C2.41234 142.295 2.4812 142.382 2.55535 142.467C2.64407 142.568 2.7394 142.668 2.83209 142.768C2.9089 142.851 2.98438 142.934 3.06515 143.017C3.16447 143.118 3.27039 143.218 3.375 143.317C3.45842 143.397 3.53787 143.477 3.62527 143.555C3.7365 143.657 3.85434 143.757 3.97087 143.856C4.05959 143.931 4.14301 144.007 4.23438 144.081C4.36018 144.184 4.49392 144.285 4.62501 144.387C4.71505 144.456 4.80112 144.525 4.89381 144.594C5.04476 144.705 5.20499 144.813 5.36256 144.923C5.44334 144.979 5.52013 145.035 5.60223 145.09C5.8472 145.253 6.10011 145.413 6.36097 145.571L6.3517 142.263C6.09084 142.107 5.83793 141.947 5.59296 141.784Z" fill="#E28A3D"/>
<path d="M31.4413 108.258C31.4453 108.299 31.4374 108.34 31.44 108.381C31.44 108.381 31.44 108.381 31.44 108.382C31.4374 108.34 31.4453 108.299 31.4413 108.258Z" fill="#BBE9FB"/>
<path d="M13.2734 109.498C13.2734 109.501 13.2746 109.503 13.2759 109.505C13.2746 109.503 13.2734 109.501 13.2734 109.499V109.498Z" fill="#BBE9FB"/>
<path d="M31.4364 108.898C31.4325 108.933 31.4193 108.969 31.4141 109.005V109.006C31.4193 108.97 31.4325 108.935 31.4364 108.898Z" fill="#BBE9FB"/>
<path d="M13.875 110.678C13.9027 110.716 13.9409 110.752 13.9712 110.789C13.9712 110.789 13.9698 110.789 13.9698 110.787C13.9409 110.75 13.9027 110.715 13.875 110.678Z" fill="#BBE9FB"/>
<path d="M13.5137 110.096C13.5361 110.14 13.569 110.182 13.594 110.224H13.5927C13.569 110.181 13.5361 110.14 13.5137 110.096Z" fill="#BBE9FB"/>
<path d="M14.3574 111.236C14.3826 111.263 14.4157 111.286 14.4422 111.312C14.4157 111.285 14.3826 111.263 14.3574 111.236Z" fill="#BBE9FB"/>
<path d="M13.2533 107.793C13.2638 107.753 13.2651 107.712 13.277 107.673V107.674C13.2651 107.714 13.2625 107.754 13.252 107.794C13.2533 107.794 13.2533 107.794 13.2533 107.793Z" fill="#BBE9FB"/>
<path d="M31.3152 107.636C31.3138 107.632 31.3138 107.626 31.3125 107.622C31.3125 107.621 31.3125 107.621 31.3125 107.621C31.3138 107.626 31.3138 107.63 31.3152 107.636Z" fill="#BBE9FB"/>
<path d="M31.2998 109.535C31.2932 109.555 31.2813 109.575 31.2734 109.594C31.2734 109.594 31.2734 109.594 31.2734 109.596C31.2813 109.575 31.2932 109.555 31.2998 109.535Z" fill="#BBE9FB"/>
<path d="M30.0969 111.344C30.0653 111.373 30.0245 111.4 29.9915 111.429C29.9915 111.431 29.9902 111.431 29.9902 111.431C30.0232 111.4 30.0653 111.373 30.0969 111.344Z" fill="#BBE9FB"/>
<path d="M30.6301 110.764C30.5998 110.802 30.559 110.837 30.5273 110.876C30.5273 110.876 30.5273 110.876 30.5273 110.877C30.559 110.839 30.5998 110.803 30.6301 110.764Z" fill="#BBE9FB"/>
<path d="M31.0303 110.159C31.029 110.161 31.0278 110.164 31.0266 110.165L31.0254 110.166C31.0266 110.164 31.029 110.161 31.0303 110.159Z" fill="#BBE9FB"/>
<path d="M13.1572 108.28C13.1545 108.309 13.1585 108.339 13.1572 108.368C13.1572 108.366 13.1572 108.366 13.1572 108.366C13.1585 108.337 13.1545 108.308 13.1572 108.28Z" fill="#BBE9FB"/>
<path d="M13.1543 108.891C13.1556 108.905 13.1609 108.92 13.1622 108.936C13.1622 108.934 13.1622 108.934 13.1622 108.934C13.1609 108.92 13.1556 108.905 13.1543 108.891Z" fill="#BBE9FB"/>
<path d="M10.8594 126.646C10.9349 126.72 11.0236 126.789 11.1043 126.861C11.0236 126.789 10.9349 126.719 10.8594 126.646Z" fill="#BBE9FB"/>
<path d="M8.97624 122.345C8.9683 122.448 8.97623 122.552 8.97491 122.655C8.97623 122.552 8.9683 122.448 8.97624 122.344C8.97624 122.345 8.97624 122.345 8.97624 122.345Z" fill="#BBE9FB"/>
<path d="M35.5215 121.285C35.5215 121.283 35.5215 121.283 35.5215 121.283C35.5281 121.306 35.5321 121.33 35.5387 121.352C35.5321 121.33 35.5281 121.306 35.5215 121.285Z" fill="#BBE9FB"/>
<path d="M35.7156 122.738C35.7143 122.776 35.7116 122.813 35.709 122.851C35.7116 122.813 35.7156 122.776 35.7156 122.738Z" fill="#BBE9FB"/>
<path d="M9.11818 121.51C9.09302 121.609 9.07713 121.71 9.05859 121.811C9.07713 121.71 9.09303 121.608 9.11951 121.507C9.11951 121.509 9.1195 121.509 9.11818 121.51Z" fill="#BBE9FB"/>
<path d="M9.61719 125.06C9.6728 125.161 9.73901 125.259 9.80257 125.358C9.73901 125.259 9.6728 125.16 9.61719 125.059C9.61719 125.059 9.61719 125.059 9.61719 125.06Z" fill="#BBE9FB"/>
<path d="M10.168 125.882C10.2408 125.975 10.3255 126.065 10.4037 126.155C10.3242 126.065 10.2408 125.975 10.168 125.882Z" fill="#BBE9FB"/>
<path d="M9.15304 124.014C9.20998 124.202 9.29737 124.388 9.37815 124.574C9.29605 124.386 9.20733 124.198 9.15039 124.007C9.15171 124.01 9.15304 124.011 9.15304 124.014Z" fill="#BBE9FB"/>
<path d="M8.98633 123.176C8.99957 123.298 9.03531 123.418 9.05782 123.539C9.03399 123.417 8.99957 123.296 8.98633 123.174V123.176Z" fill="#BBE9FB"/>
<path d="M9.05864 121.811C9.03216 121.947 8.99112 122.082 8.97656 122.218C8.97258 122.261 8.9792 122.303 8.97656 122.344C8.96861 122.449 8.97655 122.552 8.97522 122.655C8.97522 122.808 8.96066 122.959 8.97522 123.111C8.97655 123.132 8.9845 123.153 8.98715 123.174C9.00039 123.296 9.03481 123.417 9.05864 123.539C9.0891 123.692 9.10367 123.846 9.1487 123.998C9.15002 124.001 9.15267 124.005 9.15267 124.007C9.2096 124.198 9.29833 124.386 9.38042 124.574C9.42412 124.673 9.4506 124.773 9.50092 124.871C9.5327 124.934 9.58169 124.995 9.61744 125.059C9.67305 125.159 9.73926 125.259 9.80282 125.358C9.88095 125.478 9.94054 125.602 10.0293 125.721C10.069 125.776 10.1259 125.828 10.1683 125.882C10.2411 125.975 10.3245 126.065 10.404 126.155C10.5152 126.284 10.6106 126.413 10.735 126.538C10.7721 126.575 10.8211 126.609 10.8595 126.646C10.935 126.719 11.0237 126.789 11.1045 126.861C11.5626 127.271 12.0724 127.669 12.6802 128.033L15.6887 112.259C15.4464 112.114 15.2239 111.96 15.016 111.801C14.9988 111.789 14.9789 111.779 14.9631 111.765C14.9127 111.727 14.8743 111.686 14.8267 111.646C14.6916 111.536 14.5618 111.425 14.4427 111.311C14.4162 111.286 14.3831 111.262 14.3579 111.236C14.3208 111.199 14.2944 111.16 14.2599 111.123C14.1567 111.012 14.06 110.901 13.9713 110.788C13.9408 110.751 13.9024 110.715 13.8746 110.677C13.8547 110.649 13.8415 110.62 13.823 110.592C13.7369 110.472 13.6627 110.349 13.5939 110.224C13.5687 110.182 13.5356 110.139 13.5131 110.096C13.5052 110.081 13.5025 110.065 13.4946 110.051C13.4058 109.871 13.3304 109.688 13.2761 109.505C13.2748 109.502 13.2734 109.5 13.2734 109.497C13.2178 109.31 13.1834 109.124 13.1622 108.936C13.1609 108.92 13.1556 108.905 13.1543 108.891C13.149 108.844 13.1569 108.799 13.1543 108.754C13.1476 108.625 13.145 108.496 13.1556 108.368C13.1569 108.339 13.1529 108.309 13.1556 108.28C13.1596 108.239 13.1741 108.198 13.1794 108.158C13.1966 108.037 13.2218 107.915 13.2522 107.794C13.2628 107.755 13.2655 107.714 13.2774 107.674C13.1529 108.083 12.9887 108.63 12.8656 109.039C12.8034 109.244 12.7213 109.517 12.659 109.722C12.5346 110.131 12.3704 110.678 12.2472 111.087C12.1227 111.498 11.9586 112.044 11.8341 112.454C11.7718 112.658 11.6897 112.932 11.6288 113.136C11.5044 113.546 11.3402 114.092 11.2157 114.502C11.0926 114.912 10.927 115.459 10.8039 115.868C10.7417 116.073 10.6595 116.346 10.5973 116.551C10.4742 116.96 10.3087 117.507 10.1855 117.916C10.0624 118.327 9.89683 118.872 9.77369 119.283C9.71145 119.487 9.62936 119.761 9.56712 119.965C9.44398 120.375 9.27846 120.921 9.15532 121.331C9.13678 121.389 9.13413 121.449 9.11956 121.507C9.09308 121.608 9.07718 121.71 9.05864 121.811Z" fill="white"/>
<path d="M31.4324 108.214C31.4337 108.229 31.4403 108.243 31.4416 108.258C31.4456 108.299 31.4377 108.34 31.4403 108.382C31.4483 108.523 31.4483 108.663 31.4377 108.804C31.435 108.835 31.4403 108.867 31.4363 108.898C31.4324 108.935 31.4191 108.97 31.4138 109.006C31.394 109.141 31.3648 109.275 31.3264 109.409C31.3159 109.451 31.3132 109.492 31.3 109.534C31.2933 109.554 31.2814 109.574 31.2735 109.595C31.2152 109.768 31.1411 109.94 31.0523 110.109C31.0444 110.125 31.0404 110.142 31.0312 110.158C31.0298 110.161 31.0272 110.163 31.0259 110.166C30.9239 110.353 30.7994 110.536 30.6617 110.717C30.6498 110.732 30.6419 110.749 30.6299 110.763C30.5995 110.803 30.5584 110.839 30.5267 110.877C30.4194 111.004 30.3055 111.13 30.1811 111.253C30.1506 111.282 30.1281 111.314 30.0976 111.343C30.0659 111.372 30.0235 111.4 29.9904 111.431C29.858 111.55 29.7163 111.665 29.5653 111.779C29.4991 111.829 29.4356 111.881 29.3654 111.931C29.1389 112.09 28.9006 112.245 28.6384 112.391C24.9877 114.426 19.1906 114.368 15.6882 112.26L12.6797 128.033C17.7962 131.113 26.2695 131.199 31.6032 128.225C31.8124 128.108 32.015 127.988 32.2083 127.866C32.497 127.682 32.7632 127.491 33.0174 127.297C33.1021 127.23 33.1922 127.166 33.2743 127.098C33.3696 127.02 33.457 126.939 33.5471 126.86C33.6093 126.804 33.6755 126.75 33.7351 126.694C34.0198 126.427 34.2714 126.151 34.4951 125.871C34.5004 125.863 34.5084 125.856 34.5137 125.848C34.7282 125.575 34.9123 125.296 35.0712 125.013C35.0778 125.001 35.0857 124.989 35.0923 124.977C35.095 124.973 35.0976 124.968 35.1003 124.964C35.1572 124.859 35.2049 124.752 35.2552 124.646C35.2764 124.601 35.3016 124.556 35.3214 124.509C35.3519 124.438 35.3757 124.365 35.4035 124.292C35.4154 124.259 35.4287 124.226 35.4406 124.193C35.4565 124.145 35.4777 124.099 35.4936 124.051C35.52 123.968 35.5386 123.884 35.5611 123.801C35.5796 123.729 35.6021 123.659 35.618 123.588C35.6458 123.459 35.6644 123.331 35.6803 123.201C35.6842 123.175 35.6909 123.148 35.6935 123.122C35.7041 123.032 35.7054 122.942 35.7094 122.852C35.712 122.813 35.7147 122.776 35.716 122.738C35.7173 122.71 35.7213 122.682 35.7213 122.654C35.7213 122.581 35.7147 122.51 35.712 122.438C35.7081 122.355 35.7081 122.27 35.7001 122.187C35.6909 122.085 35.6723 121.984 35.6551 121.882C35.6458 121.828 35.6419 121.774 35.6313 121.721C35.6127 121.629 35.5849 121.538 35.5611 121.447C35.5531 121.416 35.5465 121.384 35.5373 121.353C35.5306 121.33 35.5267 121.306 35.52 121.284C35.5174 121.274 35.5161 121.265 35.5134 121.256C35.5134 121.256 35.5134 121.256 35.5121 121.255C35.3863 120.847 35.2181 120.301 35.0923 119.892C35.0301 119.687 34.9454 119.415 34.8831 119.21C34.7573 118.801 34.5892 118.255 34.462 117.848C34.3362 117.438 34.1694 116.893 34.0423 116.484C33.9801 116.28 33.8953 116.007 33.8331 115.802C33.7073 115.393 33.5391 114.847 33.4133 114.439C33.2862 114.03 33.1193 113.484 32.9922 113.075C32.93 112.871 32.8453 112.599 32.783 112.393C32.6572 111.984 32.489 111.439 32.3633 111.031C32.2375 110.622 32.0693 110.076 31.9435 109.667C31.8799 109.463 31.7965 109.19 31.733 108.985C31.6072 108.576 31.439 108.032 31.3132 107.622C31.3145 107.626 31.3145 107.632 31.3159 107.636C31.3741 107.828 31.4112 108.021 31.4324 108.214Z" fill="white"/>
<path d="M15.5671 100.099C15.4611 100.449 15.3208 100.915 15.2148 101.265C15.2771 101.061 15.338 100.857 15.391 100.682C15.4439 100.507 15.5141 100.274 15.5671 100.099Z" fill="#F8DABE"/>
<path d="M16.8181 95.9824C16.8128 95.9956 16.8036 96.0088 16.7997 96.0219C16.7931 96.047 16.7917 96.0707 16.7852 96.0957C16.7957 96.0575 16.8049 96.0206 16.8181 95.9824Z" fill="#F8DABE"/>
<path d="M27.7246 95.9912C27.722 95.9808 27.7155 95.9717 27.7129 95.9626C27.7168 95.9743 27.7233 95.9873 27.7272 95.999C27.7259 95.9964 27.7259 95.9938 27.7246 95.9912Z" fill="#F8DABE"/>
<path d="M14.6862 103.012C14.5803 103.362 14.4399 103.828 14.334 104.177C14.3962 103.973 14.4571 103.769 14.5101 103.595C14.5631 103.42 14.6332 103.187 14.6862 103.012Z" fill="#F8DABE"/>
<path d="M16.0957 98.3521C16.1579 98.1481 16.2188 97.9442 16.2718 97.7694C16.2188 97.9442 16.1487 98.1773 16.0957 98.3521Z" fill="#F8DABE"/>
<path d="M26.7402 94.6696C26.7771 94.6985 26.814 94.7275 26.8483 94.7578C26.8127 94.7275 26.7771 94.6985 26.7402 94.6696Z" fill="#F8DABE"/>
<path d="M13.5918 110.224H13.5931C13.662 110.349 13.7361 110.472 13.8222 110.592C13.7361 110.472 13.662 110.347 13.5918 110.224Z" fill="#F8DABE"/>
<path d="M13.1556 108.366C13.1556 108.366 13.1556 108.366 13.1556 108.368C13.145 108.496 13.1476 108.625 13.1542 108.754C13.1476 108.625 13.1463 108.496 13.1556 108.366Z" fill="#F8DABE"/>
<path d="M13.2734 109.499C13.2734 109.5 13.2748 109.503 13.2761 109.505C13.3304 109.688 13.4058 109.871 13.4946 110.051C13.4058 109.868 13.3291 109.684 13.2734 109.499Z" fill="#F8DABE"/>
<path d="M13.9707 110.787C13.9707 110.789 13.972 110.789 13.972 110.789C14.0607 110.901 14.1574 111.012 14.2607 111.124C14.1574 111.012 14.0607 110.901 13.9707 110.787Z" fill="#F8DABE"/>
<path d="M13.2538 107.793C13.2538 107.795 13.2538 107.795 13.2525 107.795C13.2221 107.915 13.1969 108.037 13.1797 108.159C13.1969 108.037 13.2221 107.915 13.2538 107.793Z" fill="#F8DABE"/>
<path d="M31.4136 109.005C31.3937 109.14 31.3646 109.275 31.3262 109.409C31.3646 109.275 31.3937 109.141 31.4136 109.006V109.005Z" fill="#F8DABE"/>
<path d="M31.2739 109.594C31.2156 109.767 31.1415 109.939 31.0527 110.109C31.1415 109.939 31.2156 109.767 31.2739 109.595C31.2739 109.594 31.2739 109.594 31.2739 109.594Z" fill="#F8DABE"/>
<path d="M31.0276 110.165C30.9243 110.353 30.7998 110.535 30.6621 110.717C30.7998 110.535 30.9243 110.353 31.0263 110.166L31.0276 110.165Z" fill="#F8DABE"/>
<path d="M29.9908 111.429C29.8584 111.548 29.7154 111.665 29.5645 111.779C29.7154 111.665 29.8571 111.55 29.9895 111.431C29.9895 111.431 29.9908 111.431 29.9908 111.429Z" fill="#F8DABE"/>
<path d="M13.1602 108.935C13.1602 108.935 13.1602 108.935 13.1602 108.936C13.1813 109.124 13.2158 109.311 13.2714 109.498C13.2158 109.311 13.1813 109.123 13.1602 108.935Z" fill="#F8DABE"/>
<path d="M30.5292 110.877C30.5292 110.876 30.5292 110.876 30.5292 110.876C30.4233 111.003 30.3081 111.128 30.1836 111.253C30.3081 111.13 30.4219 111.004 30.5292 110.877Z" fill="#F8DABE"/>
<path d="M31.4421 108.382C31.4421 108.381 31.4421 108.381 31.4421 108.381C31.45 108.521 31.45 108.663 31.4395 108.803C31.45 108.663 31.45 108.523 31.4421 108.382Z" fill="#F8DABE"/>
<path d="M8.37299 123.925C8.27898 124.236 8.15451 124.651 8.0605 124.962C8.01415 125.117 7.9506 125.325 7.90425 125.481C7.85791 125.636 7.80228 125.817 7.74799 125.999C7.70165 126.155 7.64603 126.336 7.59174 126.518C7.53745 126.699 7.48184 126.88 7.4355 127.035C7.3812 127.217 7.32559 127.398 7.27925 127.554C7.2329 127.709 7.16935 127.917 7.123 128.072C7.06871 128.254 7.01308 128.436 6.96674 128.591C6.91245 128.773 6.85684 128.954 6.81049 129.11C6.71648 129.42 6.59201 129.836 6.498 130.147C6.45033 130.302 6.38809 130.51 6.34175 130.665C6.24773 130.976 6.12326 131.391 6.02924 131.702C5.97495 131.88 5.93125 132.058 5.89417 132.237C5.89417 132.241 5.89285 132.243 5.89285 132.247C5.83724 132.521 5.80943 132.797 5.79486 133.072C5.79221 133.124 5.78825 133.176 5.78692 133.227C5.7803 133.495 5.79222 133.761 5.824 134.026C5.82929 134.077 5.83856 134.128 5.84651 134.178C5.88623 134.452 5.94052 134.725 6.01997 134.996C6.02129 134.999 6.0213 135.002 6.02262 135.004C6.10339 135.277 6.21197 135.547 6.3338 135.816C6.35763 135.866 6.37882 135.917 6.40265 135.967C6.52845 136.225 6.67278 136.481 6.83566 136.734C6.86744 136.781 6.90053 136.829 6.93364 136.878C7.11107 137.137 7.30175 137.396 7.51891 137.649C7.52024 137.65 7.52156 137.651 7.52288 137.652C7.74005 137.905 7.98635 138.152 8.24588 138.395C8.29355 138.44 8.34121 138.485 8.39021 138.53C8.64842 138.763 8.92518 138.991 9.22179 139.212C9.27872 139.256 9.33831 139.297 9.39524 139.339C9.71172 139.567 10.0414 139.792 10.399 140.007L12.6805 128.033C12.0727 127.668 11.5629 127.271 11.1047 126.861C11.024 126.789 10.9352 126.72 10.8598 126.646C10.8214 126.609 10.7724 126.575 10.7353 126.538C10.6108 126.413 10.5155 126.283 10.4043 126.155C10.3261 126.065 10.2414 125.975 10.1686 125.882C10.1262 125.828 10.0706 125.776 10.0295 125.721C9.9408 125.601 9.88121 125.478 9.80308 125.358C9.73952 125.258 9.67331 125.16 9.6177 125.06C9.58195 124.996 9.53296 124.935 9.50118 124.87C9.45086 124.772 9.42438 124.673 9.38068 124.574C9.29991 124.387 9.21252 124.202 9.15558 124.014C9.15425 124.008 9.15161 124.003 9.14896 123.998C9.10394 123.846 9.08936 123.692 9.0589 123.538C9.03639 123.418 9.00065 123.297 8.98741 123.175C8.98476 123.153 8.97681 123.132 8.97549 123.111C8.96092 122.958 8.97549 122.807 8.97549 122.655C8.97681 122.552 8.96887 122.449 8.97682 122.345C8.97947 122.303 8.97284 122.261 8.97682 122.218C8.99138 122.082 9.03242 121.947 9.0589 121.81C9.07744 121.71 9.09333 121.609 9.11849 121.51C9.13438 121.45 9.13703 121.391 9.15425 121.332C9.06023 121.643 8.93577 122.058 8.84175 122.369C8.79541 122.525 8.73317 122.732 8.6855 122.888C8.64181 123.031 8.60207 123.166 8.56235 123.297C8.55175 123.332 8.53984 123.374 8.52924 123.406C8.47495 123.587 8.41934 123.769 8.37299 123.925Z" fill="#F3A453"/>
<path d="M13.1789 108.158C13.1736 108.198 13.159 108.239 13.1551 108.28C13.1524 108.308 13.1564 108.337 13.1551 108.366C13.1458 108.496 13.1471 108.624 13.1537 108.754C13.1564 108.799 13.1484 108.844 13.1537 108.891C13.1551 108.905 13.1604 108.92 13.1617 108.934C13.1829 109.122 13.2173 109.31 13.2729 109.497V109.498C13.3285 109.684 13.4053 109.868 13.494 110.051C13.502 110.065 13.5046 110.081 13.5126 110.096C13.5351 110.139 13.5682 110.18 13.592 110.224C13.6622 110.347 13.7364 110.472 13.8224 110.592C13.841 110.62 13.8542 110.649 13.8741 110.677C13.9019 110.714 13.9403 110.75 13.9694 110.787C14.0595 110.901 14.1561 111.012 14.2594 111.123C14.2938 111.16 14.3203 111.199 14.3574 111.236C14.3825 111.262 14.4157 111.285 14.4421 111.311C14.5613 111.425 14.6911 111.536 14.8261 111.646C14.8738 111.686 14.9122 111.727 14.9625 111.765C14.9784 111.779 14.9983 111.789 15.0155 111.801C15.2234 111.96 15.4458 112.114 15.6882 112.259L18.261 98.8006C18.1127 98.7118 17.979 98.6192 17.8532 98.5238C17.8121 98.492 17.7764 98.4603 17.738 98.4285C17.6559 98.3623 17.5777 98.2947 17.5049 98.2259C17.4665 98.1875 17.4308 98.1504 17.395 98.112C17.3314 98.0445 17.2732 97.9769 17.2189 97.9094C17.1884 97.8697 17.158 97.83 17.1302 97.7902C17.0772 97.7174 17.0322 97.6419 16.9911 97.5665C16.9713 97.532 16.9488 97.4976 16.9315 97.4618C16.823 97.2407 16.7554 97.0143 16.7303 96.7865C16.7263 96.7494 16.7263 96.7137 16.725 96.6766C16.721 96.5985 16.7197 96.5204 16.725 96.4422C16.7289 96.3999 16.7342 96.3575 16.7409 96.3165C16.7515 96.2423 16.766 96.1681 16.7846 96.0953C16.7912 96.0702 16.7925 96.0463 16.7991 96.0212C16.7462 96.196 16.6853 96.3999 16.623 96.6038C16.5714 96.7786 16.5091 96.9825 16.4469 97.1864C16.386 97.3903 16.3238 97.5943 16.2708 97.7691C16.2178 97.9438 16.1569 98.1478 16.0947 98.3517C16.0417 98.5265 15.9808 98.7304 15.9186 98.9343C15.8577 99.1382 15.7954 99.3421 15.7425 99.5169C15.6895 99.6917 15.6193 99.9248 15.5663 100.1C15.5134 100.274 15.4432 100.507 15.3902 100.682C15.3373 100.857 15.2764 101.061 15.2141 101.265C15.1612 101.44 15.1002 101.644 15.038 101.846C14.9771 102.05 14.9149 102.254 14.8619 102.429C14.8089 102.604 14.7387 102.837 14.6858 103.011C14.6328 103.186 14.5626 103.419 14.5097 103.594C14.4567 103.769 14.3958 103.973 14.3336 104.177C14.2806 104.351 14.2104 104.584 14.1574 104.759C14.0515 105.109 13.9111 105.575 13.8052 105.925C13.7522 106.099 13.6821 106.332 13.6291 106.507C13.5232 106.857 13.3828 107.323 13.2769 107.672C13.265 107.712 13.2636 107.753 13.253 107.793C13.2213 107.915 13.1961 108.037 13.1789 108.158Z" fill="#F3A453"/>
<path d="M16.7401 96.3159C16.7335 96.357 16.7282 96.3994 16.7242 96.4417C16.7189 96.5199 16.7202 96.598 16.7242 96.6761C16.7255 96.7132 16.7255 96.7489 16.7295 96.786C16.7547 97.0138 16.8222 97.2402 16.9308 97.4613C16.948 97.4971 16.9705 97.5315 16.9904 97.5659C17.0314 97.6414 17.0764 97.7169 17.1294 97.7897C17.1572 97.8294 17.1877 97.8692 17.2181 97.9089C17.2724 97.9764 17.3307 98.044 17.3942 98.1115C17.43 98.1499 17.4657 98.187 17.5041 98.2254C17.577 98.2942 17.6551 98.3618 17.7372 98.428C17.7756 98.4597 17.8113 98.4915 17.8524 98.5233C17.9782 98.6187 18.1119 98.7113 18.2602 98.8001C20.3802 100.077 23.8919 100.112 26.1032 98.8795C26.2621 98.7908 26.4064 98.6968 26.5428 98.6001C26.5865 98.571 26.6249 98.5392 26.6646 98.5087C26.756 98.4399 26.8421 98.3697 26.9228 98.2969C26.9626 98.2611 27.001 98.2254 27.038 98.1896C27.1135 98.1155 27.1824 98.0387 27.2473 97.9619C27.2737 97.9301 27.3042 97.8983 27.3294 97.8652C27.4128 97.7553 27.4883 97.6441 27.5505 97.5315C27.5558 97.5196 27.5598 97.5077 27.5651 97.4971C27.6193 97.3938 27.6644 97.2905 27.7001 97.1859C27.712 97.1475 27.7213 97.1104 27.7319 97.0734C27.7544 96.9926 27.773 96.9105 27.7849 96.8284C27.7902 96.7873 27.7955 96.7476 27.7994 96.7066C27.8061 96.6218 27.8047 96.5358 27.8008 96.451C27.7981 96.4166 27.7994 96.3835 27.7955 96.349C27.7822 96.2325 27.7597 96.1147 27.7253 95.9981C27.7213 95.9862 27.7147 95.973 27.7107 95.9611C27.6697 95.8379 27.6154 95.7174 27.5518 95.5982C27.5333 95.5651 27.5147 95.532 27.4949 95.4989C27.4181 95.3692 27.3294 95.2421 27.2221 95.1176C27.2168 95.1123 27.2089 95.1057 27.2036 95.099C27.1003 94.9825 26.9798 94.8686 26.8487 94.7574C26.8143 94.727 26.7772 94.6978 26.7401 94.6687C26.5958 94.5535 26.4409 94.4409 26.2661 94.3363C24.1448 93.0598 20.6331 93.0241 18.4218 94.2569C18.2245 94.3668 18.0497 94.486 17.8868 94.6078C17.8511 94.6329 17.8166 94.6594 17.7822 94.6859C17.6312 94.8064 17.4935 94.9309 17.373 95.0606C17.3532 95.0832 17.3373 95.1043 17.3174 95.1269C17.2128 95.2474 17.1214 95.3692 17.0446 95.495C17.0314 95.5175 17.0142 95.54 17.001 95.5625C16.9228 95.7002 16.8619 95.8392 16.8169 95.9809C16.8036 96.0193 16.7944 96.0564 16.7838 96.0948C16.7652 96.1676 16.7507 96.2418 16.7401 96.3159Z" fill="#F3A453"/>
<path d="M35.5375 121.352C35.5468 121.383 35.5534 121.414 35.5614 121.446C35.5852 121.538 35.613 121.629 35.6315 121.72C35.6421 121.775 35.6461 121.828 35.6554 121.882C35.6726 121.984 35.6911 122.085 35.7004 122.186C35.7083 122.27 35.7083 122.355 35.7123 122.438C35.715 122.51 35.7216 122.581 35.7216 122.654C35.7216 122.682 35.7176 122.71 35.7163 122.737C35.7163 122.776 35.7123 122.813 35.7097 122.851C35.7057 122.941 35.7044 123.031 35.6938 123.121C35.6911 123.148 35.6845 123.174 35.6805 123.201C35.6646 123.331 35.6461 123.459 35.6183 123.587C35.6024 123.659 35.5799 123.729 35.5614 123.801C35.5388 123.884 35.5203 123.967 35.4938 124.051C35.4779 124.099 35.4568 124.145 35.4409 124.193C35.4289 124.226 35.4157 124.259 35.4038 124.292C35.376 124.365 35.3521 124.438 35.3217 124.509C35.3018 124.555 35.2767 124.6 35.2555 124.645C35.2052 124.751 35.1575 124.859 35.1006 124.963C35.0979 124.967 35.0953 124.972 35.0926 124.976C35.086 124.988 35.078 125 35.0714 125.012C34.9125 125.296 34.7285 125.575 34.514 125.848C34.5087 125.856 34.5007 125.862 34.4954 125.87C34.2716 126.151 34.02 126.426 33.7354 126.694C33.6758 126.75 33.6096 126.804 33.5473 126.859C33.4573 126.939 33.3699 127.02 33.2745 127.098C33.1925 127.165 33.1024 127.23 33.0177 127.296C32.7634 127.491 32.4973 127.682 32.2086 127.866C32.0153 127.988 31.8127 128.108 31.6035 128.225C26.2698 131.199 17.7965 131.113 12.68 128.033L10.3984 140.007C16.7398 143.824 27.2404 143.93 33.8519 140.244C34.2213 140.039 34.5629 139.823 34.8927 139.602C34.9642 139.555 35.0357 139.508 35.1045 139.46C35.417 139.243 35.7136 139.019 35.9891 138.79C36.0328 138.754 36.0738 138.716 36.1162 138.679C36.3612 138.468 36.5902 138.252 36.8034 138.034C36.8458 137.99 36.8921 137.948 36.9332 137.904C37.1596 137.663 37.3649 137.417 37.5542 137.168C37.5939 137.115 37.6323 137.061 37.6707 137.006C37.8469 136.761 38.0084 136.515 38.1488 136.265C38.1567 136.249 38.1673 136.234 38.1766 136.219C38.3196 135.956 38.4361 135.692 38.5407 135.424C38.5632 135.366 38.5857 135.306 38.6069 135.247C38.7009 134.983 38.7804 134.717 38.8347 134.449C38.8426 134.414 38.8466 134.378 38.8519 134.344C38.8982 134.096 38.9274 133.85 38.9406 133.601C38.9433 133.549 38.9485 133.496 38.9499 133.444C38.9565 133.177 38.9433 132.909 38.9128 132.643C38.9062 132.588 38.8956 132.532 38.8876 132.478C38.8506 132.226 38.7989 131.976 38.7274 131.727C38.7195 131.698 38.7155 131.67 38.7062 131.642C38.7036 131.63 38.7009 131.62 38.6983 131.609C38.6029 131.298 38.4745 130.884 38.3792 130.574C38.3315 130.417 38.2679 130.211 38.2203 130.056C38.1249 129.745 37.9978 129.332 37.9025 129.02C37.8058 128.711 37.6787 128.296 37.5833 127.985C37.5357 127.83 37.4721 127.623 37.4244 127.467C37.3291 127.157 37.2007 126.743 37.1053 126.433C37.01 126.122 36.8829 125.707 36.7875 125.398C36.7399 125.243 36.6763 125.035 36.6286 124.88C36.532 124.569 36.4048 124.155 36.3095 123.844C36.2526 123.66 36.1864 123.446 36.1215 123.233C36.0765 123.084 36.0301 122.936 35.9917 122.809C35.944 122.654 35.8792 122.447 35.8315 122.292C35.7361 121.981 35.609 121.567 35.5137 121.257C35.5163 121.266 35.5177 121.275 35.5203 121.285C35.5269 121.306 35.5309 121.33 35.5375 121.352Z" fill="#E28A3D"/>
<path d="M27.7956 96.3496C27.7996 96.384 27.7982 96.4171 27.8009 96.4515C27.8048 96.5363 27.8062 96.6224 27.7996 96.7071C27.7956 96.7481 27.7903 96.7879 27.785 96.8289C27.7731 96.911 27.7545 96.9931 27.732 97.0739C27.7214 97.111 27.7122 97.148 27.7002 97.1864C27.6645 97.2911 27.6195 97.3943 27.5652 97.4976C27.5599 97.5082 27.5559 97.5201 27.5506 97.532C27.4884 97.6446 27.4129 97.7558 27.3295 97.8657C27.3043 97.8988 27.2739 97.9306 27.2474 97.9624C27.1825 98.0392 27.1136 98.116 27.0382 98.1902C27.0011 98.2259 26.9627 98.2617 26.923 98.2974C26.8422 98.3702 26.7561 98.4404 26.6647 98.5093C26.625 98.5397 26.5866 98.5715 26.5429 98.6006C26.4065 98.6973 26.2622 98.7913 26.1033 98.88C23.892 100.113 20.3803 100.077 18.2603 98.8006L15.6875 112.259C19.1899 114.367 24.987 114.426 28.6377 112.39C28.8999 112.245 29.1383 112.09 29.3647 111.931C29.4349 111.881 29.4984 111.829 29.5646 111.779C29.7156 111.665 29.8586 111.548 29.991 111.429C30.0241 111.4 30.0652 111.372 30.097 111.343C30.1274 111.314 30.1499 111.282 30.1804 111.253C30.3048 111.128 30.4201 111.003 30.526 110.876C30.5578 110.837 30.5988 110.801 30.6293 110.763C30.6412 110.748 30.6491 110.731 30.661 110.717C30.7988 110.535 30.9232 110.353 31.0265 110.164C31.0278 110.163 31.0292 110.161 31.0305 110.158C31.0398 110.142 31.0437 110.125 31.0517 110.109C31.1404 109.939 31.2145 109.767 31.2728 109.594C31.2808 109.574 31.2927 109.554 31.2993 109.534C31.3125 109.492 31.3152 109.451 31.3258 109.408C31.3642 109.275 31.3933 109.14 31.4132 109.005C31.4185 108.969 31.4317 108.933 31.4357 108.897C31.4396 108.867 31.4344 108.835 31.437 108.803C31.4476 108.663 31.4476 108.521 31.4397 108.381C31.437 108.34 31.4449 108.299 31.441 108.258C31.4397 108.243 31.433 108.229 31.4317 108.214C31.4105 108.021 31.3734 107.827 31.3152 107.635C31.3139 107.63 31.3139 107.626 31.3125 107.621C31.3112 107.621 31.3125 107.621 31.3112 107.619C31.204 107.271 31.0609 106.806 30.9524 106.457C30.8994 106.282 30.8279 106.05 30.7736 105.876C30.6663 105.527 30.522 105.061 30.4148 104.713C30.3075 104.363 30.1632 103.899 30.0559 103.549C30.0016 103.376 29.9301 103.142 29.8758 102.968C29.7686 102.619 29.6256 102.155 29.517 101.805C29.4097 101.457 29.2667 100.991 29.1581 100.642C29.1052 100.468 29.0323 100.235 28.9794 100.061C28.8721 99.7116 28.7278 99.2468 28.6205 98.8973C28.5119 98.549 28.3689 98.0842 28.2617 97.7346C28.2074 97.5599 28.1359 97.3281 28.0816 97.1533C27.9743 96.8038 27.8313 96.339 27.7228 95.9907C27.7241 95.9934 27.7241 95.996 27.7254 95.9987C27.7598 96.1152 27.7823 96.2331 27.7956 96.3496Z" fill="#E28A3D"/>
<path d="M24.6751 96.4558C24.6751 97.2264 23.5482 97.8501 22.1578 97.8501C20.7675 97.8501 19.6406 97.2264 19.6406 96.4558C19.6406 95.6864 20.7675 95.0614 22.1578 95.0614C23.5482 95.0614 24.6751 95.6864 24.6751 96.4558Z" fill="#E28A3D"/>
<path d="M128.686 82.0976L78.5903 53.1754C78.0368 52.855 77.5111 52.8166 77.1007 53.0139L74.3027 54.3579C74.7119 54.1606 75.2376 54.199 75.7911 54.5195L125.887 83.4417C127.058 84.117 127.927 85.8026 127.822 87.2009L124.815 127.208C124.76 127.945 124.445 128.455 123.988 128.675L126.787 127.331C127.244 127.112 127.558 126.601 127.613 125.864L130.62 85.8582C130.726 84.4586 129.856 82.7743 128.686 82.0976Z" fill="#E28A3D"/>
<path d="M125.886 83.4419L75.7906 54.5197C74.6201 53.843 73.5806 54.4257 73.4747 55.8253L70.4675 95.8307C70.3629 97.2303 71.2316 98.9146 72.4035 99.5913L122.499 128.513C123.669 129.19 124.709 128.607 124.815 127.208L127.822 87.2012C127.927 85.8028 127.058 84.1172 125.886 83.4419Z" fill="#F3A453"/>
<path d="M90.9566 86.2419C91.3144 86.063 91.5248 85.6522 91.5721 85.011L91.8612 81.1639L90.8507 80.5799L90.5588 84.4686C90.4901 85.1756 90.1752 85.3631 89.6113 85.0368C89.3422 84.8822 89.1361 84.6761 88.9973 84.4085C88.8527 84.1451 88.7983 83.8217 88.827 83.4352L89.1175 79.5795L88.1128 78.9999L87.8194 82.8957C87.7793 83.5326 87.9139 84.1251 88.2173 84.6775C88.5264 85.2343 88.9672 85.678 89.5383 86.0072C90.1165 86.3406 90.5917 86.4179 90.9566 86.2419Z" fill="white"/>
<path d="M93.5438 84.2186L95.2155 89.1978L96.226 89.7817L96.6653 83.9366L95.662 83.357L95.3715 87.2127L93.6941 82.2206L92.6894 81.6409L92.25 87.486L93.2547 88.0657L93.5438 84.2186Z" fill="white"/>
<path d="M98.6712 90.1829L98.1818 89.9009L98.4752 86.0037L98.9775 86.2943C99.3697 86.5204 99.6602 86.851 99.8434 87.2746C100.027 87.6983 100.097 88.2092 100.052 88.8018L100.028 89.1138C99.9794 89.6762 99.842 90.0612 99.6058 90.243C99.3768 90.4348 99.062 90.409 98.6712 90.1829ZM100.658 90.9529C100.882 90.6366 101.008 90.2029 101.05 89.6605L101.07 89.3971C101.111 88.8461 101.05 88.3137 100.897 87.7799C100.736 87.2403 100.499 86.7608 100.174 86.3243C99.8534 85.8992 99.477 85.5615 99.0505 85.3153L97.5449 84.4451L97.1055 90.2902L98.6183 91.1647C99.0448 91.4109 99.4398 91.5096 99.7933 91.4738C100.155 91.4424 100.442 91.2649 100.658 90.9529Z" fill="white"/>
<path d="M105.209 89.8922L105.283 88.9133L102.016 87.0269L101.576 92.872L104.851 94.7627L104.924 93.7923L102.652 92.4813L102.77 90.9199L104.703 92.0362L104.775 91.0902L102.841 89.9752L102.946 88.5855L105.209 89.8922Z" fill="white"/>
<path d="M108.101 93.1479C107.952 93.2252 107.753 93.188 107.498 93.0406L106.687 92.5726L106.818 90.8207L107.624 91.2859C107.899 91.4448 108.092 91.6337 108.211 91.8741C108.33 92.1046 108.383 92.3593 108.361 92.6384C108.341 92.9089 108.249 93.0706 108.101 93.1479ZM108.377 94.2514C108.685 94.2657 108.921 94.1784 109.078 93.9866C109.25 93.8106 109.343 93.5229 109.373 93.1193C109.416 92.5597 109.29 92.033 109.004 91.5421C108.71 91.0555 108.275 90.6404 107.697 90.3069L105.881 89.2593L105.441 95.1044L106.453 95.6883L106.614 93.5501L107.411 94.011L108.172 96.6802L109.253 97.3042L109.257 97.247L108.377 94.2514Z" fill="white"/>
<path d="M78.8291 85.1756C78.8707 84.7104 78.9594 84.3927 79.1068 84.2467C79.2542 84.0993 79.4632 84.1007 79.7237 84.251C79.9641 84.3898 80.1316 84.5544 80.2461 84.7576C80.352 84.9652 80.4049 85.2099 80.3963 85.5148L81.1807 85.967C81.1778 85.4332 81.0561 84.9523 80.81 84.5172C80.5624 84.0835 80.2146 83.7372 79.7809 83.4867C79.4646 83.3035 79.1755 83.2305 78.9222 83.2649C78.6674 83.3064 78.4699 83.4581 78.3139 83.72C78.1579 83.9733 78.0677 84.324 78.0348 84.7591L78.0133 85.0396C77.9618 85.7209 78.0592 86.3434 78.3111 86.9002C78.5572 87.4455 78.9279 87.8663 79.4174 88.1482C79.8639 88.4058 80.2317 88.4731 80.528 88.3515C80.8171 88.2269 80.9975 87.9278 81.069 87.4555L80.2847 87.0018C80.2432 87.2694 80.1587 87.4355 80.0328 87.4999C79.9054 87.5643 79.7151 87.5228 79.4746 87.3839C79.2056 87.2279 79.0224 87.0018 78.9079 86.7041C78.802 86.4036 78.7662 86.0057 78.8034 85.5205L78.8291 85.1756Z" fill="white"/>
<path d="M83.9562 88.455C83.9204 88.9316 83.8246 89.2537 83.6614 89.4168C83.5054 89.5843 83.2893 89.5886 83.0288 89.4368C82.7597 89.2823 82.5636 89.0318 82.4377 88.6926C82.3203 88.3591 82.2717 87.9541 82.306 87.4932L82.3232 87.2714C82.359 86.7948 82.4606 86.4842 82.6238 86.3211C82.7798 86.1536 82.9959 86.1508 83.2563 86.301C83.5254 86.4556 83.7158 86.6946 83.8417 87.0238C83.9677 87.3544 84.0077 87.7637 83.972 88.2403L83.9562 88.455ZM84.1409 86.2881C83.9061 85.9647 83.6313 85.7114 83.315 85.5282C82.9987 85.345 82.7096 85.2734 82.4477 85.3106C82.1872 85.3493 81.9811 85.5053 81.818 85.77C81.662 86.032 81.5632 86.3869 81.5303 86.8306L81.5131 87.061C81.4802 87.4975 81.5203 87.9226 81.6319 88.3391C81.7378 88.7527 81.911 89.1177 82.1457 89.4426C82.379 89.766 82.6538 90.0194 82.9701 90.2011C83.2878 90.3843 83.5755 90.4573 83.8374 90.4187C84.0993 90.3729 84.304 90.2255 84.4672 89.9678C84.6232 89.7059 84.7219 89.351 84.7548 88.9073L84.7706 88.7012C84.8035 88.2575 84.7649 87.8239 84.6518 87.4074C84.5473 86.9866 84.3741 86.6116 84.1409 86.2881Z" fill="white"/>
<path d="M87.5908 91.1867L86.2826 87.3095L85.4983 86.8558L85.1562 91.4028L85.9406 91.8551L86.1653 88.8624L87.4677 92.7367L88.252 93.1904L88.5941 88.6434L87.8169 88.1955L87.5908 91.1867Z" fill="white"/>
<path d="M90.1232 90.3841C90.2334 90.3526 90.388 90.3912 90.5812 90.5014C90.773 90.613 90.9276 90.7619 91.0292 90.9408C91.1294 91.1197 91.1723 91.3158 91.158 91.5204L91.9409 91.9741C91.9624 91.7022 91.918 91.4203 91.8178 91.1383C91.7162 90.8578 91.5645 90.5973 91.3598 90.3511C91.1551 90.1136 90.919 89.916 90.6442 89.7586C90.3751 89.6026 90.1304 89.521 89.9028 89.501C89.681 89.4852 89.5049 89.5382 89.3733 89.667C89.2416 89.7887 89.1629 89.9747 89.1443 90.2223C89.1099 90.6903 89.3017 91.1956 89.7139 91.7251C89.8642 91.9155 90.0703 92.1459 90.3308 92.3992C90.5984 92.664 90.7759 92.8701 90.8789 93.0332C90.9748 93.1835 91.012 93.351 90.9992 93.5227C90.9877 93.6873 90.929 93.7918 90.8188 93.8219C90.7029 93.849 90.5555 93.8061 90.3694 93.6988C89.8671 93.4097 89.6381 93.0204 89.6753 92.518L88.8838 92.0614C88.8623 92.3491 88.9124 92.6525 89.0183 92.9459C89.1257 93.2393 89.2988 93.5184 89.5293 93.7889C89.7611 94.0523 90.0245 94.2727 90.3136 94.4387C90.7329 94.682 91.0793 94.7607 91.3426 94.682C91.6074 94.6033 91.7605 94.3743 91.7906 93.9793C91.8178 93.6258 91.7362 93.2708 91.5473 92.913C91.367 92.5595 91.0507 92.1716 90.6227 91.7523C90.3823 91.5276 90.2105 91.3258 90.0932 91.1555C89.9701 90.9823 89.9186 90.822 89.9286 90.6746C89.9415 90.5186 90.0059 90.4184 90.1232 90.3841Z" fill="white"/>
<path d="M92.2773 91.5606L93.4252 92.2246L93.1404 96.0145L93.9247 96.4668L94.2095 92.6769L95.3731 93.3482L95.4289 92.5925L92.3346 90.8049L92.2773 91.5606Z" fill="white"/>
<path d="M97.6058 95.87C97.487 95.9301 97.331 95.9 97.1392 95.7898L96.5051 95.4234L96.6082 94.0595L97.2351 94.4202C97.4469 94.5432 97.6014 94.6921 97.6959 94.8753C97.7818 95.0542 97.8247 95.2589 97.809 95.4721C97.7932 95.6782 97.726 95.8113 97.6058 95.87ZM98.5976 95.8514C98.6305 95.4163 98.5332 94.9984 98.3028 94.6177C98.0809 94.2398 97.7446 93.9264 97.2909 93.6645L95.8811 92.8501L95.5391 97.3957L96.3234 97.8494L96.4493 96.1806L97.0748 96.5412L97.6587 98.6194L98.5046 99.1074L98.5074 99.0588L97.8219 96.7244C98.058 96.7316 98.2426 96.6672 98.3686 96.5255C98.4931 96.3824 98.5747 96.1562 98.5976 95.8514Z" fill="white"/>
<path d="M101.154 99.0532C101.105 99.6 100.865 99.7517 100.424 99.4983C100.211 99.3753 100.052 99.205 99.9446 99.006C99.8386 98.7999 99.7929 98.5494 99.8143 98.2532L100.04 95.2533L99.2561 94.8011L99.0286 97.8252C98.9985 98.3233 99.1001 98.7842 99.3406 99.215C99.581 99.6458 99.9217 99.9878 100.368 100.245C100.815 100.504 101.184 100.57 101.467 100.426C101.751 100.29 101.911 99.9706 101.948 99.4769L102.173 96.4842L101.382 96.0276L101.154 99.0532Z" fill="white"/>
<path d="M103.336 99.326C103.372 98.858 103.468 98.5446 103.615 98.3972C103.763 98.2512 103.963 98.2469 104.225 98.3986C104.466 98.5374 104.64 98.7063 104.746 98.9053C104.853 99.1128 104.906 99.3575 104.905 99.6652L105.689 100.119C105.686 99.5851 105.558 99.0985 105.31 98.6648C105.062 98.2297 104.723 97.8877 104.282 97.6329C103.966 97.4511 103.684 97.3824 103.431 97.4154C103.176 97.4583 102.971 97.6057 102.821 97.8705C102.667 98.1238 102.569 98.4716 102.536 98.9067L102.515 99.1858C102.463 99.8685 102.568 100.494 102.812 101.048C103.066 101.597 103.436 102.017 103.925 102.299C104.371 102.558 104.74 102.624 105.029 102.499C105.326 102.379 105.506 102.08 105.57 101.602L104.786 101.149C104.752 101.421 104.667 101.587 104.54 101.65C104.407 101.71 104.222 101.673 103.982 101.534C103.714 101.38 103.522 101.149 103.415 100.856C103.309 100.554 103.275 100.156 103.311 99.671L103.336 99.326Z" fill="white"/>
<path d="M105.945 99.4526L107.095 100.117L106.81 103.907L107.594 104.359L107.879 100.569L109.041 101.24L109.098 100.485L106.003 98.6969L105.945 99.4526Z" fill="white"/>
<path d="M109.254 105.316L110.038 105.768L110.38 101.222L109.596 100.769L109.254 105.316Z" fill="white"/>
<path d="M113.261 105.374C113.218 105.847 113.122 106.169 112.966 106.337C112.803 106.5 112.594 106.507 112.325 106.353C112.057 106.198 111.867 105.95 111.742 105.613C111.616 105.275 111.575 104.873 111.61 104.413L111.626 104.191C111.662 103.713 111.758 103.4 111.921 103.237C112.084 103.074 112.292 103.065 112.561 103.221C112.823 103.371 113.019 103.613 113.145 103.944C113.264 104.27 113.312 104.684 113.276 105.16L113.261 105.374ZM113.444 103.208C113.211 102.883 112.936 102.63 112.618 102.448C112.302 102.265 112.014 102.192 111.752 102.231C111.49 102.268 111.278 102.421 111.122 102.69C110.959 102.948 110.861 103.303 110.828 103.746L110.81 103.977C110.785 104.416 110.823 104.843 110.929 105.255C111.041 105.671 111.215 106.038 111.449 106.361C111.683 106.685 111.958 106.938 112.267 107.117C112.591 107.304 112.88 107.376 113.142 107.339C113.402 107.293 113.608 107.144 113.764 106.884C113.926 106.626 114.018 106.267 114.052 105.823L114.068 105.617C114.101 105.173 114.062 104.74 113.956 104.326C113.845 103.902 113.671 103.527 113.444 103.208Z" fill="white"/>
<path d="M116.886 108.103L115.584 104.228L114.8 103.776L114.459 108.322L115.243 108.775L115.468 105.783L116.77 109.657L117.555 110.109L117.895 105.564L117.111 105.11L116.886 108.103Z" fill="white"/>
<path d="M121.78 123.393C121.75 123.789 121.46 123.946 121.134 123.758L74.336 96.7402C74.0116 96.5521 73.7679 96.086 73.7984 95.6901L76.5076 59.6387C76.5367 59.2507 76.828 59.0865 77.1525 59.2732L123.951 86.2926C124.277 86.4806 124.519 86.9533 124.49 87.3413L121.78 123.393ZM124.014 85.4478L77.216 58.4297C76.5036 58.0179 75.8667 58.3715 75.8018 59.2308L73.0913 95.2823C73.0264 96.1417 73.56 97.1719 74.2724 97.5837L121.072 124.603C121.784 125.015 122.421 124.66 122.486 123.801L125.197 87.7492C125.262 86.8898 124.728 85.8596 124.014 85.4478Z" fill="white"/>
<path d="M91.3301 60.7233L93.0517 23.7093L94.0112 24.3159L92.2576 61.2446L91.3301 60.7233Z" fill="#5E8CFF"/>
<path d="M85.162 61.0093L84.1914 60.7855L92.8633 23.3066L93.0699 23.202C98.728 20.318 99.01 20.318 99.1451 20.318C99.3848 20.318 100.046 20.9734 101.056 22.9464L99.5794 22.1798C99.2907 21.613 99.2299 21.5998 99.0378 21.3588C98.4565 21.6143 95.9857 22.8365 93.7293 23.9846L85.162 61.0093Z" fill="white"/>
<path d="M85.2659 60.8148C85.5268 61.5166 85.3705 62.2224 84.9164 62.3919C84.4622 62.5601 83.8822 62.1284 83.6213 61.4266C83.3591 60.7248 83.5154 60.019 83.9696 59.8508C84.4238 59.6813 85.0038 60.113 85.2659 60.8148Z" fill="white"/>
<path d="M125.291 80.381L127.114 43.3704L127.972 43.9628L126.168 80.9058L125.291 80.381Z" fill="#5E8CFF"/>
<path d="M119.198 80.6929L118.227 80.4678L126.898 42.9889L127.105 42.8843C132.763 40.0003 133.045 40.0003 133.182 40.0003C133.421 40.0003 134.082 40.6557 135.091 42.6287L133.616 41.862C133.326 41.2953 133.266 41.2834 133.074 41.041C132.493 41.2966 130.021 42.5201 127.764 43.6669L119.198 80.6929Z" fill="white"/>
<path d="M119.3 80.4969C119.562 81.1987 119.406 81.9045 118.952 82.074C118.498 82.2435 117.918 81.8118 117.656 81.11C117.395 80.4082 117.551 79.7011 118.005 79.533C118.459 79.3635 119.039 79.7951 119.3 80.4969Z" fill="white"/>
<path d="M127.828 172.748L127.839 169.369L119.94 170.881L118.208 173.406L118.199 176.785L119.931 174.261L127.828 172.748Z" fill="#5E8CFF"/>
<path d="M123.948 177.846C120.586 178.49 117.04 177.927 114.687 176.568C114.563 176.497 114.441 176.423 114.323 176.346L71.4309 184.558C71.1303 186.583 68.8051 188.405 65.2643 189.082C61.9049 189.725 58.3509 189.165 55.9979 187.807C55.0246 187.245 54.2566 186.546 53.7945 185.74C53.4753 185.185 53.3244 184.621 53.3257 184.067L53.3164 187.446C53.3138 188.001 53.4648 188.565 53.7852 189.12C54.2473 189.926 55.0153 190.624 55.9886 191.187C58.3416 192.546 61.8956 193.104 65.255 192.462C68.7958 191.784 71.121 189.962 71.4216 187.938L114.312 179.725C114.432 179.802 114.553 179.876 114.678 179.949C117.029 181.306 120.577 181.869 123.939 181.225C127.48 180.547 129.809 178.724 130.106 176.702L130.115 173.322C129.818 175.345 127.489 177.168 123.948 177.846Z" fill="#5E8CFF"/>
<path d="M66.3683 184.965L68.1758 188.111L68.1851 184.732L66.3776 181.585L60.7711 180.913L56.9761 183.384L56.9668 186.763L60.7618 184.292L66.3683 184.965Z" fill="#5E8CFF"/>
<path d="M64.3955 187.205L58.789 186.532L56.9762 183.383L60.7713 180.913L66.3777 181.585L68.1852 184.731L64.3955 187.205ZM122.219 174.832L118.209 173.406L119.941 170.881L127.84 169.369C127.722 169.292 127.6 169.218 127.476 169.146C125.123 167.788 121.567 167.225 118.205 167.868C114.668 168.548 112.343 170.37 112.043 172.394L69.1558 180.604C69.038 180.529 68.9161 180.453 68.7917 180.382C66.4386 179.023 62.8833 178.46 59.5213 179.104C54.7728 180.013 52.208 182.986 53.793 185.739C54.2551 186.546 55.0231 187.245 55.9964 187.806C58.3494 189.165 61.9034 189.725 65.2628 189.081C68.8036 188.405 71.1288 186.583 71.4294 184.558L114.321 176.346C114.439 176.422 114.561 176.497 114.686 176.568C117.039 177.927 120.585 178.489 123.947 177.846C127.488 177.168 129.817 175.344 130.113 173.321L122.219 174.832Z" fill="#D0E2FE"/>
<path d="M110.345 174.908C110.243 174.73 110.074 174.575 109.858 174.451C109.337 174.15 108.551 174.027 107.808 174.169L74.3612 180.572C73.3072 180.776 72.7392 181.434 73.0901 182.042C73.192 182.221 73.3615 182.375 73.5773 182.499C74.0977 182.8 74.8843 182.924 75.6271 182.781L109.078 176.375C110.133 176.176 110.7 175.519 110.345 174.908Z" fill="#93B9FF"/>
<path d="M43.7392 166.42C41.4987 167.723 37.856 167.723 35.6009 166.42C33.3459 165.119 33.334 163.008 35.5744 161.706C37.8149 160.405 41.4577 160.405 43.7127 161.706C45.9677 163.008 45.9797 165.119 43.7392 166.42ZM54.0504 162.825C54.0491 162.739 53.9882 162.662 53.8902 162.606C53.7961 162.551 53.669 162.517 53.5273 162.513L50.593 162.453C50.454 162.449 50.3268 162.416 50.2328 162.362C50.1693 162.325 50.1203 162.278 50.0938 162.227C49.8859 161.834 49.6145 161.451 49.2702 161.083C49.1603 160.964 49.1854 160.818 49.3456 160.719L51.3359 159.474C51.5332 159.351 51.5279 159.16 51.3226 159.041L48.289 157.29C48.0837 157.171 47.7527 157.17 47.5422 157.284L45.3997 158.441C45.2288 158.534 44.9773 158.548 44.7707 158.486C44.1351 158.287 43.473 158.131 42.7951 158.012C42.7037 157.997 42.6242 157.968 42.5607 157.933C42.4667 157.878 42.4084 157.805 42.4018 157.725L42.2879 156.024C42.2813 155.942 42.2217 155.868 42.1277 155.814C42.0297 155.757 41.8946 155.723 41.7463 155.723H37.4733C37.1833 155.723 36.9463 155.856 36.9357 156.024L36.8403 157.725C36.8311 157.858 36.6748 157.974 36.451 158.012C35.7731 158.131 35.1136 158.287 34.4794 158.486C34.2741 158.548 34.0225 158.534 33.8504 158.441L31.696 157.284C31.4828 157.17 31.1518 157.171 30.9478 157.29L27.9341 159.041C27.7301 159.16 27.7275 159.351 27.9261 159.474L29.9309 160.719C30.0911 160.818 30.1176 160.964 30.0103 161.083C29.67 161.451 29.4026 161.834 29.2 162.227C29.1351 162.355 28.9364 162.447 28.7047 162.453L25.7677 162.514C25.4791 162.519 25.2487 162.659 25.25 162.825L25.2632 165.302C25.2646 165.388 25.3255 165.466 25.4235 165.521C25.5175 165.576 25.6446 165.61 25.7863 165.614L28.7233 165.675C28.861 165.678 28.9868 165.712 29.0808 165.766C29.1443 165.802 29.1933 165.848 29.2198 165.901C29.4277 166.293 29.6992 166.676 30.0434 167.044C30.1534 167.163 30.1282 167.309 29.9693 167.408L27.9778 168.653C27.7805 168.776 27.7858 168.967 27.991 169.086L28.4068 170.814C28.612 170.933 31.5609 170.958 31.7715 170.843L33.9139 169.686C34.0848 169.594 34.3364 169.579 34.5429 169.642C35.1785 169.839 35.8406 169.997 36.5186 170.115C36.6099 170.131 36.6894 170.159 36.7529 170.196C36.8469 170.25 36.9065 170.323 36.9132 170.403L37.0257 172.104C37.0323 172.184 37.0919 172.259 37.1859 172.313C37.2839 172.37 37.419 172.404 37.5673 172.404H41.8403C42.1303 172.404 42.3674 172.271 42.378 172.104L42.4733 170.402C42.4826 170.268 42.6388 170.153 42.8626 170.115C43.5406 169.996 44.2 169.839 44.8343 169.642C45.0395 169.579 45.2911 169.594 45.4632 169.686L45.107 170.866C45.3202 170.98 48.1619 170.956 48.3658 170.838L51.3795 169.086C51.5835 168.967 51.5861 168.776 51.3875 168.653L49.3827 167.408C49.2225 167.309 49.196 167.163 49.3033 167.044C49.6436 166.676 49.9111 166.293 50.1137 165.901C50.1785 165.772 50.3772 165.68 50.6089 165.675L53.5459 165.614C53.8345 165.607 54.0649 165.468 54.0636 165.302L54.0504 162.825Z" fill="#779EFF"/>
<path d="M24.964 159.487L26.9688 160.731C27.0655 160.79 27.1131 160.867 27.1131 160.943L27.1237 157.095C27.1251 157.017 27.0761 156.942 26.9807 156.882L24.9746 155.637C24.8766 155.577 24.829 155.5 24.829 155.423L24.8184 159.271C24.8171 159.349 24.8661 159.426 24.964 159.487Z" fill="#93B9FF"/>
<path d="M46.3858 160.731L48.376 159.487C48.4727 159.427 48.5204 159.35 48.5204 159.273L48.531 155.425C48.531 155.501 48.4833 155.578 48.388 155.637L46.3964 156.882C46.3024 156.94 46.2547 157.016 46.2547 157.091L46.2441 160.94C46.2441 160.864 46.2918 160.789 46.3858 160.731Z" fill="#93B9FF"/>
<path d="M32.6138 161.718C34.8543 160.416 38.497 160.416 40.7521 161.718C41.8882 162.373 42.4549 163.234 42.4523 164.092L42.4629 160.242C42.4655 159.384 41.8988 158.525 40.764 157.87C38.509 156.568 34.8649 156.568 32.6244 157.87C31.5121 158.516 30.9547 159.363 30.952 160.211L30.9414 164.059C30.9441 163.211 31.5002 162.365 32.6138 161.718Z" fill="#93B9FF"/>
<path d="M47.1521 165.913C47.217 165.783 47.4156 165.692 47.646 165.686H47.6751L47.0872 166.028C47.1084 165.99 47.1322 165.951 47.1521 165.913ZM26.2582 165.913C26.2675 165.933 26.2808 165.952 26.2913 165.972L25.808 165.693C25.9272 165.702 26.0358 165.73 26.1192 165.778C26.1828 165.815 26.2304 165.861 26.2582 165.913ZM50.5936 161.777L47.6566 161.838C47.4262 161.844 47.2276 161.935 47.1627 162.065C46.9601 162.457 46.6913 162.839 46.3523 163.207C46.3086 163.255 46.2874 163.307 46.2874 163.358L46.2781 166.498L45.4135 167C45.2096 167.119 44.8785 167.122 44.6666 167.006L42.5109 165.849C42.3401 165.756 42.0885 165.742 41.882 165.805C41.249 166.003 40.5883 166.159 39.9116 166.278C39.6878 166.317 39.5303 166.432 39.5223 166.566L39.427 168.267C39.4164 168.434 39.178 168.568 38.8894 168.568H34.615C34.4667 168.568 34.3316 168.533 34.2336 168.476C34.1409 168.422 34.08 168.348 34.0747 168.267L33.9609 166.567C33.9542 166.486 33.8947 166.412 33.8006 166.358C33.7371 166.322 33.6576 166.294 33.5676 166.278C32.8883 166.159 32.2275 166.003 31.5906 165.805C31.384 165.742 31.1325 165.756 30.9616 165.849L28.8205 167.006C28.6086 167.122 28.2776 167.119 28.0723 167L27.1494 166.468L27.1587 163.362C27.1587 163.309 27.1362 163.256 27.0925 163.207C26.7482 162.839 26.4754 162.457 26.2688 162.065C26.241 162.012 26.1934 161.965 26.1298 161.93C26.0358 161.875 25.9087 161.841 25.771 161.838L22.834 161.777C22.6923 161.773 22.5652 161.739 22.4712 161.685C22.3732 161.629 22.3123 161.551 22.3123 161.465L22.2977 158.989L22.2871 162.838L22.3017 165.314C22.3017 165.399 22.3626 165.477 22.4606 165.534C22.5546 165.588 22.6817 165.623 22.8234 165.625L24.8798 165.668L24.8705 168.878C24.8705 168.957 24.9235 169.038 25.0281 169.097L28.0617 170.849C28.267 170.968 28.598 170.97 28.8099 170.856L30.9511 169.699C31.1219 169.606 31.3735 169.59 31.58 169.653C32.2156 169.852 32.8777 170.008 33.557 170.126C33.647 170.142 33.7265 170.17 33.79 170.207C33.8841 170.261 33.9436 170.334 33.9503 170.415L34.0628 172.115C34.0694 172.197 34.129 172.271 34.223 172.326C34.321 172.381 34.4561 172.417 34.6044 172.417H38.8788C39.1674 172.417 39.4058 172.283 39.4151 172.115L39.5117 170.414C39.5197 170.28 39.6772 170.165 39.8997 170.126C40.5777 170.008 41.2371 169.852 41.8714 169.653C42.0779 169.59 42.3295 169.606 42.5003 169.699L44.6547 170.856C44.8679 170.97 45.199 170.967 45.4029 170.849L48.4167 169.097C48.5199 169.038 48.5716 168.96 48.5716 168.88L48.5809 165.666L50.583 165.625C50.8716 165.619 51.102 165.481 51.1007 165.313L51.1126 161.465C51.1126 161.632 50.8822 161.771 50.5936 161.777Z" fill="#93B9FF"/>
<path d="M40.7893 162.584C38.5489 163.885 34.9048 163.885 32.6498 162.584C30.3947 161.282 30.3828 159.171 32.6233 157.87C34.8637 156.568 38.5078 156.568 40.7629 157.87C43.0179 159.171 43.0298 161.282 40.7893 162.584ZM51.0992 158.988C51.0992 158.902 51.0383 158.826 50.9403 158.769C50.8463 158.714 50.7192 158.68 50.5775 158.676L47.6418 158.616C47.5028 158.612 47.3757 158.579 47.2817 158.525C47.2181 158.488 47.1691 158.442 47.1426 158.39C46.936 157.997 46.6633 157.614 46.319 157.246C46.2104 157.127 46.2356 156.981 46.3945 156.882L48.386 155.637C48.582 155.514 48.5767 155.323 48.3714 155.204L45.3391 153.453C45.1339 153.334 44.8028 153.332 44.591 153.447L42.4498 154.604C42.279 154.697 42.0274 154.711 41.8208 154.649C41.1839 154.451 40.5232 154.294 39.8439 154.175C39.7538 154.161 39.6744 154.131 39.6108 154.096C39.5168 154.041 39.4572 153.969 39.4519 153.888L39.3367 152.186C39.3314 152.105 39.2705 152.031 39.1778 151.977C39.0798 151.92 38.9448 151.886 38.7965 151.886H34.5221C34.2334 151.886 33.9951 152.019 33.9845 152.188L33.8892 153.888C33.8812 154.022 33.7236 154.137 33.4999 154.175C32.8232 154.294 32.1625 154.451 31.5295 154.649C31.3229 154.711 31.0714 154.697 30.9005 154.604L28.7448 153.447C28.5316 153.333 28.2019 153.334 27.998 153.453L24.9842 155.204C24.7803 155.323 24.7776 155.514 24.9749 155.637L26.981 156.882C27.1399 156.981 27.1677 157.127 27.0592 157.246C26.7202 157.614 26.4514 157.997 26.2488 158.39C26.1839 158.518 25.9853 158.61 25.7549 158.615L22.8179 158.676C22.5292 158.683 22.2988 158.822 22.2988 158.988L22.3134 161.465C22.3134 161.551 22.3743 161.629 22.4723 161.684C22.5663 161.739 22.6934 161.773 22.8351 161.777L25.7721 161.838C25.9098 161.841 26.0369 161.875 26.1309 161.929C26.1945 161.965 26.2422 162.011 26.27 162.064C26.4765 162.456 26.7493 162.839 27.0936 163.207C27.2022 163.326 27.177 163.472 27.0181 163.571L25.0266 164.816C24.8306 164.939 24.8359 165.13 25.0411 165.249L28.0735 167C28.2787 167.119 28.6097 167.121 28.8216 167.006L30.9628 165.849C31.1336 165.756 31.3852 165.742 31.5917 165.805C32.2287 166.002 32.8894 166.159 33.5687 166.278C33.6588 166.294 33.7382 166.322 33.8018 166.357C33.8958 166.412 33.9554 166.486 33.962 166.567L34.0759 168.267C34.0812 168.348 34.1421 168.422 34.2348 168.476C34.3328 168.533 34.4678 168.567 34.6161 168.567H38.8905C39.1792 168.567 39.4175 168.434 39.4281 168.267L39.5234 166.565C39.5314 166.432 39.689 166.316 39.9127 166.278C40.5894 166.159 41.2501 166.002 41.8831 165.805C42.0897 165.742 42.3412 165.756 42.5121 165.849L44.6678 167.006C44.8796 167.121 45.2107 167.119 45.4146 167L48.4284 165.249C48.6323 165.13 48.635 164.939 48.4377 164.816L46.4316 163.571C46.2713 163.472 46.2448 163.326 46.3534 163.207C46.6924 162.839 46.9612 162.456 47.1638 162.064C47.2287 161.935 47.4273 161.843 47.6577 161.838L50.5947 161.777C50.8834 161.77 51.1138 161.631 51.1138 161.465L51.0992 158.988Z" fill="#D0E2FE"/>
<path d="M79.1792 166.185C76.4289 167.784 71.9546 167.784 69.1858 166.185C66.417 164.587 66.4024 161.996 69.154 160.398C71.9043 158.798 76.3773 158.798 79.1461 160.396C81.9162 161.996 81.9308 164.587 79.1792 166.185ZM91.8381 161.771C91.8381 161.666 91.7627 161.569 91.6435 161.501C91.5283 161.434 91.3707 161.392 91.1973 161.388L87.5929 161.314C87.4234 161.31 87.2672 161.268 87.152 161.201C87.0738 161.156 87.0142 161.099 86.9811 161.036C86.7269 160.553 86.3919 160.082 85.9695 159.631C85.8357 159.485 85.8662 159.305 86.0622 159.185L88.5066 157.657C88.7476 157.506 88.7423 157.27 88.4894 157.124L84.7658 154.974C84.5129 154.828 84.1077 154.826 83.8482 154.966L81.2184 156.387C81.0092 156.501 80.6994 156.519 80.4451 156.442C79.6652 156.199 78.8521 156.007 78.0193 155.861C77.908 155.842 77.81 155.808 77.7319 155.763C77.6167 155.697 77.5452 155.607 77.5373 155.509L77.3969 153.419C77.389 153.319 77.3148 153.229 77.2009 153.162C77.0804 153.092 76.9149 153.05 76.7322 153.05H71.4845C71.1297 153.05 70.8384 153.214 70.8251 153.419L70.7073 155.509C70.6967 155.673 70.5047 155.815 70.2306 155.861C69.399 156.007 68.5873 156.199 67.81 156.442C67.5571 156.519 67.2472 156.501 67.0367 156.387L64.3911 154.966C64.1302 154.826 63.7237 154.828 63.4734 154.974L59.7737 157.124C59.5234 157.27 59.5195 157.506 59.7631 157.657L62.2247 159.185C62.4207 159.305 62.4551 159.485 62.3214 159.632C61.9043 160.084 61.5746 160.553 61.327 161.036C61.2462 161.195 61.0025 161.306 60.7192 161.313L57.1135 161.388C56.7586 161.396 56.4752 161.565 56.4766 161.771L56.4938 164.811C56.4951 164.917 56.5693 165.012 56.6898 165.081C56.805 165.149 56.9612 165.191 57.1347 165.195L60.7417 165.269C60.9112 165.273 61.0661 165.314 61.1813 165.382C61.2594 165.427 61.319 165.482 61.3521 165.547C61.6064 166.029 61.94 166.499 62.3624 166.951C62.4975 167.098 62.4657 167.277 62.2711 167.398L59.8254 168.926C59.5844 169.077 59.591 169.312 59.8426 169.457L60.3537 171.58C60.6053 171.726 64.2255 171.756 64.4851 171.616L67.1148 170.195C67.3241 170.081 67.6326 170.063 67.8868 170.141C68.6681 170.383 69.4811 170.575 70.314 170.721C70.4252 170.741 70.5219 170.775 70.6013 170.82C70.7165 170.886 70.7894 170.976 70.7973 171.076L70.9363 173.162C70.943 173.263 71.0171 173.353 71.1323 173.421C71.2528 173.49 71.4184 173.533 71.5998 173.533H76.8487C77.2036 173.533 77.4949 173.368 77.5081 173.162L77.6247 171.074C77.6353 170.909 77.8286 170.768 78.1027 170.721C78.9343 170.575 79.7446 170.383 80.5232 170.141C80.7761 170.063 81.0847 170.081 81.2952 170.195L80.8596 171.642C81.1204 171.783 84.6082 171.754 84.8585 171.608L88.5595 169.457C88.8098 169.312 88.8138 169.077 88.5701 168.926L86.1085 167.398C85.9112 167.277 85.8781 167.098 86.0105 166.951C86.4276 166.499 86.7574 166.029 87.0063 165.547C87.0858 165.388 87.3294 165.276 87.6128 165.269L91.2198 165.194C91.5746 165.186 91.8567 165.016 91.8554 164.811L91.8381 161.771Z" fill="#779EFF"/>
<mask id="mask1_9941_13369" style="mask-type:luminance" maskUnits="userSpaceOnUse" x="55" y="152" width="4" height="8">
<path d="M56.126 157.671L58.5877 159.199C58.7068 159.272 58.7651 159.366 58.7651 159.461L58.7783 154.736C58.7783 154.64 58.7201 154.547 58.6022 154.473L56.1393 152.947C56.0201 152.871 55.9592 152.777 55.9605 152.682L55.9473 157.408C55.946 157.502 56.0069 157.597 56.126 157.671Z" fill="white"/>
</mask>
<g mask="url(#mask1_9941_13369)">
<path d="M56.126 157.671L58.5877 159.199C58.7068 159.272 58.7651 159.366 58.7651 159.461L58.7783 154.736C58.7783 154.64 58.7201 154.547 58.6022 154.473L56.1393 152.947C56.0201 152.871 55.9592 152.777 55.9605 152.682L55.9473 157.408C55.946 157.502 56.0069 157.597 56.126 157.671Z" fill="#93B9FF"/>
</g>
<mask id="mask2_9941_13369" style="mask-type:luminance" maskUnits="userSpaceOnUse" x="82" y="152" width="4" height="8">
<path d="M82.4254 159.199L84.8711 157.671C84.9877 157.598 85.0473 157.504 85.0473 157.411L85.0605 152.685C85.0605 152.778 85.0022 152.872 84.8844 152.945L82.44 154.473C82.3235 154.546 82.2652 154.637 82.2652 154.731L82.252 159.457C82.252 159.363 82.3102 159.272 82.4254 159.199Z" fill="white"/>
</mask>
<g mask="url(#mask2_9941_13369)">
<path d="M82.4254 159.199L84.8711 157.671C84.9877 157.598 85.0473 157.504 85.0473 157.411L85.0605 152.685C85.0605 152.778 85.0022 152.872 84.8844 152.945L82.44 154.473C82.3235 154.546 82.2652 154.637 82.2652 154.731L82.252 159.457C82.252 159.363 82.3102 159.272 82.4254 159.199Z" fill="#93B9FF"/>
</g>
<mask id="mask3_9941_13369" style="mask-type:luminance" maskUnits="userSpaceOnUse" x="63" y="154" width="15" height="10">
<path d="M65.5186 160.413C68.2702 158.814 72.7432 158.814 75.512 160.413C76.905 161.218 77.6015 162.273 77.5989 163.327L77.6121 158.601C77.6147 157.547 76.9196 156.492 75.5252 155.687C72.7564 154.089 68.2834 154.089 65.5318 155.687C64.1653 156.481 63.4807 157.521 63.4781 158.562L63.4648 163.287C63.4675 162.247 64.1521 161.207 65.5186 160.413Z" fill="white"/>
</mask>
<g mask="url(#mask3_9941_13369)">
<path d="M65.5186 160.413C68.2702 158.814 72.7432 158.814 75.512 160.413C76.905 161.218 77.6015 162.273 77.5989 163.327L77.6121 158.601C77.6147 157.547 76.9196 156.492 75.5252 155.687C72.7564 154.089 68.2834 154.089 65.5318 155.687C64.1653 156.481 63.4807 157.521 63.4781 158.562L63.4648 163.287C63.4675 162.247 64.1521 161.207 65.5186 160.413Z" fill="#93B9FF"/>
</g>
<mask id="mask4_9941_13369" style="mask-type:luminance" maskUnits="userSpaceOnUse" x="52" y="157" width="37" height="17">
<path d="M83.3715 165.562C83.451 165.403 83.6946 165.292 83.978 165.285L84.0137 165.284L83.2921 165.704C83.3172 165.657 83.3464 165.61 83.3715 165.562ZM57.716 165.562C57.7292 165.587 57.7452 165.611 57.7584 165.635L57.1652 165.293C57.3108 165.304 57.4446 165.338 57.5465 165.396C57.6247 165.441 57.6842 165.498 57.716 165.562ZM87.5969 160.484L83.9912 160.559C83.7079 160.566 83.4642 160.678 83.3848 160.837C83.1358 161.319 82.8061 161.789 82.389 162.241C82.336 162.299 82.3096 162.363 82.3096 162.426L82.2989 166.281L81.237 166.898C80.9867 167.044 80.5802 167.046 80.3193 166.906L77.6737 165.485C77.4631 165.371 77.1546 165.353 76.9004 165.429C76.1231 165.673 75.3127 165.865 74.4812 166.011C74.2071 166.057 74.0137 166.199 74.0031 166.363L73.8853 168.453C73.8734 168.658 73.5807 168.822 73.2258 168.822H67.9782C67.7968 168.822 67.6313 168.78 67.5108 168.709C67.3956 168.643 67.3214 168.553 67.3148 168.453L67.1758 166.364C67.1665 166.266 67.0937 166.176 66.9785 166.109C66.9003 166.064 66.8024 166.029 66.6925 166.011C65.8582 165.865 65.0452 165.673 64.2653 165.429C64.0111 165.353 63.7025 165.371 63.4933 165.485L60.8635 166.906C60.604 167.046 60.1975 167.044 59.9459 166.898L58.8124 166.244L58.823 162.43C58.823 162.365 58.7952 162.3 58.7409 162.241C58.3185 161.789 57.9835 161.319 57.7306 160.837C57.6975 160.772 57.6379 160.717 57.5598 160.67C57.4446 160.604 57.2883 160.563 57.1201 160.559L53.5132 160.484C53.3397 160.481 53.1834 160.437 53.0682 160.371C52.9477 160.302 52.8723 160.206 52.8723 160.101L52.855 157.061L52.8418 161.787L52.859 164.827C52.859 164.932 52.9345 165.028 53.055 165.097C53.1689 165.163 53.3265 165.206 53.4999 165.21L56.0251 165.263L56.0145 169.202C56.0131 169.3 56.078 169.398 56.2078 169.473L59.9326 171.624C60.1842 171.77 60.5894 171.772 60.8503 171.632L63.4801 170.211C63.6893 170.097 63.9978 170.079 64.2521 170.155C65.032 170.399 65.845 170.591 66.6779 170.737C66.7891 170.755 66.8871 170.79 66.9652 170.835C67.0804 170.902 67.1533 170.992 67.1625 171.09L67.3003 173.178C67.3082 173.279 67.3824 173.369 67.4976 173.435C67.6181 173.505 67.7836 173.548 67.965 173.548H73.2126C73.5675 173.548 73.8601 173.384 73.872 173.178L73.9899 171.089C74.0005 170.925 74.1938 170.783 74.4679 170.737C75.2995 170.591 76.1099 170.399 76.8871 170.155C77.1414 170.079 77.4499 170.097 77.6604 170.211L80.3061 171.632C80.567 171.772 80.9735 171.77 81.2237 171.624L84.9234 169.473C85.0506 169.399 85.1141 169.303 85.1141 169.206L85.126 165.261L87.5837 165.21C87.9385 165.202 88.2219 165.032 88.2206 164.827L88.2338 160.101C88.2351 160.306 87.9518 160.476 87.5969 160.484Z" fill="white"/>
</mask>
<g mask="url(#mask4_9941_13369)">
<path d="M83.3715 165.562C83.451 165.403 83.6946 165.292 83.978 165.285L84.0137 165.284L83.2921 165.704C83.3172 165.657 83.3464 165.61 83.3715 165.562ZM57.716 165.562C57.7292 165.587 57.7452 165.611 57.7584 165.635L57.1652 165.293C57.3108 165.304 57.4446 165.338 57.5465 165.396C57.6247 165.441 57.6842 165.498 57.716 165.562ZM87.5969 160.484L83.9912 160.559C83.7079 160.566 83.4642 160.678 83.3848 160.837C83.1358 161.319 82.8061 161.789 82.389 162.241C82.336 162.299 82.3096 162.363 82.3096 162.426L82.2989 166.281L81.237 166.898C80.9867 167.044 80.5802 167.046 80.3193 166.906L77.6737 165.485C77.4631 165.371 77.1546 165.353 76.9004 165.429C76.1231 165.673 75.3127 165.865 74.4812 166.011C74.2071 166.057 74.0137 166.199 74.0031 166.363L73.8853 168.453C73.8734 168.658 73.5807 168.822 73.2258 168.822H67.9782C67.7968 168.822 67.6313 168.78 67.5108 168.709C67.3956 168.643 67.3214 168.553 67.3148 168.453L67.1758 166.364C67.1665 166.266 67.0937 166.176 66.9785 166.109C66.9003 166.064 66.8024 166.029 66.6925 166.011C65.8582 165.865 65.0452 165.673 64.2653 165.429C64.0111 165.353 63.7025 165.371 63.4933 165.485L60.8635 166.906C60.604 167.046 60.1975 167.044 59.9459 166.898L58.8124 166.244L58.823 162.43C58.823 162.365 58.7952 162.3 58.7409 162.241C58.3185 161.789 57.9835 161.319 57.7306 160.837C57.6975 160.772 57.6379 160.717 57.5598 160.67C57.4446 160.604 57.2883 160.563 57.1201 160.559L53.5132 160.484C53.3397 160.481 53.1834 160.437 53.0682 160.371C52.9477 160.302 52.8723 160.206 52.8723 160.101L52.855 157.061L52.8418 161.787L52.859 164.827C52.859 164.932 52.9345 165.028 53.055 165.097C53.1689 165.163 53.3265 165.206 53.4999 165.21L56.0251 165.263L56.0145 169.202C56.0131 169.3 56.078 169.398 56.2078 169.473L59.9326 171.624C60.1842 171.77 60.5894 171.772 60.8503 171.632L63.4801 170.211C63.6893 170.097 63.9978 170.079 64.2521 170.155C65.032 170.399 65.845 170.591 66.6779 170.737C66.7891 170.755 66.8871 170.79 66.9652 170.835C67.0804 170.902 67.1533 170.992 67.1625 171.09L67.3003 173.178C67.3082 173.279 67.3824 173.369 67.4976 173.435C67.6181 173.505 67.7836 173.548 67.965 173.548H73.2126C73.5675 173.548 73.8601 173.384 73.872 173.178L73.9899 171.089C74.0005 170.925 74.1938 170.783 74.4679 170.737C75.2995 170.591 76.1099 170.399 76.8871 170.155C77.1414 170.079 77.4499 170.097 77.6604 170.211L80.3061 171.632C80.567 171.772 80.9735 171.77 81.2237 171.624L84.9234 169.473C85.0506 169.399 85.1141 169.303 85.1141 169.206L85.126 165.261L87.5837 165.21C87.9385 165.202 88.2219 165.032 88.2206 164.827L88.2338 160.101C88.2351 160.306 87.9518 160.476 87.5969 160.484Z" fill="#93B9FF"/>
</g>
<mask id="mask5_9941_13369" style="mask-type:luminance" maskUnits="userSpaceOnUse" x="52" y="148" width="37" height="21">
<path d="M75.5562 161.475C72.8046 163.074 68.3316 163.074 65.5628 161.475C62.794 159.876 62.7794 157.286 65.5297 155.686C68.2813 154.088 72.7542 154.088 75.5231 155.686C78.2919 157.286 78.3064 159.876 75.5562 161.475ZM88.2151 157.061C88.2151 156.956 88.1396 156.859 88.0191 156.791C87.9039 156.724 87.7477 156.682 87.5742 156.678L83.9698 156.604C83.799 156.6 83.6441 156.557 83.5289 156.491C83.4494 156.446 83.3899 156.389 83.3581 156.324C83.1039 155.842 82.7688 155.372 82.3464 154.921C82.2114 154.774 82.2432 154.595 82.4391 154.473L84.8835 152.945C85.1245 152.796 85.1192 152.56 84.8663 152.414L81.1415 150.264C80.8899 150.118 80.4847 150.115 80.2238 150.256L77.594 151.677C77.3848 151.79 77.0763 151.809 76.8221 151.732C76.0421 151.489 75.2291 151.297 74.3962 151.151C74.285 151.132 74.187 151.098 74.1089 151.053C73.9937 150.985 73.9208 150.897 73.9142 150.799L73.7739 148.709C73.7659 148.609 73.6918 148.519 73.5766 148.452C73.4561 148.382 73.2905 148.34 73.1091 148.34H67.8615C67.5066 148.34 67.214 148.504 67.2021 148.709L67.0842 150.799C67.0736 150.963 66.8803 151.105 66.6062 151.151C65.7746 151.297 64.9642 151.489 64.187 151.732C63.9327 151.809 63.6242 151.79 63.4137 151.677L60.768 150.256C60.5072 150.115 60.1006 150.118 59.8504 150.264L56.1493 152.414C55.8991 152.56 55.8964 152.796 56.1387 152.946L58.6017 154.473C58.7976 154.595 58.8308 154.774 58.6983 154.921C58.2812 155.372 57.9515 155.842 57.7026 156.326C57.6231 156.485 57.3795 156.596 57.0961 156.602L53.4904 156.678C53.1356 156.686 52.8522 156.855 52.8535 157.061L52.8707 160.101C52.8707 160.205 52.9462 160.302 53.0667 160.371C53.1819 160.437 53.3382 160.481 53.5116 160.484L57.1186 160.559C57.2868 160.563 57.4431 160.604 57.5583 160.67C57.6364 160.717 57.696 160.772 57.7291 160.837C57.982 161.319 58.317 161.789 58.7394 162.241C58.8745 162.388 58.8427 162.566 58.648 162.688L56.2023 164.216C55.9613 164.367 55.9679 164.602 56.2195 164.747L59.9444 166.898C60.196 167.043 60.6025 167.046 60.862 166.906L63.4918 165.485C63.701 165.371 64.0095 165.352 64.2638 165.429C65.0437 165.673 65.8567 165.865 66.6909 166.011C66.8008 166.029 66.8988 166.064 66.977 166.109C67.0922 166.176 67.165 166.266 67.1743 166.364L67.3133 168.452C67.3199 168.553 67.3941 168.643 67.5093 168.709C67.6298 168.779 67.7953 168.822 67.9767 168.822H73.2243C73.5792 168.822 73.8719 168.658 73.8838 168.452L74.0016 166.363C74.0122 166.199 74.2055 166.057 74.4796 166.011C75.3112 165.865 76.1216 165.673 76.8989 165.429C77.1531 165.352 77.4616 165.371 77.6722 165.485L80.3178 166.906C80.5787 167.046 80.9852 167.043 81.2355 166.898L84.9365 164.747C85.1867 164.602 85.1894 164.366 84.9471 164.216L82.4842 162.688C82.2882 162.566 82.2551 162.388 82.3875 162.241C82.8046 161.789 83.1343 161.319 83.3832 160.837C83.4627 160.678 83.7063 160.566 83.9897 160.559L87.5954 160.484C87.9503 160.476 88.2336 160.306 88.2323 160.101L88.2151 157.061Z" fill="white"/>
</mask>
<g mask="url(#mask5_9941_13369)">
<path d="M75.5562 161.475C72.8046 163.074 68.3316 163.074 65.5628 161.475C62.794 159.876 62.7794 157.286 65.5297 155.686C68.2813 154.088 72.7542 154.088 75.5231 155.686C78.2919 157.286 78.3064 159.876 75.5562 161.475ZM88.2151 157.061C88.2151 156.956 88.1396 156.859 88.0191 156.791C87.9039 156.724 87.7477 156.682 87.5742 156.678L83.9698 156.604C83.799 156.6 83.6441 156.557 83.5289 156.491C83.4494 156.446 83.3899 156.389 83.3581 156.324C83.1039 155.842 82.7688 155.372 82.3464 154.921C82.2114 154.774 82.2432 154.595 82.4391 154.473L84.8835 152.945C85.1245 152.796 85.1192 152.56 84.8663 152.414L81.1415 150.264C80.8899 150.118 80.4847 150.115 80.2238 150.256L77.594 151.677C77.3848 151.79 77.0763 151.809 76.8221 151.732C76.0421 151.489 75.2291 151.297 74.3962 151.151C74.285 151.132 74.187 151.098 74.1089 151.053C73.9937 150.985 73.9208 150.897 73.9142 150.799L73.7739 148.709C73.7659 148.609 73.6918 148.519 73.5766 148.452C73.4561 148.382 73.2905 148.34 73.1091 148.34H67.8615C67.5066 148.34 67.214 148.504 67.2021 148.709L67.0842 150.799C67.0736 150.963 66.8803 151.105 66.6062 151.151C65.7746 151.297 64.9642 151.489 64.187 151.732C63.9327 151.809 63.6242 151.79 63.4137 151.677L60.768 150.256C60.5072 150.115 60.1006 150.118 59.8504 150.264L56.1493 152.414C55.8991 152.56 55.8964 152.796 56.1387 152.946L58.6017 154.473C58.7976 154.595 58.8308 154.774 58.6983 154.921C58.2812 155.372 57.9515 155.842 57.7026 156.326C57.6231 156.485 57.3795 156.596 57.0961 156.602L53.4904 156.678C53.1356 156.686 52.8522 156.855 52.8535 157.061L52.8707 160.101C52.8707 160.205 52.9462 160.302 53.0667 160.371C53.1819 160.437 53.3382 160.481 53.5116 160.484L57.1186 160.559C57.2868 160.563 57.4431 160.604 57.5583 160.67C57.6364 160.717 57.696 160.772 57.7291 160.837C57.982 161.319 58.317 161.789 58.7394 162.241C58.8745 162.388 58.8427 162.566 58.648 162.688L56.2023 164.216C55.9613 164.367 55.9679 164.602 56.2195 164.747L59.9444 166.898C60.196 167.043 60.6025 167.046 60.862 166.906L63.4918 165.485C63.701 165.371 64.0095 165.352 64.2638 165.429C65.0437 165.673 65.8567 165.865 66.6909 166.011C66.8008 166.029 66.8988 166.064 66.977 166.109C67.0922 166.176 67.165 166.266 67.1743 166.364L67.3133 168.452C67.3199 168.553 67.3941 168.643 67.5093 168.709C67.6298 168.779 67.7953 168.822 67.9767 168.822H73.2243C73.5792 168.822 73.8719 168.658 73.8838 168.452L74.0016 166.363C74.0122 166.199 74.2055 166.057 74.4796 166.011C75.3112 165.865 76.1216 165.673 76.8989 165.429C77.1531 165.352 77.4616 165.371 77.6722 165.485L80.3178 166.906C80.5787 167.046 80.9852 167.043 81.2355 166.898L84.9365 164.747C85.1867 164.602 85.1894 164.366 84.9471 164.216L82.4842 162.688C82.2882 162.566 82.2551 162.388 82.3875 162.241C82.8046 161.789 83.1343 161.319 83.3832 160.837C83.4627 160.678 83.7063 160.566 83.9897 160.559L87.5954 160.484C87.9503 160.476 88.2336 160.306 88.2323 160.101L88.2151 157.061Z" fill="#D0E2FE"/>
</g>
</svg>
