<svg width="182" height="270" viewBox="0 0 182 270" fill="none" xmlns="http://www.w3.org/2000/svg">
<path d="M27.403 248.353L1.45843 233.374C-0.00437313 232.53 -0.00437313 231.16 1.45843 230.316L146.627 146.604C148.09 145.759 150.461 145.759 151.924 146.604L177.87 161.583C179.332 162.427 179.332 163.796 177.87 164.641L32.7001 248.353C31.2373 249.197 28.8658 249.197 27.403 248.353Z" fill="#DADBD8"/>
<path d="M166.724 194.974L163.495 193.11C156.171 188.881 144.608 188.674 137.718 192.651L125.672 199.606C125.247 199.851 125.101 200.396 125.347 200.821C125.593 201.247 126.137 201.393 126.562 201.147L138.608 194.191C145.005 190.499 155.77 190.705 162.605 194.651L165.834 196.515C168.977 198.33 170.708 200.689 170.708 203.159C170.708 205.628 168.977 207.987 165.834 209.802L121.65 235.312C114.815 239.258 103.693 239.257 96.8573 235.312L83.9931 227.883C76.6672 223.654 64.7472 223.654 57.4214 227.883L54.1932 229.748C50.3203 231.983 48.1875 234.958 48.1875 238.124C48.1875 241.041 50.0379 243.716 53.3978 245.656L64.9198 252.309L60.1852 255.101C58.0222 256.377 58.0311 258.448 60.2059 259.703L68.8604 264.699C69.2132 264.903 69.2126 265.236 68.8586 265.438L68.1368 265.85C67.7821 266.052 67.7815 266.384 68.135 266.588L69.2601 267.238C69.613 267.442 70.1907 267.442 70.5447 267.239L74.4716 264.982C74.8245 264.778 75.4028 264.779 75.7562 264.983L82.9042 269.11C83.2577 269.314 83.8354 269.314 84.1883 269.11L85.3134 268.46C85.6668 268.256 85.6668 267.923 85.3134 267.719L78.1654 263.593C77.8119 263.389 77.8119 263.055 78.1654 262.851L80.9061 261.268C81.2596 261.064 81.8372 261.064 82.1901 261.268L89.3387 265.395C89.6916 265.599 90.2692 265.599 90.6227 265.395L91.7478 264.746C92.1007 264.542 92.1007 264.208 91.7478 264.004L84.5993 259.877C84.2464 259.673 84.2464 259.34 84.5993 259.136L88.1335 257.095C88.4864 256.891 88.4864 256.558 88.1335 256.354L87.0084 255.705C86.6555 255.501 86.0773 255.501 85.7244 255.705L84.5993 256.354C84.2464 256.558 83.6687 256.558 83.3152 256.354L72.324 250.008C71.3502 249.446 69.7619 249.453 68.7939 250.025L66.6054 251.315C66.5342 251.218 66.4441 251.134 66.3332 251.071L54.2875 244.116C51.5011 242.507 49.9668 240.378 49.9668 238.124C49.9668 235.657 51.8309 233.165 55.0828 231.288L58.311 229.424C65.1452 225.478 76.2675 225.478 83.1035 229.424L95.9677 236.852C103.294 241.081 115.214 241.081 122.539 236.852L166.724 211.342C170.44 209.197 172.487 206.29 172.487 203.159C172.487 200.027 170.441 197.12 166.724 194.974Z" fill="#DADBD8"/>
<path d="M126.562 198.381C126.563 198.38 126.899 198.186 127.508 197.834C129.337 196.778 133.618 194.307 138.608 191.426C141.609 189.689 145.693 188.791 149.877 188.794C154.426 188.791 159.089 189.85 162.605 191.885L165.834 193.749C167.517 194.721 168.744 195.825 169.54 196.958C170.335 198.094 170.706 199.249 170.707 200.392C170.706 201.536 170.335 202.691 169.54 203.826C168.744 204.96 167.517 206.064 165.834 207.036L121.65 232.545C118.286 234.492 113.771 235.5 109.254 235.497C104.737 235.5 100.222 234.492 96.8579 232.545L83.9925 225.117C80.2649 222.97 75.4846 221.93 70.7072 221.927C65.9299 221.93 61.1496 222.97 57.422 225.117L54.1932 226.981C52.2585 228.099 50.7686 229.399 49.7485 230.822C48.7302 232.242 48.1863 233.797 48.1875 235.357C48.1857 236.79 48.6483 238.208 49.5326 239.487C50.4163 240.768 51.7134 241.917 53.3978 242.89L65.4435 249.845C65.8694 250.091 66.4133 249.945 66.6588 249.519C66.9049 249.094 66.759 248.55 66.3332 248.304L54.2875 241.35C52.7852 240.482 51.6992 239.495 50.997 238.476C50.2948 237.455 49.968 236.411 49.9668 235.357C49.968 234.212 50.357 233.031 51.1951 231.858C52.0325 230.688 53.3231 229.538 55.0828 228.522L58.3116 226.658C61.675 224.711 66.1897 223.703 70.7072 223.706C75.2248 223.703 79.7395 224.711 83.1029 226.658L95.9683 234.086C99.6959 236.233 104.476 237.273 109.254 237.276C114.032 237.273 118.812 236.233 122.539 234.086L166.724 208.576C168.585 207.501 170.018 206.24 170.996 204.849C171.973 203.46 172.489 201.932 172.487 200.392C172.489 198.853 171.973 197.324 170.996 195.936C170.018 194.545 168.585 193.284 166.724 192.208L163.495 190.344C159.623 188.113 154.698 187.018 149.877 187.015C145.444 187.018 141.091 187.942 137.718 189.885C131.066 193.726 125.672 196.84 125.672 196.84C125.247 197.085 125.101 197.629 125.347 198.055C125.592 198.48 126.137 198.626 126.562 198.381Z" fill="#70A1FD"/>
<path d="M58.4082 251.893V252.917C58.4082 254.554 59.5582 256.546 60.9763 257.365L70.4551 262.837L80.0905 257.273L80.0929 248.929L70.7368 244.608C69.2499 243.921 66.8948 244.028 65.4767 244.847L60.9763 247.445C59.5576 248.264 58.4082 250.255 58.4082 251.893Z" fill="#1255FB"/>
<path d="M70.7364 244.608C69.2496 243.921 66.8944 244.028 65.4763 244.847L60.9759 247.445C59.5572 248.264 59.613 249.485 61.0999 250.172L70.4535 254.492L80.0925 248.929L70.7364 244.608Z" fill="#1255FB"/>
<path d="M69.2459 262.141L68.2578 261.571V254.708C68.2578 254.354 68.3646 253.968 68.5431 253.611L69.5792 254.089C69.3716 254.472 69.2459 254.895 69.2459 255.279V262.141Z" fill="#21363E"/>
<path d="M69.5811 254.089L68.5449 253.61C68.7804 253.139 69.1404 252.716 69.5437 252.483L77.6519 247.802L78.7497 248.309L70.5318 253.054C70.1546 253.272 69.8159 253.655 69.5811 254.089Z" fill="#2C4954"/>
<path d="M80.9112 247.492C80.6799 247.36 80.362 247.379 80.0097 247.582L70.5321 253.054C69.8228 253.464 69.248 254.459 69.248 255.278V263.44C69.248 263.85 69.3922 264.136 69.6258 264.268C69.8423 264.391 70.6163 264.838 70.831 264.964C71.0617 265.1 71.382 265.082 71.7373 264.878L81.2149 259.406C81.9242 258.996 82.4989 258 82.4989 257.182V249.019C82.4989 248.612 82.3566 248.323 82.1259 248.189C81.9088 248.064 81.1283 247.618 80.9112 247.492Z" fill="#1255FB"/>
<path d="M71.7372 253.75L81.2148 248.278C81.9241 247.869 82.4989 248.201 82.4989 249.019V257.182C82.4989 258.001 81.9241 258.996 81.2148 259.406L71.7372 264.878C71.0284 265.287 70.4531 264.955 70.4531 264.137V255.974C70.4531 255.156 71.0284 254.16 71.7372 253.75Z" fill="#1255FB"/>
<path d="M80.1144 261.405C80.7799 261.789 81.319 262.723 81.319 263.491C81.319 263.615 81.3006 263.722 81.2745 263.82C81.1755 263.794 81.0735 263.756 80.9667 263.694C80.3013 263.31 79.7621 262.376 79.7621 261.608C79.7621 261.484 79.7793 261.372 79.806 261.273C79.9045 261.3 80.0071 261.343 80.1144 261.405ZM81.5551 259.916L73.7161 255.39L72.8639 255.883L72.8633 261.447L80.7022 265.973C81.1992 266.26 81.6506 266.283 81.9773 266.093C82.1215 266.009 82.6861 265.682 82.8308 265.6C83.1535 265.414 83.3521 265.015 83.3521 264.442V263.03C83.3527 261.884 82.5479 260.489 81.5551 259.916Z" fill="#4C84FC"/>
<path d="M81.9336 266.12L81.9342 266.119C81.9629 266.105 81.9904 266.089 82.0173 266.071C82.0179 266.071 82.0185 266.07 82.0197 266.069C81.9916 266.088 81.9635 266.105 81.9336 266.12Z" fill="#FAFAF9"/>
<path d="M81.7642 260.051C81.6954 260.002 81.6254 259.957 81.5548 259.916L80.9434 259.563L80.944 259.563L81.5548 259.916C81.6254 259.956 81.6954 260.002 81.7642 260.051Z" fill="#FAFAF9"/>
<path d="M80.9426 259.563L78.1272 257.938L80.9432 259.563L80.9426 259.563ZM73.2988 255.631L73.7134 255.39L73.714 255.391L73.2988 255.631Z" fill="#DDE3E2"/>
<path d="M81.971 261.748C81.646 261.185 81.197 260.695 80.7018 260.408L79.1781 259.529L72.8652 255.882L73.2988 255.631L73.714 255.391L78.1272 257.938L80.9426 259.563L81.554 259.916C81.6246 259.957 81.6946 260.002 81.7634 260.051C82.1744 260.345 82.5439 260.775 82.8227 261.256L81.971 261.748Z" fill="#D0E2FE"/>
<path d="M83.351 263.029V264.441C83.351 265.016 83.1553 265.413 82.8291 265.597C82.6868 265.68 82.1233 266.006 81.975 266.095L81.9395 266.113C82.2834 265.935 82.497 265.526 82.497 264.933V263.521C82.497 262.946 82.2953 262.317 81.9691 261.748L82.8232 261.256C83.1494 261.819 83.351 262.454 83.351 263.029Z" fill="#4C84FC"/>
<path d="M82.0164 266.071C82.3153 265.873 82.4986 265.481 82.4986 264.934L82.4991 263.522C82.4991 262.948 82.2969 262.312 81.9707 261.748L82.823 261.256C83.1492 261.82 83.3508 262.454 83.3508 263.029V264.441C83.3508 265.016 83.1551 265.414 82.8289 265.597C82.6978 265.674 82.2073 265.958 82.0164 266.071Z" fill="#A0C3FE"/>
<path d="M81.2734 263.82C81.2437 263.812 81.2135 263.803 81.1827 263.792C81.2135 263.802 81.2438 263.81 81.274 263.818C81.274 263.819 81.2734 263.819 81.2734 263.82ZM81.0095 263.718C80.9946 263.711 80.9804 263.702 80.9656 263.694C80.3867 263.359 79.9034 262.61 79.7871 261.915L79.7895 261.914C79.9057 262.61 80.3891 263.358 80.9668 263.693C80.981 263.702 80.9952 263.711 81.0095 263.718Z" fill="#DBDCD9"/>
<path d="M79.7859 261.915C79.7687 261.811 79.7598 261.708 79.7598 261.608C79.7598 261.484 79.777 261.372 79.8037 261.273C79.7799 261.368 79.7615 261.482 79.7615 261.606C79.7615 261.706 79.771 261.809 79.7882 261.914L79.7859 261.915Z" fill="#D3D5D2"/>
<path d="M80.6507 264.352C80.5125 264.352 80.3595 264.313 80.197 264.232C80.1691 264.218 80.1406 264.203 80.1122 264.186C79.4485 263.801 78.9088 262.87 78.9082 262.099C78.9082 261.555 79.1798 261.24 79.5748 261.24C79.6472 261.24 79.7243 261.251 79.8044 261.273C79.7777 261.372 79.7605 261.485 79.7605 261.608C79.7605 261.708 79.7694 261.811 79.7866 261.915C79.9028 262.61 80.3862 263.36 80.965 263.695C80.9799 263.703 80.9941 263.711 81.0089 263.719C81.0677 263.751 81.1252 263.775 81.1821 263.793C81.213 263.804 81.2432 263.812 81.2729 263.82C81.2729 263.82 81.2735 263.819 81.2735 263.818C81.2741 263.818 81.2741 263.818 81.2746 263.818C81.2011 264.112 81.0196 264.295 80.7753 264.34C80.7355 264.348 80.6934 264.352 80.6507 264.352Z" fill="#A0C3FE"/>
<path d="M81.5037 266.218C81.2623 266.218 80.9895 266.139 80.7013 265.972C80.9877 266.138 81.2588 266.215 81.5002 266.215C81.6769 266.215 81.8376 266.173 81.9764 266.093C81.9835 266.089 81.9918 266.084 82.0007 266.078C81.9812 266.091 81.9604 266.103 81.9396 266.113L81.9752 266.095L81.9343 266.119C81.8074 266.184 81.6621 266.218 81.5037 266.218Z" fill="#F4F4F2"/>
<path d="M81.5011 266.215C81.2597 266.215 80.9887 266.138 80.7022 265.972L75.2724 262.837L72.8633 261.446L72.8639 255.883L79.1791 259.529L80.701 260.408C81.198 260.695 81.6464 261.186 81.9714 261.747L81.9702 261.748C82.2632 262.259 82.456 262.819 82.4922 263.344C82.4922 263.345 82.4922 263.345 82.4922 263.345C82.4922 263.349 82.4927 263.353 82.4927 263.357C82.4927 263.358 82.4927 263.358 82.4927 263.359C82.4933 263.362 82.4933 263.367 82.4933 263.37C82.4933 263.371 82.4939 263.372 82.4939 263.373C82.4939 263.377 82.4939 263.38 82.4945 263.384C82.4945 263.385 82.4945 263.386 82.4945 263.387C82.4945 263.39 82.4945 263.394 82.4951 263.397C82.4951 263.399 82.4951 263.4 82.4951 263.401C82.4951 263.405 82.4957 263.408 82.4957 263.411C82.4957 263.412 82.4957 263.413 82.4957 263.415C82.4957 263.418 82.4963 263.421 82.4963 263.425C82.4963 263.426 82.4963 263.427 82.4963 263.428C82.4963 263.432 82.4963 263.435 82.4969 263.438C82.4969 263.44 82.4969 263.441 82.4969 263.441C82.4969 263.445 82.4969 263.448 82.4969 263.453C82.4969 263.453 82.4969 263.454 82.4969 263.455C82.4975 263.459 82.4975 263.463 82.4975 263.466C82.4975 263.467 82.4975 263.467 82.4975 263.468C82.4975 263.472 82.4975 263.476 82.4975 263.48V263.481C82.4981 263.485 82.4981 263.49 82.4981 263.494V263.495C82.4981 263.499 82.4981 263.504 82.4981 263.508C82.4981 263.513 82.4981 263.517 82.4981 263.521V264.933C82.4981 265.49 82.3095 265.885 82.0017 266.078C81.9928 266.084 81.9845 266.088 81.9773 266.093C81.8386 266.173 81.6778 266.215 81.5011 266.215ZM80.1987 264.232C80.36 264.313 80.5124 264.352 80.6506 264.352C80.6939 264.352 80.7366 264.348 80.7769 264.34C81.1037 264.28 81.319 263.977 81.319 263.491C81.319 262.823 80.911 262.028 80.3665 261.581C80.2852 261.514 80.201 261.454 80.1144 261.405C80.0528 261.369 79.9929 261.339 79.9335 261.316C79.9335 261.316 79.933 261.316 79.933 261.315C79.9318 261.315 79.9312 261.314 79.93 261.314C79.8932 261.3 79.857 261.287 79.8215 261.276H79.8209C79.8197 261.276 79.8191 261.276 79.8179 261.276C79.8173 261.275 79.8167 261.275 79.8161 261.275C79.8155 261.275 79.8149 261.275 79.8143 261.275C79.8132 261.274 79.812 261.274 79.8114 261.274C79.8108 261.274 79.8102 261.274 79.8102 261.274C79.809 261.273 79.8072 261.273 79.806 261.272C79.7248 261.25 79.6477 261.239 79.5741 261.239C79.1809 261.239 78.9099 261.555 78.9099 262.098V262.099C78.9099 262.099 78.9099 262.1 78.9099 262.1C78.9099 262.868 79.449 263.802 80.1144 264.187C80.1429 264.203 80.1708 264.218 80.1987 264.232Z" fill="#A0C3FE"/>
<path d="M81.9336 266.119L81.9748 266.095C81.9862 266.088 82.0006 266.08 82.0167 266.07C81.9898 266.088 81.9623 266.104 81.9336 266.119Z" fill="#FEFEFE"/>
<path d="M82.4925 263.373C82.4925 263.373 82.4919 263.372 82.4919 263.371C82.4919 263.372 82.4925 263.372 82.4925 263.373ZM81.97 261.748C81.645 261.186 81.1966 260.695 80.6996 260.408L79.1777 259.529L80.7014 260.409C81.1966 260.695 81.6456 261.186 81.9706 261.748H81.97Z" fill="#EFFAF7"/>
<path d="M81.9395 266.113C82.2834 265.935 82.497 265.526 82.497 264.933V263.521C82.497 262.946 82.2953 262.317 81.9691 261.748L81.9709 261.748C82.2971 262.312 82.4993 262.948 82.4993 263.522L82.4987 264.934C82.4987 265.481 82.3155 265.873 82.0166 266.071C82.0005 266.08 81.9863 266.088 81.975 266.095L81.9395 266.113Z" fill="#A0C3FE"/>
<path d="M80.6492 264.352C80.511 264.352 80.3586 264.314 80.1973 264.232C80.3598 264.313 80.5128 264.351 80.651 264.351C80.6937 264.351 80.7358 264.348 80.7755 264.34C80.7352 264.348 80.6925 264.352 80.6492 264.352Z" fill="#D0E2FE"/>
<path d="M78.9082 262.099V262.098C78.9082 261.555 79.1792 261.24 79.5725 261.24C79.646 261.24 79.7231 261.25 79.8044 261.273C79.7243 261.251 79.6472 261.24 79.5748 261.24C79.1798 261.24 78.9082 261.555 78.9082 262.099Z" fill="#D0E2FE"/>
<path d="M86.4894 257.724C87.1549 258.108 87.694 259.043 87.694 259.811C87.694 259.934 87.6756 260.041 87.6495 260.14C87.5505 260.112 87.4491 260.075 87.3417 260.014C86.6763 259.629 86.1371 258.695 86.1371 257.927C86.1371 257.804 86.1549 257.691 86.181 257.592C86.2801 257.618 86.3827 257.662 86.4894 257.724ZM87.9301 256.235L80.0911 251.71L79.2389 252.202L79.2383 257.766L87.0772 262.292C87.5742 262.579 88.0256 262.603 88.3523 262.412C88.4971 262.328 89.0617 262.002 89.2058 261.918C89.529 261.733 89.7271 261.334 89.7271 260.761L89.7277 259.349C89.7277 258.203 88.9229 256.809 87.9301 256.235Z" fill="#4C84FC"/>
<path d="M88.3086 262.438L88.311 262.437C88.3385 262.423 88.3648 262.407 88.3905 262.391C88.3917 262.39 88.3929 262.39 88.3941 262.389C88.3666 262.407 88.3379 262.424 88.3086 262.438Z" fill="#FAFAF9"/>
<path d="M87.9919 256.272L87.9895 256.271C87.9693 256.259 87.9498 256.247 87.9296 256.236L86.3828 255.342L87.9296 256.235C87.9504 256.248 87.9711 256.26 87.9919 256.272Z" fill="white"/>
<path d="M88.0249 256.292C88.013 256.285 88.0016 256.278 87.9902 256.271L87.9926 256.272C88.0034 256.279 88.0141 256.286 88.0249 256.292Z" fill="#FAFAF9"/>
<path d="M79.7285 251.919L80.0891 251.71L80.0897 251.71L79.7285 251.919Z" fill="#DDE3E2"/>
<path d="M88.346 258.066C88.021 257.505 87.5726 257.014 87.0768 256.728L85.5531 255.848L79.2402 252.202L79.7278 251.919L80.0889 251.71L86.3823 255.342L87.929 256.235C87.9492 256.247 87.9688 256.259 87.989 256.271C88.0002 256.278 88.0115 256.285 88.0233 256.292C88.48 256.586 88.8928 257.049 89.1977 257.576L88.346 258.066Z" fill="#D0E2FE"/>
<path d="M89.728 259.349V260.76C89.728 261.335 89.5322 261.733 89.206 261.917C89.0637 262 88.5003 262.326 88.352 262.415L88.3164 262.433C88.6604 262.255 88.8739 261.845 88.8739 261.252V259.841C88.8739 259.265 88.6723 258.637 88.3461 258.067L89.2001 257.575C89.5263 258.139 89.728 258.773 89.728 259.349Z" fill="#4C84FC"/>
<path d="M88.3915 262.391C88.6922 262.193 88.8755 261.801 88.8755 261.254L88.8761 259.841C88.8761 259.267 88.6745 258.631 88.3477 258.066L89.1999 257.575C89.5261 258.138 89.7278 258.773 89.7278 259.348V260.76C89.7278 261.335 89.5321 261.733 89.2059 261.917C89.0742 261.994 88.5819 262.278 88.3915 262.391Z" fill="#A0C3FE"/>
<path d="M87.6484 260.14C87.6211 260.132 87.5927 260.124 87.5648 260.114C87.5932 260.123 87.6211 260.131 87.649 260.137C87.649 260.138 87.649 260.139 87.6484 260.14ZM87.3797 260.035C87.3667 260.028 87.3536 260.021 87.3406 260.013C86.7617 259.679 86.2778 258.928 86.1621 258.233L86.1639 258.232C86.2795 258.928 86.7635 259.677 87.3418 260.013C87.3548 260.02 87.3673 260.028 87.3797 260.035Z" fill="#DBDCD9"/>
<path d="M86.1628 258.233C86.1456 258.129 86.1367 258.027 86.1367 257.927C86.1367 257.803 86.1545 257.691 86.1806 257.592C86.1569 257.687 86.1385 257.8 86.1385 257.925C86.1385 258.025 86.1474 258.128 86.1646 258.232L86.1628 258.233Z" fill="#D3D5D2"/>
<path d="M87.0277 260.671C86.8895 260.671 86.7353 260.632 86.5728 260.551C86.5455 260.537 86.5176 260.522 86.4891 260.505C85.8255 260.12 85.2857 259.19 85.2852 258.419C85.2857 257.875 85.5568 257.56 85.9518 257.56C86.0247 257.56 86.1013 257.571 86.1813 257.593C86.1552 257.691 86.1374 257.804 86.1374 257.927C86.1374 258.027 86.1463 258.129 86.1635 258.233C86.2792 258.928 86.7631 259.679 87.342 260.014C87.355 260.022 87.3681 260.029 87.3811 260.035C87.444 260.07 87.5057 260.096 87.5662 260.115C87.5941 260.124 87.6225 260.132 87.6498 260.14C87.6504 260.139 87.6504 260.138 87.6504 260.138C87.651 260.138 87.6516 260.138 87.6516 260.138C87.584 260.409 87.4227 260.586 87.2056 260.648C87.1498 260.663 87.0905 260.671 87.0277 260.671Z" fill="#A0C3FE"/>
<path d="M87.8809 262.537C87.6466 262.537 87.3832 262.463 87.1045 262.307C87.3809 262.462 87.643 262.535 87.8761 262.535C88.0534 262.535 88.2148 262.493 88.353 262.412C88.3601 262.408 88.3684 262.403 88.3773 262.398C88.3577 262.41 88.3369 262.422 88.3162 262.433L88.3518 262.415L88.3126 262.437C88.1851 262.503 88.0398 262.537 87.8809 262.537ZM86.49 257.724C86.3839 257.663 86.2801 257.619 86.1816 257.593C86.1816 257.592 86.1816 257.592 86.1816 257.592C86.2807 257.619 86.3833 257.663 86.49 257.724Z" fill="#F4F4F2"/>
<path d="M87.8755 262.535C87.6424 262.535 87.3803 262.461 87.1039 262.307C87.095 262.302 87.0861 262.297 87.0772 262.291L81.5905 259.124L79.2383 257.765L79.2389 252.202L85.5541 255.848L87.076 256.727C87.573 257.014 88.022 257.505 88.3464 258.067L88.3452 258.067C88.6436 258.588 88.8375 259.158 88.8689 259.691V259.692C88.8689 259.696 88.8695 259.7 88.8695 259.705V259.706C88.8701 259.71 88.8701 259.714 88.8701 259.718C88.8701 259.718 88.8701 259.718 88.8701 259.719C88.8707 259.723 88.8707 259.728 88.8707 259.731C88.8707 259.732 88.8707 259.733 88.8707 259.733C88.8713 259.737 88.8713 259.741 88.8713 259.745C88.8713 259.745 88.8713 259.746 88.8713 259.747C88.8719 259.751 88.8719 259.755 88.8719 259.758C88.8719 259.759 88.8719 259.76 88.8719 259.761C88.8719 259.764 88.8725 259.768 88.8725 259.772C88.8725 259.772 88.8725 259.773 88.8725 259.774C88.8725 259.778 88.8725 259.782 88.8725 259.786C88.8725 259.787 88.8725 259.787 88.8725 259.787C88.8731 259.791 88.8731 259.796 88.8731 259.8C88.8731 259.8 88.8731 259.8 88.8731 259.801C88.8731 259.805 88.8731 259.809 88.8731 259.813C88.8731 259.814 88.8731 259.814 88.8731 259.814C88.8731 259.823 88.8731 259.832 88.8731 259.841V261.252C88.8731 261.81 88.6845 262.205 88.3767 262.398C88.3678 262.403 88.3595 262.408 88.3523 262.412C88.2142 262.493 88.0528 262.535 87.8755 262.535ZM86.5725 260.551C86.7344 260.632 86.8874 260.671 87.0262 260.671C87.0891 260.671 87.149 260.663 87.2053 260.647C87.5019 260.565 87.694 260.269 87.694 259.81C87.694 259.141 87.2854 258.347 86.7409 257.9C86.6597 257.832 86.576 257.774 86.4894 257.724C86.3827 257.662 86.2801 257.618 86.181 257.592C86.1004 257.569 86.0227 257.559 85.9491 257.559C85.5559 257.559 85.2849 257.874 85.2849 258.417C85.2849 258.418 85.2849 258.418 85.2849 258.418C85.2849 258.418 85.2849 258.419 85.2849 258.42C85.2849 259.188 85.8246 260.122 86.4894 260.506C86.5173 260.522 86.5452 260.537 86.5725 260.551Z" fill="#A0C3FE"/>
<path d="M88.3125 262.438L88.352 262.415C88.3633 262.408 88.3765 262.401 88.392 262.391C88.3663 262.408 88.34 262.423 88.3125 262.438Z" fill="#FEFEFE"/>
<path d="M88.8733 259.801C88.8733 259.801 88.8733 259.8 88.8733 259.8C88.8733 259.801 88.8733 259.801 88.8733 259.801ZM88.8709 259.733C88.8709 259.733 88.8709 259.732 88.8709 259.731C88.8709 259.732 88.8709 259.732 88.8709 259.733ZM88.8697 259.706V259.705C88.8697 259.705 88.8697 259.705 88.8697 259.706ZM88.8691 259.692V259.691C88.8691 259.691 88.8691 259.691 88.8691 259.692Z" fill="#EFFAF7"/>
<path d="M88.347 258.067C88.0226 257.505 87.5736 257.014 87.0766 256.727L85.5547 255.848L87.0783 256.728C87.5742 257.014 88.0226 257.505 88.3476 258.066L88.347 258.067Z" fill="#EFFAF7"/>
<path d="M88.3164 262.433C88.6604 262.255 88.8739 261.845 88.8739 261.252V259.841C88.8739 259.265 88.6723 258.637 88.3461 258.067L88.3478 258.066C88.6746 258.631 88.8763 259.267 88.8763 259.841L88.8757 261.254C88.8757 261.802 88.6924 262.194 88.3917 262.391C88.3763 262.401 88.3633 262.408 88.352 262.415L88.3164 262.433Z" fill="#A0C3FE"/>
<path d="M87.026 260.671C86.8872 260.671 86.7342 260.632 86.5723 260.551C86.7348 260.632 86.889 260.671 87.0272 260.671C87.09 260.671 87.1493 260.663 87.2051 260.647C87.1488 260.663 87.0889 260.671 87.026 260.671Z" fill="#D0E2FE"/>
<path d="M85.2852 258.419C85.2852 258.418 85.2852 258.418 85.2852 258.418C85.2852 257.875 85.5562 257.559 85.9494 257.559C86.023 257.559 86.1007 257.57 86.1813 257.592C86.1813 257.592 86.1813 257.592 86.1813 257.593C86.1013 257.571 86.0247 257.56 85.9518 257.56C85.5568 257.56 85.2857 257.875 85.2852 258.419Z" fill="#D0E2FE"/>
<path d="M114.921 225.073L137.225 212.177C139.523 210.849 140.673 209.11 140.674 207.37C140.674 205.63 140.683 204.268 140.683 204.268L117.542 191.219C116.315 190.511 115.322 188.789 115.322 187.373V159.875L76.3651 182.385L76.3633 209.884C76.3633 211.3 77.3573 213.022 78.5832 213.73L98.2692 225.073C102.867 227.727 110.323 227.727 114.921 225.073Z" fill="#4C84FC"/>
<path d="M106.595 227.063C103.582 227.063 100.568 226.4 98.2693 225.072L85.7171 217.84V214.753L83.3477 213.381L85.7147 214.747L85.72 214.744L98.2657 221.971C100.566 223.299 103.58 223.963 106.595 223.963C106.721 223.963 106.848 223.962 106.975 223.959V227.042C109.86 226.99 112.718 226.349 114.923 225.068L124.039 219.801L114.921 225.072C112.622 226.4 109.608 227.063 106.595 227.063ZM108.749 223.849C111.009 223.608 113.17 222.983 114.919 221.973L130.109 213.195L114.923 221.978C113.172 222.986 111.009 223.614 108.749 223.849ZM140.678 205.107C140.678 204.825 140.678 204.604 140.678 204.459C140.681 204.397 140.683 204.335 140.683 204.273C140.683 204.271 140.683 204.269 140.683 204.267C140.683 204.267 140.681 204.584 140.678 205.107Z" fill="#4C84FC"/>
<path d="M80.4721 211.549C80.0356 211.104 79.6661 210.543 79.4141 209.952C79.5932 210.371 79.8316 210.775 80.1104 211.134C80.2242 211.281 80.3452 211.42 80.4721 211.549Z" fill="#4C84FC"/>
<path d="M85.7173 217.842L85.6641 217.812L85.6659 217.811L85.7173 217.84V217.842Z" fill="#9FA1A1"/>
<path d="M85.6638 217.812L78.577 213.728C77.3593 213.023 76.3594 211.305 76.3594 209.882V206.446L76.3629 206.444V209.884C76.3629 211.3 77.357 213.022 78.5829 213.73L85.6656 217.811L85.6638 217.812Z" fill="#8F9192"/>
<path d="M85.717 217.84L85.6659 217.811L78.5832 213.73C77.3573 213.021 76.3633 211.3 76.3633 209.884V206.443L79.05 204.892V208.336C79.05 208.855 79.184 209.415 79.4136 209.952C79.6656 210.543 80.0351 211.105 80.4716 211.549C80.7196 211.803 80.9888 212.019 81.2705 212.182L81.3969 212.255L83.3475 213.381L85.717 214.753V217.84Z" fill="#1255FB"/>
<path d="M79.0488 208.336C79.0488 209.753 80.0428 211.474 81.2688 212.182L98.2639 221.971C102.863 224.626 110.318 224.627 114.917 221.973L137.232 209.078C141.831 206.425 141.831 202.121 137.233 199.467L120.227 189.67C119.001 188.962 118.007 187.24 118.007 185.824L118.006 164.338L79.0488 186.849V208.336Z" fill="#4C84FC"/>
<path d="M106.593 223.963C103.579 223.963 100.564 223.299 98.2645 221.971L85.7188 214.744L124.75 192.284V192.28L120.228 189.67L137.234 199.466C139.532 200.794 140.682 202.533 140.682 204.273C140.682 204.335 140.68 204.397 140.677 204.459C140.677 204.336 140.677 204.27 140.677 204.27C140.677 206.013 139.524 207.756 137.229 209.077L130.108 213.195L114.917 221.973C113.169 222.982 111.008 223.608 108.747 223.849C108.161 223.91 107.568 223.944 106.974 223.952V223.959C106.847 223.962 106.72 223.963 106.593 223.963Z" fill="#70A1FD"/>
<path d="M81.3964 212.255L81.2701 212.182C80.8448 211.936 80.4468 211.569 80.1094 211.134C80.4474 211.569 80.8448 211.936 81.2706 212.182L81.3964 212.255Z" fill="#70A1FD"/>
<path d="M85.7124 214.748L83.3454 213.381L82.5293 212.908L85.7178 214.745L85.7124 214.748Z" fill="#07211E"/>
<path d="M83.3472 213.381L81.3965 212.255L82.5311 212.908L83.3472 213.381Z" fill="#061513"/>
<path d="M80.1103 211.134C79.8316 210.775 79.5932 210.371 79.414 209.952C79.398 209.914 79.382 209.876 79.3672 209.838C79.551 210.298 79.8067 210.743 80.1103 211.134Z" fill="#07211E"/>
<path d="M79.4124 209.952C79.1829 209.416 79.0488 208.855 79.0488 208.336V204.892H79.0494V208.336C79.0494 208.819 79.1645 209.337 79.3655 209.838C79.3804 209.876 79.3964 209.914 79.4124 209.952Z" fill="#061513"/>
<path d="M85.7182 214.745L82.5297 212.908L81.3951 212.255L81.2694 212.182C80.8435 211.936 80.4462 211.569 80.1081 211.134C79.8044 210.743 79.5488 210.298 79.3649 209.838C79.1639 209.337 79.0488 208.819 79.0488 208.336V204.892L118.007 182.4V185.824C118.007 187.24 119.001 188.962 120.227 189.67L124.749 192.281V192.284L85.7182 214.745Z" fill="#1255FB"/>
<path d="M140.678 204.27C140.678 204.27 140.678 205.628 140.678 207.372C140.678 209.115 139.524 210.845 137.229 212.179L114.922 225.068C112.718 226.349 109.859 226.99 106.975 227.042V223.952C109.859 223.913 112.718 223.247 114.922 221.978L137.229 209.077C139.524 207.756 140.678 206.013 140.678 204.27Z" fill="#4C84FC"/>
<path d="M106.975 227.042V223.952C109.859 223.913 112.718 223.247 114.922 221.978L137.229 209.077C139.524 207.756 140.678 206.013 140.678 204.27C140.678 204.27 140.678 205.628 140.678 207.372C140.678 209.115 139.524 210.845 137.229 212.179L114.922 225.068C112.718 226.349 109.859 226.99 106.975 227.042Z" fill="#1255FB"/>
<path d="M16.4996 235.043C17.9374 235.874 20.3457 235.829 21.8785 234.944C41.0312 223.887 153.388 159.018 172.538 147.963C174.071 147.078 175.313 144.926 175.313 145.529V8.34415C175.313 4.20258 174.147 2.09471 172.709 1.26437C171.272 0.434052 168.863 0.479141 167.331 1.36403L16.6734 88.3453C15.1409 89.2302 13.8981 91.3825 13.8981 93.1523L13.8965 230.336C13.8965 232.106 15.0621 234.214 16.4996 235.043Z" fill="#4C84FC"/>
<path d="M21.8788 234.941L172.538 147.96C174.07 147.075 175.313 144.923 175.313 145.525V8.34119C175.313 4.19904 174.07 3.48138 172.538 4.36629L21.8806 91.3482C20.3479 92.233 19.1054 94.3848 19.1054 96.1552L19.1035 233.338C19.1035 235.109 20.346 235.826 21.8788 234.941Z" fill="#4C84FC"/>
<path d="M19.1038 227.553L19.1054 96.1548C19.1054 95.9348 19.1246 95.7088 19.161 95.4805C19.2293 95.0677 19.3514 94.6454 19.5184 94.2326C19.8014 93.5417 20.213 92.878 20.703 92.3294C21.0617 91.9296 21.4599 91.5928 21.8802 91.3502L71.6619 62.6065L172.538 4.36595C172.909 4.15125 173.264 4.03085 173.589 4.03085C174.6 4.03085 175.313 5.20399 175.313 8.34087V14.6627L170.103 17.6708V13.709C170.103 12.9557 169.728 12.5204 169.181 12.5204C168.958 12.5204 168.705 12.5934 168.438 12.7476L25.9755 94.9983C25.0558 95.5297 24.3102 96.8209 24.3102 97.8825L24.3091 216.619C24.3091 217.372 24.6842 217.808 25.2307 217.808C25.4542 217.808 25.707 217.735 25.9744 217.581L34.6484 212.573L34.6486 218.578L19.1035 227.553M175.313 145.525C175.313 145.517 175.313 145.51 175.313 145.504V144.925H175.313V145.525Z" fill="#1255FB"/>
<path d="M21.4699 238.109C19.932 238.788 17.8041 238.762 16.4965 238.006C15.0606 237.173 13.8945 235.07 13.8945 233.289V224.564L19.0987 227.576V236.302C19.0987 237.917 20.1241 238.647 21.4699 238.109Z" fill="#4C84FC"/>
<path d="M19.016 238.597C18.0863 238.597 17.1795 238.401 16.4965 238.006C15.0606 237.173 13.8945 235.07 13.8945 233.288V224.564L19.0987 227.576V236.301C19.0987 237.562 19.7235 238.283 20.6377 238.283C20.8949 238.283 21.1747 238.227 21.4699 238.109C20.7355 238.433 19.866 238.597 19.016 238.597Z" fill="#1255FB"/>
<path d="M19.0977 227.576L19.1023 236.297C19.1023 238.067 20.345 238.784 21.8775 237.899L172.536 150.918C174.069 150.033 175.311 147.881 175.311 146.111V137.367L19.0977 227.576Z" fill="#4C84FC"/>
<path d="M19.1023 227.573V227.553L19.1026 227.573L19.0977 227.576" fill="#70A1FD"/>
<path d="M19.1025 227.573V227.553L34.6474 218.578V218.597L19.0977 227.576" fill="#1255FB"/>
<path d="M20.6381 238.278C19.7278 238.278 19.1023 237.552 19.1023 236.297V227.573L19.0977 227.576L34.6474 218.597L34.6476 221.559C34.6476 222.44 35.2221 223.487 35.9438 223.902C36.2879 224.102 36.7392 224.197 37.1988 224.197C37.3102 224.197 37.4222 224.192 37.5331 224.181C38.1927 224.116 38.5277 223.908 38.603 223.861C38.6083 223.858 38.6139 223.855 38.6192 223.852L175.311 144.926V145.504V146.111C175.311 147.881 174.069 150.033 172.536 150.918L118.007 182.4L79.0489 204.892H79.0483L76.3616 206.444L76.358 206.446L21.8775 237.899C21.432 238.156 21.0113 238.278 20.6381 238.278Z" fill="#70A1FD"/>
<path d="M24.3086 216.619L24.3097 97.8822C24.3097 96.8206 25.0553 95.5294 25.975 94.998L168.437 12.7473C169.357 12.2164 170.102 12.647 170.102 13.7087L170.107 132.448C170.107 133.509 169.362 134.801 168.442 135.331L25.9739 217.58C25.0539 218.111 24.3086 217.681 24.3086 216.619Z" fill="#4C84FC"/>
<path d="M24.3086 216.619L24.3097 97.8822C24.3097 96.8206 25.0553 95.5294 25.975 94.998L168.437 12.7473C169.357 12.2164 170.102 12.647 170.102 13.7087L170.107 132.448C170.107 133.509 169.362 134.801 168.442 135.331L25.9739 217.58C25.0539 218.111 24.3086 217.681 24.3086 216.619Z" fill="#D0E2FE"/>
<path d="M13.8965 165.431L13.8981 93.1522L13.8972 165.43L13.8965 165.431Z" fill="#3E3F42"/>
<path d="M13.8945 223.145L13.8957 165.431L13.8964 165.43L13.8957 223.144L13.8945 223.145Z" fill="#3B3D3F"/>
<path d="M13.8957 224.564L13.8945 224.564V223.145L13.8957 223.144V224.564Z" fill="#353638"/>
<path d="M19.0995 227.576L13.8965 224.564V223.144L13.8972 165.43L13.8981 93.1523C13.8981 92.2685 14.2153 91.2822 14.7145 90.411C14.7148 90.4104 14.715 90.4104 14.7155 90.4098L17.737 92.1511L19.9188 93.4108C19.9189 93.4102 19.9194 93.4097 19.9196 93.4091H19.9201C19.7677 93.6754 19.6328 93.9517 19.5191 94.2329C19.3505 94.6457 19.2276 95.0674 19.1616 95.4807C19.1238 95.7085 19.1028 95.9339 19.0995 96.1521V227.576Z" fill="#4C84FC"/>
<path d="M19.1602 95.4805C19.2262 95.0671 19.349 94.6454 19.5176 94.2326C19.3506 94.6454 19.2285 95.0677 19.1602 95.4805Z" fill="#071715"/>
<path d="M14.7157 90.4067L14.7129 90.405C14.907 90.0746 15.1285 89.7585 15.3713 89.4696C15.1292 89.7579 14.9084 90.074 14.7157 90.4067ZM15.7348 89.0741C15.9361 88.8742 16.1484 88.6939 16.3687 88.5397C16.1486 88.6939 15.9364 88.8742 15.7348 89.0741ZM175.284 5.51197C175.224 5.07724 175.075 4.72672 174.858 4.47169C174.393 2.80331 173.615 1.79742 172.732 1.27787C174.035 2.03941 175.107 3.86021 175.284 5.51197ZM171.8 0.886429C171.296 0.741714 170.74 0.669952 170.177 0.669952C169.728 0.669952 169.274 0.715622 168.839 0.806961C169.274 0.715622 169.728 0.669373 170.178 0.669373C170.74 0.669373 171.296 0.741119 171.8 0.886429Z" fill="#A7A9A8"/>
<path d="M19.9176 93.4087L17.7349 92.1507L14.7148 90.4065C14.9076 90.0737 15.1283 89.7576 15.3704 89.4694C15.3709 89.4688 15.3716 89.4682 15.3723 89.467C15.3732 89.4658 15.3742 89.4652 15.3751 89.464C15.4884 89.3294 15.6063 89.2007 15.728 89.0797C15.7286 89.0791 15.7293 89.0785 15.7298 89.0779C15.7312 89.0762 15.7326 89.075 15.734 89.0738C15.9355 88.8739 16.1478 88.6936 16.3679 88.5394C16.4684 88.4688 16.5706 88.4036 16.6741 88.3443L167.329 1.3642C167.774 1.10738 168.292 0.921165 168.838 0.806694C169.274 0.715355 169.727 0.669685 170.176 0.669685C170.739 0.669685 171.295 0.741447 171.799 0.886162C172.129 0.981651 172.437 1.10797 172.71 1.26573C172.717 1.26929 172.724 1.27345 172.731 1.27761C173.614 1.79716 174.393 2.80305 174.858 4.47142C174.589 4.15589 174.215 3.98687 173.774 3.98687C173.4 3.98687 172.979 4.10783 172.533 4.36346L71.6605 62.6064L21.8792 91.3477C21.4583 91.5909 21.059 91.9295 20.7016 92.3293C20.411 92.6531 20.1467 93.0184 19.9176 93.4087Z" fill="#70A1FD"/>
<path d="M20.7012 92.3296C21.0586 91.9298 21.4578 91.5912 21.8788 91.348L71.6601 62.6067L21.8783 91.3504C21.4581 91.593 21.0598 91.9298 20.7012 92.3296Z" fill="#1255FB"/>
<path d="M19.9181 93.4106L17.7363 92.1509L19.919 93.4089C19.9187 93.4095 19.9183 93.4101 19.9181 93.4106Z" fill="#072420"/>
<path d="M38.62 223.852C38.6012 223.858 38.2695 224.108 37.5344 224.18C36.9654 224.237 36.3725 224.151 35.9451 223.902C35.2234 223.487 34.6489 222.44 34.6489 221.559L34.6426 113.851L37.2409 115.351V223.053C37.2409 223.679 37.555 224.04 38.0081 224.04C38.0721 224.04 38.3195 224.02 38.62 223.852Z" fill="#EDEDEB"/>
<path d="M38.0045 223.721C37.6021 223.721 37.5586 223.253 37.5586 223.053V106.547L41.204 104.443C41.649 104.185 42.0102 103.035 42.728 100.474C43.1061 99.1238 43.6774 97.0841 43.9737 96.8552L76.8983 77.8454C77.18 77.9924 77.7986 79.0814 78.1728 79.7409C78.9783 81.1572 79.4604 81.9591 80.0049 81.9591C80.0986 81.9591 80.187 81.9353 80.2682 81.8879L181.487 23.4391V139.577C181.487 140.345 180.929 141.315 180.267 141.695L38.4593 223.575C38.2949 223.671 38.1377 223.721 38.0045 223.721Z" fill="#FAFAF9"/>
<path d="M181.806 22.8864L80.1082 81.6122L80.0062 81.64C79.2334 81.64 77.6646 77.5157 76.8871 77.5157L76.7833 77.5435L43.8094 96.5824C43.0433 97.0231 41.8047 103.726 41.045 104.166L37.2402 106.363V223.053C37.2402 223.678 37.5523 224.041 38.0052 224.041C38.1903 224.041 38.3991 223.979 38.6198 223.852L180.427 141.972C181.193 141.531 181.806 140.458 181.806 139.577V31.8754V22.8864ZM181.168 23.992V31.8754V139.577C181.168 140.234 180.673 141.094 180.108 141.419L38.2994 223.3C38.1403 223.392 38.0407 223.402 38.0052 223.402C37.8801 223.402 37.8787 223.067 37.8787 223.053V106.731L41.3654 104.719C41.9168 104.399 42.2614 103.325 43.0359 100.56C43.3811 99.3279 43.8986 97.4804 44.1782 97.1067L76.8563 78.2387C77.138 78.5643 77.6018 79.3804 77.8965 79.8981C78.785 81.4621 79.282 82.2782 80.0062 82.2782C80.1538 82.2782 80.3003 82.2385 80.4279 82.1649L181.168 23.992Z" fill="#DADBD8"/>
<path d="M35.9409 110.616C35.225 110.203 34.6447 109.153 34.6447 108.271L34.6426 97.4819C34.6426 96.6006 35.263 95.5283 36.0261 95.0876L177.833 13.2075C178.595 12.7663 179.795 12.7449 180.511 13.1577C181.227 13.5711 181.807 14.6209 181.804 15.5016L181.806 26.2929C181.809 27.1749 181.189 28.2454 180.426 28.6861L38.6186 110.566C37.8554 111.006 36.6568 111.029 35.9409 110.616Z" fill="#4C84FC"/>
<path d="M37.6425 97.6167L35.0508 96.1162C35.306 95.682 35.6441 95.3107 36.0271 95.0871L177.835 13.2083C178.231 12.9782 178.749 12.8613 179.254 12.8613C179.297 12.8613 179.339 12.8619 179.381 12.8637C179.633 12.8738 179.878 12.9129 180.102 12.9817C180.249 13.0274 180.387 13.0861 180.51 13.1572C181.167 13.5404 181.71 14.4466 181.793 15.277C181.728 14.7895 181.438 14.5131 181.041 14.5131C180.855 14.5131 180.646 14.5736 180.426 14.7023L38.6193 96.5823C38.2653 96.7875 37.9419 97.1304 37.6972 97.5265C37.6784 97.5562 37.6604 97.5865 37.6425 97.6167Z" fill="#4C84FC"/>
<path d="M37.2409 115.351L34.6426 113.851L34.644 97.4818L34.6461 108.271C34.6461 109.153 35.2264 110.202 35.9423 110.616C36.285 110.814 36.7379 110.912 37.201 110.912C37.2144 110.912 37.2276 110.912 37.2409 110.911V115.351Z" fill="#142228"/>
<path d="M34.6426 97.4814C34.6426 97.4239 34.6449 97.3717 34.6495 97.3142C34.6601 97.1849 34.6773 97.0864 34.703 96.972C34.773 96.6855 34.8907 96.3813 35.048 96.1191C34.7976 96.5521 34.6426 97.0408 34.6426 97.4814Z" fill="#142228"/>
<path d="M37.1996 110.912C36.7364 110.912 36.2835 110.814 35.9409 110.616C35.225 110.202 34.6447 109.153 34.6447 108.271L34.6426 97.4816C34.6426 97.041 34.7976 96.5522 35.048 96.1193C35.0487 96.1181 35.0491 96.1175 35.0499 96.1163L37.6416 97.6168C37.3926 98.0445 37.2394 98.5361 37.2394 98.9768V110.911C37.2262 110.912 37.213 110.912 37.1996 110.912Z" fill="#70A1FD"/>
<path d="M181.805 15.5009L181.806 22.8867L80.1082 81.6124C79.349 82.0525 78.7298 81.6949 78.7298 80.8141V78.0183C78.7298 77.1369 78.1106 76.7793 77.3444 77.22L43.8094 96.5827C43.0433 97.0233 42.424 98.0957 42.424 98.977V101.773C42.424 102.654 41.8047 103.726 41.045 104.167L37.2402 106.363V98.977C37.2402 98.0957 37.8595 97.0233 38.6192 96.5827L180.426 14.7026C181.186 14.2619 181.805 14.6196 181.805 15.5009Z" fill="#4C84FC"/>
<path d="M175.325 20.1323C176.286 19.5783 177.064 20.0273 177.064 21.137C177.064 22.2461 176.286 23.5948 175.325 24.1493C174.364 24.7038 173.586 24.2537 173.586 23.1452C173.586 22.0355 174.364 20.6868 175.325 20.1323Z" fill="white"/>
<path d="M169.066 23.7425C170.026 23.188 170.805 23.6376 170.805 24.7472C170.805 25.8563 170.026 27.205 169.066 27.7596C168.105 28.3141 167.326 27.8645 167.326 26.7554C167.326 25.6464 168.105 24.2971 169.066 23.7425Z" fill="white"/>
<path d="M162.803 27.353C163.764 26.7984 164.543 27.248 164.543 28.3565C164.543 29.4662 163.764 30.8149 162.803 31.3694C161.843 31.924 161.064 31.4744 161.064 30.3653C161.064 29.2562 161.843 27.9075 162.803 27.353Z" fill="white"/>
<path d="M181.806 22.8867V31.8756L37.2402 115.351V106.363L40.0817 104.717C40.8412 104.277 41.0967 103.607 41.4607 102.323L42.424 98.977C42.7279 97.8145 43.0433 97.0233 43.8094 96.5826L76.7833 77.5437C77.5496 77.1037 78.1468 77.055 78.7298 78.0182L79.9119 80.1634C80.3454 80.9125 80.5625 81.3532 81.3222 80.9125L181.806 22.8867Z" fill="#E2E2E0"/>
<path d="M37.2409 106.363V115.351L34.6426 113.851V104.869L37.2409 106.363Z" fill="#DADBD8"/>
<path d="M42.1233 109.974H42.0084L40.831 109.07L40.8278 109.064L40.7965 109.017L40.7868 109.001L40.7715 108.901L40.7868 108.784L40.7965 108.757L40.8278 108.673L40.831 108.665L42.0084 106.401C42.0582 106.305 42.1263 106.249 42.1847 106.249C42.2107 106.249 42.235 106.26 42.2545 106.284C42.3182 106.359 42.3105 106.533 42.238 106.672L41.4109 108.264L43.5806 107.011C43.6021 106.999 43.623 106.993 43.6422 106.993C43.7082 106.993 43.7553 107.064 43.7553 107.179C43.7553 107.328 43.6774 107.493 43.5806 107.548L41.4109 108.801L42.238 109.437C42.3105 109.493 42.3182 109.658 42.2545 109.807C42.2199 109.888 42.1717 109.947 42.1233 109.974Z" fill="#84999D"/>
<path d="M46.849 107.245L46.7174 107.229C46.6539 107.154 46.661 106.98 46.734 106.84L47.5614 105.249L45.3915 106.502C45.3698 106.514 45.3491 106.52 45.3301 106.52C45.2638 106.52 45.2168 106.449 45.2168 106.334C45.2168 106.185 45.2951 106.02 45.3915 105.964L47.5614 104.711L46.734 104.076C46.661 104.02 46.6539 103.854 46.7174 103.706C46.7666 103.59 46.8443 103.52 46.9101 103.52C46.9291 103.52 46.9475 103.526 46.9635 103.538L48.1408 104.443L48.1438 104.448L48.1758 104.496L48.1853 104.512L48.2007 104.611L48.1853 104.728L48.1758 104.756L48.1438 104.84L48.1408 104.848L46.9635 107.112C46.9303 107.176 46.89 107.221 46.849 107.245Z" fill="#84999D"/>
<path d="M50.9816 104.992C50.803 104.992 50.6358 104.927 50.4929 104.789C49.9555 104.272 49.9555 102.926 50.4929 101.788C50.8867 100.954 51.4602 100.466 51.9507 100.466C51.9768 100.466 52.0029 100.467 52.0284 100.47L52.3255 99.7439C52.3569 99.6674 52.4044 99.6271 52.4441 99.6271C52.4773 99.6271 52.5046 99.6561 52.5111 99.716L52.641 100.985C52.6499 101.074 52.6037 101.187 52.542 101.227L51.6565 101.805C51.6411 101.815 51.6268 101.82 51.6144 101.82C51.5509 101.82 51.5225 101.708 51.5705 101.59L51.7947 101.042C51.4359 101.064 51.0248 101.422 50.7396 102.026C50.3386 102.875 50.3386 103.881 50.7396 104.267C50.8469 104.37 50.9715 104.419 51.1043 104.419C51.4709 104.419 51.9009 104.049 52.195 103.426C52.2454 103.321 52.3178 103.259 52.3801 103.259C52.4026 103.259 52.424 103.267 52.4423 103.284C52.51 103.349 52.51 103.52 52.4423 103.664C52.1731 104.233 51.8202 104.643 51.4679 104.847C51.303 104.942 51.1381 104.992 50.9816 104.992Z" fill="#84999D"/>
<path d="M74.4502 84.2686C74.4193 84.2686 74.3903 84.2567 74.3648 84.233C74.2716 84.1428 74.2716 83.9097 74.3648 83.7116L75.1559 82.0373L74.3648 81.2758C74.2716 81.1863 74.2716 80.9526 74.3648 80.7551C74.4336 80.6098 74.5332 80.5238 74.6186 80.5238C74.6494 80.5238 74.6785 80.5356 74.7034 80.5593L75.4946 81.3203L76.2852 79.646C76.354 79.5013 76.4536 79.4153 76.539 79.4153C76.5699 79.4153 76.5989 79.4265 76.6238 79.4509C76.7176 79.5404 76.7176 79.7735 76.6238 79.9722L75.8333 81.6465L76.6238 82.408C76.7176 82.4976 76.7176 82.7307 76.6238 82.9288C76.5776 83.0278 76.5159 83.099 76.4548 83.1346C76.4264 83.1512 76.3979 83.1595 76.3706 83.1595C76.3398 83.1595 76.3101 83.1482 76.2852 83.1245L75.4946 82.3629L74.7034 84.0378C74.6572 84.1363 74.5955 84.2081 74.5344 84.2431C74.5059 84.2597 74.4774 84.2686 74.4502 84.2686Z" fill="#84999D"/>
<path d="M55.3906 101.774V98.9775C55.3906 98.0961 56.0098 97.0244 56.7731 96.5837L172.648 29.7071C173.411 29.2665 174.029 29.6241 174.029 30.5054V33.3019C174.029 34.1832 173.41 35.2555 172.648 35.6962L56.7731 102.572C56.0098 103.013 55.3906 102.656 55.3906 101.774Z" fill="#FAFAF9"/>
<path d="M171.841 31.1859L171.625 31.2874L172.028 32.145L172.236 32.2262L172.322 32.2595L173.22 31.9154L173.175 31.7986V31.9226L173.22 31.9154L173.175 31.7986V31.9226V31.7672L173.044 31.8532L173.175 31.9226V31.7672L173.044 31.8532L173.124 31.801L173.031 31.8241L173.044 31.8532L173.124 31.801L173.031 31.8241L173.061 31.8164L173.029 31.8206L173.031 31.8241L173.061 31.8164L173.029 31.8206V31.8223L173.01 31.8864L172.423 32.9889V32.9884C172.375 33.0797 172.348 33.1752 172.347 33.279L172.352 33.346L172.491 34.3442V34.3436V34.3465L172.462 34.4254L172.452 34.4385L172.449 34.4414L172.511 34.5191V34.4248L172.449 34.4414L172.511 34.5191V34.4248V34.5713L172.529 34.426L172.511 34.4248V34.5713L172.529 34.426L171.803 34.3359H171.802L171.763 34.3335C171.602 34.34 171.511 34.4242 171.439 34.5108L171.43 34.5221L170.713 35.4384L170.704 35.4485L170.73 35.4764L170.715 35.4426L170.704 35.4485L170.73 35.4764L170.715 35.4426L170.766 35.5547V35.4319L170.715 35.4426L170.766 35.5547V35.4319V35.5855L170.891 35.4942L170.766 35.4319V35.5855L170.891 35.4942L170.804 35.5582L170.909 35.5292L170.891 35.4942L170.804 35.5582L170.909 35.5292L170.864 35.5416L170.91 35.5357L170.909 35.5292L170.864 35.5416L170.91 35.5357V35.5345L170.911 35.525L171.05 34.3673L171.054 34.3026C171.052 34.2024 171.03 34.0797 170.907 33.9854L170.32 33.5613L170.242 33.6686L170.368 33.6212L170.32 33.5613L170.242 33.6686L170.368 33.6212L170.305 33.6449L170.371 33.6342L170.368 33.6212L170.305 33.6449L170.371 33.6342L170.386 33.5767L170.413 33.537L170.422 33.5299L171.225 32.9112C171.327 32.8294 171.388 32.7262 171.425 32.6094L171.426 32.6064L171.79 31.4119L171.789 31.4179L171.821 31.3579L171.824 31.3556L171.764 31.2779V31.3704L171.824 31.3556L171.764 31.2779V31.3704V31.2097L171.674 31.3425L171.764 31.3704V31.2097L171.674 31.3425L171.751 31.2287L171.626 31.288L171.674 31.3425L171.751 31.2287L171.626 31.288L171.625 31.2874L171.841 31.1859L172.058 31.0833C172.035 31.0335 171.996 30.9825 171.942 30.9458C171.888 30.909 171.822 30.8912 171.764 30.8918C171.63 30.8953 171.546 30.957 171.479 31.0234C171.411 31.0922 171.362 31.1782 171.331 31.2791L170.968 32.4688V32.4682L170.947 32.5139L170.932 32.5323L170.12 33.158C169.961 33.2902 169.899 33.4575 169.893 33.6342C169.893 33.7267 169.914 33.8543 170.04 33.9498L170.039 33.9492L170.627 34.3738L170.705 34.2653L170.578 34.3139L170.627 34.3738L170.705 34.2653L170.578 34.3139L170.637 34.2914L170.575 34.3021L170.578 34.3139L170.637 34.2914L170.575 34.3021V34.3026L170.574 34.3109L170.573 34.3187L170.435 35.4687L170.431 35.5345C170.432 35.6146 170.448 35.6994 170.505 35.7771C170.559 35.856 170.667 35.9135 170.766 35.9105C170.916 35.907 171.016 35.8257 171.089 35.7338L171.816 34.8062V34.8056L171.824 34.7973L171.763 34.7107V34.8121L171.824 34.7973L171.763 34.7107V34.8121V34.6609L171.745 34.8115L171.763 34.8121V34.6609L171.745 34.8115L171.744 34.8109L172.47 34.9011L172.511 34.9035C172.604 34.9029 172.676 34.8673 172.729 34.8293C172.809 34.7706 172.862 34.6983 172.903 34.6182C172.942 34.5381 172.969 34.4486 172.97 34.3465L172.965 34.2777L172.964 34.2688L172.826 33.2802V33.279L172.846 33.2143L173.433 32.1118V32.1112C173.483 32.0169 173.508 31.9196 173.509 31.8223C173.508 31.7482 173.495 31.6705 173.445 31.5922C173.399 31.5133 173.287 31.4404 173.175 31.4439L173.049 31.4682L172.324 31.7464L172.292 31.7334L172.204 31.957L172.421 31.8549L172.059 31.0839L172.058 31.0833L171.841 31.1859Z" fill="#DADBD8"/>
<path d="M175.659 29.3662C175.493 29.3662 175.332 29.2808 175.244 29.1272C175.111 28.8977 175.19 28.6053 175.419 28.473L179.309 26.227C179.385 26.1837 179.467 26.1629 179.548 26.1629C179.713 26.1629 179.874 26.2489 179.963 26.4025C180.095 26.6315 180.016 26.9239 179.787 27.0561L175.898 29.3022C175.822 29.3461 175.74 29.3662 175.659 29.3662Z" fill="#84999D"/>
<path d="M175.659 31.6128C175.493 31.6128 175.332 31.5274 175.244 31.3732C175.111 31.1442 175.19 30.8518 175.419 30.719L179.309 28.4735C179.385 28.4297 179.467 28.4089 179.548 28.4089C179.713 28.4089 179.874 28.4949 179.963 28.6485C180.095 28.878 180.016 29.1704 179.787 29.3027L175.898 31.5487C175.822 31.5926 175.74 31.6128 175.659 31.6128Z" fill="#84999D"/>
<path d="M175.659 33.8594C175.493 33.8594 175.332 33.7734 175.244 33.6198C175.111 33.3908 175.19 33.0984 175.419 32.9662L179.309 30.7201C179.385 30.6762 179.467 30.6555 179.548 30.6555C179.713 30.6555 179.874 30.7421 179.963 30.8951C180.095 31.124 180.016 31.417 179.787 31.5493L175.898 33.7953C175.822 33.8386 175.74 33.8594 175.659 33.8594Z" fill="#84999D"/>
<path d="M41.5048 117.868C41.3391 117.868 41.1781 117.782 41.0898 117.629C40.9573 117.4 41.0358 117.107 41.265 116.975L45.1546 114.729C45.2301 114.685 45.3126 114.665 45.3939 114.665C45.5593 114.665 45.7198 114.751 45.8081 114.904C45.9404 115.133 45.8621 115.426 45.6332 115.558L41.7436 117.804C41.6681 117.847 41.5858 117.868 41.5048 117.868Z" fill="#D0E2FE"/>
<path d="M41.5048 120.115C41.3391 120.115 41.1781 120.029 41.0898 119.875C40.9573 119.646 41.0358 119.353 41.265 119.222L45.1546 116.976C45.2301 116.932 45.3126 116.911 45.3939 116.911C45.5593 116.911 45.7198 116.997 45.8081 117.15C45.9404 117.379 45.8621 117.672 45.6332 117.805L41.7436 120.051C41.6681 120.094 41.5858 120.115 41.5048 120.115Z" fill="#D0E2FE"/>
<path d="M41.5048 122.361C41.3391 122.361 41.1781 122.275 41.0898 122.122C40.9573 121.893 41.0358 121.6 41.265 121.468L45.1546 119.222C45.2301 119.178 45.3126 119.157 45.3939 119.157C45.5593 119.157 45.7198 119.243 45.8081 119.397C45.9404 119.626 45.8621 119.919 45.6332 120.051L41.7436 122.297C41.6681 122.341 41.5858 122.361 41.5048 122.361Z" fill="#D0E2FE"/>
<path d="M76.0117 98.0625L76.0123 101.508C76.0129 102.213 76.5117 102.501 77.122 102.148L123.339 75.4259L123.339 69.4191L77.1208 96.1415C76.5111 96.4932 76.0117 97.3579 76.0117 98.0625Z" fill="#E2E2E0"/>
<path d="M129.166 66.0537C129.779 65.7002 130.275 65.9867 130.275 66.6943V70.1401C130.275 70.8477 129.779 71.7077 129.166 72.0612L123.338 75.4258L123.338 69.4189L129.166 66.0537Z" fill="#4C84FC"/>
<path d="M126.65 72.0241C126.47 72.1285 126.314 72.1439 126.185 72.0698C125.968 71.9441 125.834 71.5728 125.834 71.0995C125.834 70.1909 126.318 69.1447 126.891 68.8131C126.997 68.7526 127.095 68.7212 127.184 68.7212C127.246 68.7212 127.304 68.7372 127.357 68.7675C127.573 68.8926 127.708 69.2645 127.708 69.7384C127.708 70.6458 127.224 71.6932 126.65 72.0241ZM128.736 70.7786L128.086 70.5758C128.153 70.3 128.191 70.0159 128.191 69.7384C128.191 69.0735 127.975 68.5676 127.598 68.3499C127.318 68.1886 126.981 68.2046 126.65 68.3962C125.922 68.8167 125.352 70.0035 125.352 71.0995C125.352 71.7644 125.568 72.2697 125.944 72.4873C126.072 72.5609 126.211 72.5977 126.357 72.5977C126.53 72.5977 126.712 72.5455 126.891 72.4411C127.33 72.1884 127.707 71.6564 127.942 71.036L128.593 71.2389L128.665 71.2496C128.768 71.2496 128.863 71.1837 128.895 71.0799C128.934 70.953 128.864 70.8178 128.736 70.7786Z" fill="#FAFAF9"/>
<path d="M56.8042 107.872L50.129 111.731C49.5187 112.084 49.0234 112.941 49.0234 113.645V117.078C49.0234 117.783 49.5187 118.069 50.129 117.716L56.8036 113.858C57.4133 113.505 57.9086 112.648 57.9086 111.943V108.51C57.9092 107.805 57.4145 107.519 56.8042 107.872Z" fill="#4C84FC"/>
<path d="M172.843 40.8704C171.406 41.7001 170.242 43.7167 170.242 45.3755C170.242 47.0344 171.407 47.7064 172.843 46.8773C174.279 46.0475 175.445 44.031 175.444 42.3721C175.442 40.7132 174.278 40.0413 172.843 40.8704Z" fill="#4C84FC"/>
<path d="M172.54 43.5161C172.457 43.5161 172.379 43.4959 172.309 43.4556C172.147 43.3625 172.059 43.1775 172.059 42.9355C172.059 42.4924 172.359 41.9711 172.743 41.7493V41.7487C172.952 41.6283 173.156 41.6129 173.319 41.706C173.48 41.7997 173.57 41.9842 173.57 42.2261C173.57 42.6698 173.269 43.1905 172.885 43.4123C172.766 43.4811 172.649 43.5161 172.54 43.5161Z" fill="white"/>
<path d="M173.871 43.6886C173.616 43.5409 173.291 43.5652 172.956 43.7586L172.578 43.9763C171.922 44.3558 171.408 45.2467 171.408 46.004V46.2709C171.778 46.4767 172.285 46.4417 172.844 46.1191C173.403 45.7971 173.91 45.2473 174.28 44.615V44.5504C174.28 44.1518 174.132 43.8387 173.871 43.6886Z" fill="white"/>
<path d="M163.646 48.9147V47.9966C163.646 46.9492 163.009 46.4676 162.223 46.9207C161.437 47.3744 160.8 48.5914 160.8 49.6394V50.4603C160.8 50.9763 160.621 51.5628 160.322 52.0628L160.32 52.0664C160.248 52.1951 160.203 52.3463 160.203 52.4857C160.203 52.7496 160.364 52.8712 160.562 52.7567L163.884 50.8381C164.083 50.7242 164.243 50.4176 164.243 50.1537C164.243 50.0214 164.203 49.9253 164.138 49.8761L164.132 49.8731C163.839 49.7409 163.646 49.4093 163.646 48.9147Z" fill="#4C84FC"/>
<path d="M162.907 51.6872C162.907 52.1901 162.601 52.7743 162.224 52.9926C161.847 53.2097 161.541 52.979 161.541 52.476L162.907 51.6872Z" fill="#4C84FC"/>
<path d="M151.855 58.7563C151.855 58.818 151.841 58.8802 151.811 58.9413C151.782 59.003 151.747 59.0457 151.707 59.0688L151.018 59.4668L150.915 59.4591C150.886 59.4312 150.871 59.3861 150.871 59.3244V58.4746C150.871 58.4129 150.886 58.3506 150.915 58.2889C150.944 58.2278 150.978 58.1851 151.018 58.162L151.707 57.764L151.811 57.7711C151.841 57.7996 151.855 57.8441 151.855 57.9058V58.7563ZM151.379 53.2814C151.583 53.1634 151.776 53.0958 151.956 53.0792C152.137 53.0614 152.294 53.0916 152.427 53.1693C152.56 53.247 152.665 53.3686 152.74 53.5347C152.817 53.7013 152.855 53.9107 152.855 54.1633C152.855 54.365 152.834 54.5548 152.79 54.7315C152.746 54.9083 152.69 55.0779 152.624 55.2398C152.556 55.4023 152.483 55.5559 152.402 55.7001C152.322 55.8448 152.244 55.9865 152.169 56.1253C152.095 56.2635 152.027 56.4023 151.968 56.5411C151.907 56.6793 151.866 56.8168 151.844 56.9527C151.833 57.0203 151.816 57.0837 151.792 57.1425C151.769 57.2012 151.737 57.2415 151.697 57.2646L151.03 57.6501L150.926 57.643C150.896 57.6146 150.882 57.5701 150.882 57.5084C150.882 57.3234 150.907 57.1431 150.955 56.9687C151.006 56.7949 151.066 56.6265 151.138 56.4634C151.212 56.3009 151.291 56.1437 151.377 55.9936C151.462 55.843 151.542 55.7007 151.614 55.566C151.687 55.4314 151.748 55.3021 151.798 55.1781C151.847 55.0542 151.872 54.9362 151.872 54.8241C151.872 54.6616 151.831 54.5566 151.751 54.5103C151.671 54.4641 151.548 54.4896 151.379 54.5862C151.215 54.6805 151.098 54.7867 151.027 54.9035C150.955 55.0198 150.903 55.1331 150.871 55.2416C150.838 55.3507 150.81 55.4498 150.786 55.5393C150.763 55.6283 150.716 55.6929 150.647 55.7327L149.979 56.1182L149.895 56.117C149.871 56.0962 149.859 56.0583 149.859 56.0025C149.863 55.8038 149.899 55.5773 149.969 55.3205C150.038 55.0643 150.137 54.808 150.266 54.5512C150.397 54.2938 150.554 54.0524 150.74 53.8271C150.926 53.6023 151.138 53.4202 151.379 53.2814Z" fill="#4C84FC"/>
<path d="M72.002 139.68L74.0339 138.507V134.564L72.002 139.68ZM76.0783 160.123C75.5326 160.123 75.0273 159.914 74.6187 159.518C74.0855 159.005 73.8133 158.279 73.8133 157.361V152.972L62.0819 159.745C61.7076 159.962 61.3192 160.072 60.9277 160.072C60.3833 160.072 59.8791 159.863 59.4705 159.47C58.9349 158.956 58.6621 158.229 58.6621 157.31V150.081C58.6621 148.721 58.8893 147.442 59.3376 146.281L72.5891 112.906C72.9124 112.112 73.216 111.538 73.5215 111.14C73.8649 110.697 74.3144 110.314 74.863 109.997L81.5537 106.133C81.9297 105.917 82.317 105.808 82.7079 105.808C83.2512 105.808 83.7547 106.015 84.1633 106.407C84.703 106.93 84.9741 107.655 84.9741 108.569V132.191L86.5594 131.276C86.9325 131.06 87.3216 130.951 87.7142 130.951C88.2557 130.951 88.758 131.156 89.1667 131.546C89.7099 132.075 89.9798 132.8 89.9798 133.712V140.941C89.9798 141.66 89.8131 142.377 89.484 143.074C89.118 143.85 88.6335 144.416 88.0434 144.757L84.9741 146.529V152.629C84.9741 153.346 84.8068 154.064 84.4789 154.762C84.11 155.542 83.6242 156.108 83.0341 156.447L77.2336 159.796C76.8582 160.013 76.4697 160.123 76.0783 160.123Z" fill="#DADBD8"/>
<path d="M108.261 104.616C108.133 104.616 107.751 104.663 107.002 105.096C106.284 105.51 105.682 106.024 105.212 106.62C104.714 107.253 104.31 107.963 104.01 108.733C103.694 109.543 103.453 110.438 103.293 111.389C103.128 112.375 103.03 113.421 103.003 114.497C102.857 118.321 102.857 122.137 103.003 125.861C103.03 126.91 103.118 127.831 103.266 128.616C103.414 129.403 103.632 129.817 103.79 130.025C103.935 130.218 104.059 130.267 104.214 130.285L104.227 130.286C104.41 130.286 104.791 130.23 105.519 129.81C106.237 129.396 106.839 128.882 107.311 128.284C107.812 127.646 108.226 126.927 108.54 126.146C108.865 125.337 109.103 124.454 109.248 123.521C109.4 122.54 109.491 121.491 109.519 120.406C109.636 116.517 109.636 112.693 109.519 109.034C109.465 108.038 109.362 107.112 109.212 106.314C109.092 105.68 108.909 105.175 108.682 104.854C108.559 104.679 108.454 104.636 108.306 104.619L108.261 104.616ZM100.828 145.295C100.708 145.295 100.59 145.292 100.474 145.286C98.4997 145.189 96.8332 144.455 95.5189 143.104C94.2941 141.847 93.3796 140.097 92.8007 137.904C92.2586 135.861 91.936 133.552 91.8435 131.046C91.7842 129.214 91.7539 127.195 91.7539 125.041C91.7539 122.886 91.7842 120.789 91.8429 118.806C91.9348 116.217 92.2503 113.584 92.7811 110.971C93.3155 108.328 94.1411 105.778 95.2336 103.394C96.3314 100.999 97.7347 98.7644 99.4054 96.7514C101.107 94.7023 103.164 92.9734 105.52 91.6135C107.856 90.2648 109.876 89.6088 111.695 89.6088C111.815 89.6088 111.933 89.6118 112.05 89.6177C114.025 89.7185 115.691 90.4522 117.004 91.7997C118.228 93.0612 119.142 94.8102 119.722 96.9987C120.264 99.0491 120.587 101.356 120.679 103.858C120.738 105.822 120.768 107.886 120.768 110.001C120.768 112.119 120.738 114.171 120.68 116.099C120.588 118.683 120.272 121.316 119.742 123.933C119.205 126.579 118.38 129.129 117.289 131.51C116.191 133.908 114.787 136.143 113.117 138.153C111.417 140.201 109.359 141.93 107.002 143.29C104.667 144.64 102.647 145.295 100.828 145.295Z" fill="#DADBD8"/>
<path d="M137.048 102.126L139.081 100.953V97.0091L137.048 102.126ZM141.125 122.568C140.58 122.568 140.074 122.359 139.665 121.962C139.132 121.45 138.86 120.723 138.86 119.806V115.417L127.129 122.191C126.755 122.407 126.366 122.517 125.975 122.517C125.43 122.517 124.926 122.308 124.517 121.914C123.982 121.401 123.709 120.674 123.709 119.755V112.526C123.709 111.166 123.936 109.888 124.385 108.726L137.636 75.3511C137.959 74.557 138.262 73.9829 138.568 73.5849C138.912 73.1418 139.361 72.7587 139.91 72.4414L146.601 68.5786C146.977 68.3621 147.364 68.2536 147.755 68.2536C148.298 68.2536 148.802 68.46 149.21 68.852C149.749 69.3745 150.021 70.1005 150.021 71.0138V94.6367L151.606 93.721C151.979 93.5051 152.368 93.3954 152.761 93.3954C153.303 93.3954 153.804 93.6012 154.214 93.9909C154.757 94.5199 155.027 95.2447 155.027 96.1568V103.386C155.027 104.105 154.86 104.823 154.531 105.519C154.165 106.295 153.68 106.86 153.09 107.202L150.021 108.974V115.074C150.021 115.792 149.854 116.509 149.525 117.207C149.156 117.987 148.671 118.553 148.081 118.892L142.281 122.242C141.905 122.458 141.517 122.568 141.125 122.568Z" fill="#DADBD8"/>
<path d="M93.2325 135.612L93.083 135.501C92.8802 135.387 88.5802 132.903 88.5802 132.903V111.562C88.5802 111.063 88.4622 110.699 88.2267 110.471L88.0838 110.362C87.8792 110.244 83.3195 107.612 83.2726 107.585C83.0662 107.462 82.8308 107.477 82.5663 107.629L75.8768 111.491C75.493 111.713 75.19 111.968 74.9681 112.254C74.7475 112.541 74.5038 113.012 74.2381 113.665L60.9919 147.027C60.6076 148.021 60.416 149.109 60.416 150.292V157.522C60.416 158.022 60.5329 158.386 60.7701 158.613L60.9201 158.726C61.1224 158.841 65.6821 161.475 65.7313 161.504C65.9353 161.623 66.1678 161.606 66.43 161.455L75.5672 156.179V157.573C75.5672 158.073 75.6846 158.437 75.9207 158.664L76.0642 158.774C76.2682 158.892 80.8321 161.526 80.8807 161.554C81.0853 161.674 81.319 161.658 81.5811 161.506L87.3846 158.154C87.7084 157.968 87.9895 157.624 88.2267 157.124C88.4622 156.623 88.5802 156.124 88.5802 155.623V148.666L92.3903 146.466C92.7147 146.279 92.9958 145.936 93.2325 145.434C93.4679 144.935 93.5865 144.435 93.5865 143.934V136.705C93.5865 136.205 93.4679 135.842 93.2325 135.612Z" fill="#4C84FC"/>
<path d="M60.5968 148.396L60.5684 148.379C60.6633 147.91 60.7878 147.46 60.9539 147.027L74.1976 113.666C74.4645 113.013 74.7077 112.539 74.9331 112.254L74.939 112.248L74.9627 112.262C74.7439 112.55 74.5019 113.017 74.2386 113.665L60.9924 147.027C60.8228 147.465 60.6911 147.921 60.5968 148.396Z" fill="#B4B6B4"/>
<path d="M65.4187 151.179L60.6028 148.398C60.6028 148.398 60.6022 148.399 60.6022 148.4L60.5957 148.396C60.69 147.921 60.8217 147.465 60.9913 147.027L74.2374 113.665C74.5008 113.018 74.7428 112.55 74.9616 112.262L79.7538 115.03L79.7301 115.113C79.5225 115.403 79.2971 115.848 79.0539 116.448L65.8102 149.809C65.6382 150.247 65.5077 150.704 65.4187 151.179Z" fill="#4C84FC"/>
<path d="M63.0275 159.942C62.8069 159.815 62.5892 159.69 62.3828 159.571L62.3834 159.57C62.5898 159.689 62.8069 159.815 63.0275 159.942Z" fill="#A4A6A5"/>
<path d="M62.3824 159.571C61.6102 159.126 60.9904 158.769 60.9162 158.729L60.8231 158.654L60.9186 158.726C60.9904 158.767 61.6102 159.124 62.383 159.57L62.3824 159.571ZM60.6155 158.421C60.4797 158.2 60.4121 157.901 60.4121 157.519V150.295C60.4121 150.103 60.418 149.915 60.4293 149.728C60.4192 149.914 60.4145 150.101 60.4145 150.292V157.522C60.4145 157.899 60.4809 158.199 60.6155 158.421Z" fill="#8F9192"/>
<path d="M65.6744 161.469C65.3903 161.306 64.165 160.598 63.0286 159.943C62.808 159.815 62.5909 159.689 62.3845 159.57C61.6117 159.124 60.9919 158.767 60.9201 158.726L60.8247 158.654L60.7695 158.61C60.712 158.555 60.661 158.493 60.6171 158.421C60.4824 158.199 60.416 157.899 60.416 157.522V150.292C60.416 150.101 60.4208 149.914 60.4308 149.728C60.4587 149.27 60.5186 148.829 60.6028 148.4L65.4193 151.179C65.2948 151.777 65.2355 152.413 65.2355 153.076V160.306C65.2355 160.805 65.3541 161.166 65.5854 161.392L65.6744 161.469Z" fill="#70A1FD"/>
<path d="M65.42 151.179L60.6035 148.4C60.6035 148.399 60.6041 148.398 60.6041 148.398L65.42 151.179Z" fill="#4C84FC"/>
<path d="M80.6095 142.359L76.5527 140.017L80.6095 129.81V142.359Z" fill="#70A1FD"/>
<path d="M74.1387 146.09L76.5526 140.016L80.6093 142.359L74.1387 146.09Z" fill="#4C84FC"/>
<path d="M76.9995 159.314C76.4876 159.019 76.1193 158.807 76.0647 158.777C76.0137 158.748 75.9675 158.714 75.9277 158.669L76.0635 158.774C76.1187 158.806 76.4876 159.019 76.9995 159.314Z" fill="#8F9192"/>
<path d="M80.8212 161.516C80.4357 161.296 78.2745 160.049 76.9993 159.314C76.4875 159.019 76.1186 158.806 76.0634 158.774L75.9276 158.669C75.9258 158.667 75.924 158.665 75.9223 158.663C75.685 158.438 75.5664 158.07 75.5664 157.572V156.178L80.3823 153.397V160.354C80.3823 160.852 80.5009 161.22 80.7382 161.446L80.8212 161.516Z" fill="#70A1FD"/>
<path d="M88.5801 137.751V132.906C88.5801 132.906 92.5004 135.166 93.0283 135.474C92.9553 135.442 92.8788 135.425 92.7988 135.425C92.6712 135.425 92.536 135.467 92.3937 135.551L88.5801 137.751Z" fill="#4C84FC"/>
<path d="M75.5566 111.697C75.6557 111.625 75.7613 111.556 75.8745 111.489L82.5646 107.628C82.7105 107.543 82.8463 107.502 82.9733 107.502C82.997 107.502 83.0201 107.503 83.0433 107.506C83.0219 107.504 83 107.502 82.978 107.502C82.8493 107.502 82.7117 107.545 82.5652 107.629L75.8757 111.491C75.7624 111.557 75.6557 111.625 75.5566 111.697Z" fill="#E8E9E6"/>
<path d="M87.539 110.049C86.9162 109.689 85.8724 109.086 84.9727 108.567C84.9727 108.567 84.9727 108.567 84.9727 108.567C85.8724 109.086 86.9168 109.689 87.539 110.049Z" fill="#FCFDFC"/>
<path d="M84.9738 108.567C84.6886 108.403 84.4175 108.247 84.1797 108.109C84.4175 108.246 84.6886 108.403 84.9738 108.567C84.9738 108.567 84.9738 108.567 84.9738 108.567Z" fill="#E8E9E6"/>
<path d="M79.7905 115.029L74.9746 112.248C75.1288 112.048 75.3239 111.866 75.5582 111.697C75.6573 111.625 75.764 111.557 75.8773 111.491L82.5668 107.629C82.7133 107.544 82.8509 107.502 82.9796 107.502C83.0015 107.502 83.0235 107.504 83.0448 107.506C83.1237 107.516 83.199 107.543 83.272 107.587C83.2856 107.593 83.6533 107.805 84.18 108.108C84.4178 108.246 84.6889 108.402 84.9742 108.567C85.8739 109.086 86.9177 109.689 87.5405 110.049C87.7937 110.194 87.977 110.301 88.0523 110.344C87.9722 110.303 87.8874 110.283 87.7979 110.283C87.6686 110.283 87.5292 110.325 87.3821 110.409L80.698 114.271C80.3124 114.496 80.0159 114.745 79.7905 115.029Z" fill="#4C84FC"/>
<path d="M80.6062 142.357V129.808L74.1385 146.091L80.6062 142.357ZM81.5812 161.506C81.2562 161.694 80.9751 161.674 80.7396 161.446C80.503 161.219 80.3855 160.855 80.3855 160.354V153.397L66.4301 161.455C66.105 161.643 65.8251 161.623 65.5885 161.395C65.3512 161.168 65.2344 160.804 65.2344 160.303V153.074C65.2344 151.892 65.4259 150.804 65.8103 149.809L79.0564 116.447C79.3221 115.794 79.5659 115.324 79.7865 115.036C80.0083 114.75 80.3114 114.495 80.6951 114.273L87.3846 110.411C87.7091 110.224 87.9896 110.244 88.2268 110.471C88.4623 110.699 88.5803 111.063 88.5803 111.562V137.753L92.3903 135.554C92.7148 135.366 92.9959 135.387 93.2325 135.612C93.468 135.842 93.5866 136.205 93.5866 136.705V143.935C93.5866 144.435 93.468 144.935 93.2325 145.435C92.9959 145.936 92.7148 146.279 92.3903 146.467L88.5803 148.666V155.623C88.5803 156.124 88.4623 156.623 88.2268 157.124C87.9896 157.624 87.7091 157.968 87.3846 158.155L81.5812 161.506Z" fill="#4C84FC"/>
<path d="M106.781 131.147C106.689 130.47 106.631 129.726 106.61 128.913C106.462 125.134 106.462 121.313 106.61 117.454C106.639 116.301 106.743 115.195 106.92 114.138C107.098 113.08 107.364 112.097 107.718 111.187C108.072 110.279 108.545 109.448 109.135 108.698C109.659 108.032 110.305 107.467 111.061 106.99C111.158 107.663 111.229 108.399 111.272 109.198C111.39 112.905 111.39 116.725 111.272 120.657C111.242 121.811 111.146 122.912 110.984 123.961C110.821 125.01 110.556 125.993 110.187 126.91C109.818 127.829 109.337 128.663 108.747 129.412C108.214 130.089 107.554 130.665 106.781 131.147ZM124.286 106.907C124.197 104.503 123.894 102.326 123.378 100.373C122.861 98.4207 122.078 96.9065 121.03 95.8276C120.661 95.4492 120.258 95.132 119.821 94.8763C119.017 94.406 115.435 92.3462 114.995 92.09C114.193 91.6232 113.277 91.3634 112.247 91.3106C110.652 91.2318 108.747 91.8308 106.532 93.1095C104.317 94.3888 102.412 95.9896 100.817 97.91C99.2229 99.8316 97.9008 101.937 96.8523 104.223C95.8043 106.511 95.0208 108.93 94.5048 111.478C93.987 114.028 93.6851 116.556 93.5956 119.062C93.5369 121.052 93.5078 123.115 93.5078 125.253C93.5078 127.39 93.5369 129.373 93.5956 131.203C93.6851 133.607 93.987 135.786 94.5048 137.737C95.0208 139.69 95.8043 141.206 96.8523 142.282C97.2194 142.659 97.6191 142.974 98.0521 143.229C98.8587 143.703 102.488 145.796 102.955 146.059C103.74 146.503 104.634 146.749 105.635 146.799C107.231 146.878 109.135 146.279 111.35 145C113.565 143.721 115.471 142.12 117.066 140.2C118.66 138.28 119.982 136.175 121.03 133.886C122.078 131.601 122.861 129.181 123.378 126.632C123.894 124.083 124.197 121.554 124.286 119.048C124.345 117.151 124.375 115.132 124.375 112.995C124.375 110.858 124.345 108.829 124.286 106.907Z" fill="#4C84FC"/>
<path d="M99.4755 144.056C98.8445 143.691 98.3059 143.38 98.0509 143.232C97.8226 143.097 97.6043 142.945 97.3949 142.776C97.6049 142.944 97.8238 143.095 98.0521 143.229C98.3071 143.379 98.8451 143.691 99.4755 144.056ZM96.8801 142.31C96.8707 142.301 96.8617 142.292 96.8529 142.283C96.7965 142.224 96.7408 142.165 96.6856 142.104C96.7402 142.165 96.7959 142.224 96.8523 142.282C96.8617 142.291 96.8707 142.301 96.8801 142.31ZM95.7236 140.783C95.2207 139.926 94.8144 138.912 94.5042 137.739C94.3488 137.152 94.213 136.543 94.0962 135.914C94.213 136.542 94.3494 137.15 94.5048 137.737C94.815 138.911 95.2213 139.926 95.7236 140.783ZM93.5078 125.419C93.5078 125.365 93.5078 125.31 93.5078 125.255C93.5078 125.255 93.5078 125.254 93.5078 125.254C93.5078 125.309 93.5078 125.364 93.5078 125.419ZM94.1561 113.393C94.2587 112.756 94.3749 112.117 94.5042 111.478C94.7005 110.501 94.9372 109.546 95.2141 108.61C94.9389 109.547 94.7023 110.503 94.5048 111.478C94.3749 112.118 94.2587 112.756 94.1561 113.393Z" fill="#B4B6B4"/>
<path d="M102.825 145.983C102.296 145.681 100.708 144.767 99.4755 144.056C98.8451 143.691 98.3071 143.379 98.0521 143.229C97.8238 143.095 97.6049 142.943 97.3949 142.775C97.217 142.632 97.0456 142.476 96.8801 142.31C96.8707 142.3 96.8617 142.291 96.8523 142.282C96.7959 142.224 96.7402 142.165 96.6856 142.104C96.3333 141.716 96.0124 141.275 95.7236 140.783C95.2213 139.926 94.815 138.911 94.5048 137.737C94.3494 137.15 94.213 136.542 94.0962 135.914C93.8251 134.453 93.6591 132.882 93.5968 131.203C93.5392 129.418 93.509 127.491 93.5078 125.419C93.5078 125.364 93.5078 125.309 93.5078 125.254C93.5078 123.113 93.5375 121.049 93.5968 119.063C93.6632 117.183 93.85 115.294 94.1561 113.393C94.2587 112.756 94.3749 112.118 94.5048 111.478C94.7023 110.503 94.9389 109.547 95.2141 108.61C95.4472 107.823 95.7088 107.049 95.9988 106.288L100.809 109.075C100.18 110.736 99.6878 112.468 99.3261 114.259C98.8041 116.809 98.5017 119.336 98.4127 121.845C98.3534 123.831 98.3237 125.895 98.3237 128.036C98.3237 130.172 98.3534 132.153 98.4127 133.985C98.5017 136.387 98.8041 138.569 99.3261 140.521C99.8361 142.472 100.625 143.99 101.669 145.064C102.019 145.425 102.41 145.734 102.825 145.983Z" fill="#4C84FC"/>
<path d="M99.7402 99.292C100.084 98.8211 100.442 98.3591 100.814 97.9071C101.426 97.1723 102.084 96.4843 102.788 95.842C102.085 96.4843 101.428 97.1741 100.817 97.9101C100.443 98.3608 100.084 98.8211 99.7402 99.292ZM106.16 93.329C106.283 93.2549 106.407 93.1814 106.532 93.109C107.603 92.4886 108.604 92.0296 109.532 91.7301C108.605 92.0308 107.605 92.4904 106.532 93.1096C106.407 93.1819 106.283 93.2549 106.16 93.329ZM116.544 92.9838C115.789 92.5491 115.163 92.1879 114.995 92.0901C114.578 91.8475 114.13 91.6607 113.652 91.5302C114.131 91.6601 114.579 91.8457 114.995 92.0889C115.164 92.1879 115.79 92.5491 116.544 92.9838Z" fill="#E8E9E6"/>
<path d="M100.816 109.075H100.81L96 106.288C96.1127 105.985 96.2313 105.683 96.3559 105.386C96.516 104.994 96.6761 104.609 96.854 104.224C97.6577 102.471 98.6209 100.83 99.7418 99.2916C100.086 98.8207 100.445 98.3605 100.818 97.9097C101.43 97.1737 102.087 96.4839 102.79 95.8416C103.818 94.9045 104.942 94.0665 106.162 93.3287C106.285 93.2545 106.409 93.1816 106.533 93.1092C107.606 92.49 108.606 92.0304 109.534 91.7297C110.412 91.4462 111.225 91.305 111.972 91.305C112.066 91.305 112.159 91.3074 112.251 91.3122C112.744 91.3377 113.212 91.4094 113.654 91.5298C114.132 91.6603 114.58 91.8471 114.996 92.0897C115.165 92.1876 115.791 92.5488 116.545 92.9835C117.643 93.6163 119.011 94.4063 119.641 94.7758C118.882 94.3719 118.022 94.1465 117.067 94.0938C116.975 94.089 116.883 94.0867 116.79 94.0867C115.252 94.0867 113.441 94.688 111.349 95.8902C109.137 97.1713 107.233 98.7727 105.638 100.694C104.042 102.616 102.72 104.715 101.67 107.005C101.51 107.349 101.362 107.699 101.213 108.055C101.077 108.393 100.946 108.731 100.816 109.075Z" fill="#4C84FC"/>
<path d="M109.642 128.061L109.641 128.06C109.842 127.692 110.026 127.307 110.186 126.91C110.456 126.235 110.671 125.53 110.832 124.788C110.673 125.53 110.458 126.238 110.187 126.91C110.027 127.31 109.845 127.693 109.642 128.061ZM111.172 122.417C111.223 121.844 111.256 121.258 111.272 120.659C111.39 116.726 111.39 112.906 111.272 109.199C111.254 108.871 111.232 108.554 111.206 108.247C111.233 108.553 111.255 108.87 111.273 109.198C111.39 112.905 111.39 116.725 111.273 120.657C111.257 121.258 111.224 121.845 111.172 122.417Z" fill="#8F9192"/>
<path d="M114.457 130.842L109.643 128.061C109.845 127.693 110.027 127.31 110.188 126.91C110.458 126.238 110.673 125.53 110.832 124.787C110.891 124.517 110.943 124.242 110.987 123.961C111.064 123.459 111.125 122.944 111.172 122.417C111.224 121.845 111.258 121.258 111.273 120.657C111.39 116.724 111.39 112.905 111.273 109.198C111.255 108.87 111.233 108.553 111.206 108.247C111.168 107.805 111.12 107.386 111.064 106.987C111.064 106.987 111.189 106.898 111.349 106.803C112.126 106.339 112.793 106.128 113.346 106.128C113.422 106.128 113.495 106.131 113.567 106.139C114.154 106.21 114.629 106.495 114.985 106.994C115.34 107.491 115.595 108.173 115.762 109.034C115.922 109.893 116.034 110.878 116.094 111.981C116.206 115.688 116.206 119.508 116.094 123.44C116.064 124.591 115.963 125.693 115.803 126.743C115.643 127.793 115.376 128.771 115.008 129.691C114.848 130.088 114.664 130.473 114.457 130.842Z" fill="#70A1FD"/>
<path d="M106.781 131.146C106.781 131.146 106.781 131.145 106.781 131.144C107.552 130.664 108.217 130.088 108.744 129.412C109.077 128.991 109.379 128.541 109.64 128.061L109.642 128.061C109.378 128.539 109.08 128.989 108.747 129.412C108.214 130.09 107.555 130.664 106.781 131.146Z" fill="#767A7C"/>
<path d="M109.36 134.763C109.283 134.763 109.208 134.759 109.136 134.75C108.543 134.685 108.062 134.406 107.695 133.914C107.327 133.422 107.06 132.745 106.9 131.886C106.852 131.649 106.817 131.401 106.781 131.147C107.555 130.664 108.214 130.09 108.747 129.412C109.08 128.989 109.378 128.539 109.642 128.061L114.456 130.842C114.195 131.323 113.898 131.773 113.566 132.194C112.973 132.947 112.238 133.576 111.348 134.086C110.572 134.539 109.911 134.763 109.36 134.763Z" fill="#4C84FC"/>
<path d="M116.09 123.439C116.208 119.506 116.208 115.687 116.09 111.981C116.031 110.879 115.92 109.896 115.758 109.035C115.596 108.174 115.337 107.494 114.983 106.993C114.629 106.493 114.155 106.208 113.565 106.14C112.974 106.072 112.237 106.294 111.35 106.805C110.465 107.317 109.727 107.947 109.135 108.698C108.545 109.448 108.072 110.279 107.718 111.187C107.364 112.097 107.098 113.08 106.92 114.138C106.743 115.195 106.639 116.301 106.61 117.454C106.462 121.313 106.462 125.134 106.61 128.913C106.639 130.033 106.736 131.022 106.898 131.884C107.059 132.745 107.326 133.422 107.696 133.912C108.065 134.404 108.545 134.685 109.135 134.752C109.727 134.821 110.465 134.599 111.35 134.087C112.237 133.576 112.974 132.945 113.565 132.194C114.155 131.445 114.636 130.611 115.005 129.692C115.374 128.775 115.64 127.791 115.803 126.743C115.964 125.695 116.06 124.593 116.09 123.439ZM111.35 95.8917C113.565 94.613 115.471 94.014 117.066 94.0928C118.66 94.1735 119.982 94.7518 121.03 95.8276C122.078 96.9065 122.861 98.4207 123.378 100.373C123.894 102.325 124.197 104.503 124.286 106.907C124.345 108.829 124.375 110.858 124.375 112.995C124.375 115.132 124.345 117.151 124.286 119.048C124.197 121.554 123.894 124.083 123.378 126.632C122.861 129.181 122.078 131.601 121.03 133.886C119.982 136.175 118.66 138.281 117.066 140.2C115.471 142.12 113.565 143.721 111.35 145C109.135 146.279 107.231 146.878 105.635 146.799C104.041 146.72 102.719 146.141 101.671 145.064C100.623 143.988 99.8391 142.473 99.3232 140.52C98.8054 138.568 98.5035 136.389 98.4139 133.985C98.3552 132.155 98.3262 130.172 98.3262 128.034C98.3262 125.897 98.3552 123.834 98.4139 121.844C98.5035 119.337 98.8054 116.81 99.3232 114.26C99.8391 111.712 100.623 109.293 101.671 107.005C102.719 104.719 104.041 102.614 105.635 100.692C107.231 98.7712 109.135 97.1704 111.35 95.8917Z" fill="#4C84FC"/>
<path d="M158.279 98.0576L158.13 97.9455C157.926 97.8316 153.628 95.3477 153.628 95.3477V74.007C153.628 73.5077 153.509 73.1441 153.274 72.9158L153.131 72.8072C152.926 72.6892 148.366 70.0576 148.32 70.0298C148.114 69.9064 147.878 69.9218 147.613 70.0737L140.924 73.9359C140.54 74.1583 140.237 74.4133 140.015 74.6992C139.794 74.9862 139.551 75.4566 139.285 76.1102L126.038 109.472C125.654 110.467 125.463 111.554 125.463 112.737V119.966C125.463 120.467 125.58 120.831 125.816 121.058L125.967 121.171C126.169 121.285 130.728 123.921 130.778 123.949C130.982 124.068 131.215 124.051 131.477 123.9L140.614 118.624V120.017C140.614 120.518 140.731 120.882 140.968 121.109L141.111 121.218C141.315 121.336 145.878 123.971 145.927 123.999C146.132 124.119 146.365 124.103 146.629 123.951L152.431 120.6C152.756 120.413 153.036 120.069 153.274 119.568C153.509 119.068 153.628 118.569 153.628 118.067V111.111L157.437 108.911C157.762 108.724 158.043 108.381 158.279 107.879C158.515 107.38 158.633 106.88 158.633 106.379V99.15C158.633 98.6495 158.515 98.2865 158.279 98.0576Z" fill="#4C84FC"/>
<path d="M125.644 110.84L125.615 110.824C125.71 110.355 125.835 109.905 126.001 109.472L139.244 76.1106C139.511 75.4582 139.755 74.9837 139.98 74.6984L139.986 74.6931L140.01 74.7067C139.791 74.995 139.549 75.4623 139.285 76.11L126.039 109.471C125.87 109.91 125.738 110.366 125.644 110.84Z" fill="#B4B6B4"/>
<path d="M130.468 113.624L125.652 110.842C125.652 110.843 125.652 110.843 125.651 110.844L125.645 110.84C125.739 110.366 125.871 109.91 126.04 109.471L139.286 76.1098C139.55 75.4621 139.792 74.9948 140.01 74.7065L144.803 77.4745L144.779 77.5575C144.571 77.8476 144.346 78.293 144.103 78.892L130.859 112.253C130.687 112.692 130.557 113.149 130.468 113.624Z" fill="#4C84FC"/>
<path d="M127.986 122.335C127.796 122.225 127.61 122.118 127.432 122.015H127.432C127.61 122.118 127.796 122.225 127.986 122.335Z" fill="#A4A6A5"/>
<path d="M127.431 122.016C126.659 121.571 126.039 121.214 125.965 121.174L125.87 121.098L125.967 121.171C126.039 121.212 126.66 121.57 127.432 122.016H127.431ZM125.653 120.847C125.525 120.628 125.461 120.334 125.461 119.964V112.74C125.461 112.549 125.467 112.36 125.478 112.174C125.468 112.359 125.463 112.547 125.463 112.737V119.966C125.463 120.334 125.526 120.627 125.653 120.847Z" fill="#8F9192"/>
<path d="M130.721 123.914C130.429 123.746 129.146 123.005 127.985 122.335C127.795 122.226 127.609 122.118 127.431 122.016C126.659 121.57 126.039 121.212 125.967 121.171L125.869 121.097L125.816 121.055C125.754 120.995 125.699 120.926 125.653 120.847C125.526 120.627 125.463 120.334 125.463 119.966V112.737C125.463 112.547 125.468 112.359 125.478 112.174C125.506 111.717 125.565 111.275 125.65 110.845L130.466 113.624C130.342 114.223 130.282 114.858 130.282 115.522V122.751C130.282 123.25 130.401 123.612 130.632 123.836L130.721 123.914Z" fill="#70A1FD"/>
<path d="M130.465 113.624L125.648 110.844C125.649 110.843 125.649 110.843 125.649 110.842L130.465 113.624Z" fill="#4C84FC"/>
<path d="M145.656 104.805L141.6 102.461L145.656 92.2548V104.805Z" fill="#70A1FD"/>
<path d="M139.186 108.535L141.599 102.461L145.656 104.805L139.186 108.535Z" fill="#4C84FC"/>
<path d="M141.899 121.673C141.466 121.423 141.162 121.249 141.113 121.222L141.041 121.164L141.112 121.219C141.161 121.247 141.466 121.423 141.899 121.673Z" fill="#8F9192"/>
<path d="M145.869 123.961C145.469 123.732 143.147 122.392 141.899 121.673C141.466 121.422 141.161 121.247 141.112 121.218L141.041 121.164L140.971 121.108C140.734 120.883 140.615 120.515 140.615 120.017V118.623L145.431 115.841V122.798C145.431 123.297 145.55 123.665 145.787 123.89L145.869 123.961Z" fill="#70A1FD"/>
<path d="M153.627 100.196V95.3507C153.627 95.3507 157.547 97.6104 158.075 97.9188C158.002 97.8868 157.926 97.8708 157.846 97.8708C157.719 97.8708 157.583 97.9117 157.441 97.9959L153.627 100.196Z" fill="#4C84FC"/>
<path d="M140.582 74.157C140.688 74.0799 140.801 74.0058 140.922 73.934L147.612 70.073C147.759 69.9882 147.894 69.9467 148.021 69.9467C148.045 69.9467 148.069 69.9478 148.093 69.9514C148.071 69.9484 148.048 69.9473 148.026 69.9473C147.897 69.9473 147.759 69.9894 147.613 70.0736L140.924 73.9358C140.802 74.0064 140.688 74.0799 140.582 74.157Z" fill="#E8E9E6"/>
<path d="M152.55 72.4717C151.924 72.1099 150.903 71.5209 150.021 71.0121V71.0115C150.903 71.5204 151.924 72.1099 152.55 72.4717Z" fill="#FCFDFC"/>
<path d="M150.022 71.0117C149.712 70.8326 149.419 70.6636 149.166 70.5177C149.419 70.663 149.712 70.832 150.022 71.0111V71.0117Z" fill="#E8E9E6"/>
<path d="M144.837 77.4746L140.021 74.693C140.078 74.6201 140.139 74.5495 140.206 74.4813C140.207 74.4801 140.208 74.4789 140.209 74.4777L140.21 74.4771C140.231 74.4564 140.252 74.4356 140.273 74.4148H140.274C140.275 74.4131 140.277 74.4119 140.278 74.4101C140.28 74.4089 140.281 74.4071 140.282 74.4059C140.283 74.4054 140.284 74.4054 140.284 74.4048C140.375 74.3188 140.475 74.2363 140.583 74.1568C140.689 74.0797 140.803 74.0062 140.925 73.9356L147.614 70.0734C147.76 69.9892 147.898 69.9471 148.026 69.9471C148.049 69.9471 148.072 69.9483 148.094 69.9512C148.172 69.9613 148.247 69.988 148.319 70.0313C148.332 70.0378 148.672 70.2329 149.165 70.5176C149.418 70.6635 149.711 70.8326 150.021 71.0117C150.902 71.5205 151.923 72.1095 152.549 72.4713C152.822 72.6285 153.02 72.7429 153.099 72.7892C153.019 72.7477 152.934 72.7275 152.845 72.7275C152.715 72.7275 152.576 72.7702 152.429 72.8544L145.745 76.7154C145.359 76.9408 145.063 77.1899 144.837 77.4746Z" fill="#4C84FC"/>
<path d="M145.653 104.802V92.2531L139.185 108.537L145.653 104.802ZM146.629 123.951C146.303 124.138 146.022 124.119 145.786 123.891C145.55 123.664 145.432 123.3 145.432 122.799V115.842L131.477 123.9C131.152 124.087 130.872 124.068 130.635 123.84C130.399 123.613 130.281 123.249 130.281 122.749V115.519C130.281 114.336 130.473 113.249 130.857 112.253L144.103 78.892C144.369 78.239 144.613 77.7686 144.833 77.481C145.055 77.1951 145.358 76.9401 145.743 76.7177L152.431 72.856C152.756 72.6692 153.036 72.6888 153.274 72.9159C153.509 73.1443 153.628 73.5078 153.628 74.0072V100.198L157.437 97.9984C157.762 97.811 158.043 97.8318 158.279 98.0578C158.515 98.2867 158.633 98.6497 158.633 99.1496V106.379C158.633 106.88 158.515 107.38 158.279 107.879C158.043 108.381 157.762 108.724 157.437 108.911L153.628 111.111V118.068C153.628 118.569 153.509 119.068 153.274 119.569C153.036 120.069 152.756 120.413 152.431 120.6L146.629 123.951Z" fill="#4C84FC"/>
<path d="M99.6007 165.938C99.6748 165.896 99.7383 165.9 99.7923 165.951C99.845 166.002 99.8717 166.085 99.8717 166.199V167.836C99.8717 167.949 99.845 168.063 99.7923 168.176C99.7383 168.289 99.6748 168.367 99.6007 168.409L94.8453 171.156C94.7717 171.198 94.7077 171.193 94.6543 171.141C94.6009 171.09 94.5742 171.009 94.5742 170.895V160.915C94.5742 160.802 94.6009 160.689 94.6543 160.575C94.7077 160.462 94.7717 160.385 94.8453 160.342L99.5206 157.642C99.5942 157.599 99.6576 157.604 99.7116 157.656C99.7656 157.707 99.7923 157.79 99.7923 157.902V159.541C99.7923 159.654 99.7656 159.767 99.7116 159.88C99.6576 159.993 99.5942 160.071 99.5206 160.114L96.4306 161.898V163.566L99.3 161.909C99.3735 161.867 99.437 161.871 99.491 161.923C99.5449 161.975 99.571 162.058 99.571 162.17V163.808C99.571 163.921 99.5449 164.034 99.491 164.147C99.437 164.261 99.3735 164.339 99.3 164.381L96.4306 166.038V167.769L99.6007 165.938Z" fill="#70A1FD"/>
<path d="M103.132 160.237L104.265 159.583C104.546 159.421 104.779 159.204 104.963 158.933C105.147 158.662 105.239 158.31 105.239 157.878C105.239 157.445 105.147 157.199 104.963 157.141C104.779 157.082 104.546 157.134 104.265 157.297L103.132 157.951V160.237ZM104.265 154.902C104.707 154.647 105.102 154.491 105.45 154.434C105.797 154.378 106.093 154.424 106.338 154.571C106.582 154.718 106.769 154.978 106.9 155.35C107.03 155.723 107.095 156.209 107.095 156.806C107.095 157.578 106.991 158.279 106.785 158.909C106.577 159.538 106.283 160.097 105.901 160.585L107.145 163.544L107.175 163.696C107.175 163.788 107.154 163.881 107.11 163.973C107.066 164.065 107.015 164.129 106.955 164.164L105.591 164.951C105.456 165.028 105.361 165.037 105.304 164.977C105.247 164.917 105.202 164.85 105.169 164.777L104.055 162.114L103.132 162.647V165.953C103.132 166.067 103.104 166.18 103.052 166.293C102.998 166.406 102.934 166.484 102.861 166.526L101.546 167.285C101.472 167.328 101.409 167.324 101.356 167.273C101.302 167.221 101.275 167.138 101.275 167.025V157.045C101.275 156.933 101.302 156.819 101.356 156.705C101.409 156.592 101.472 156.514 101.546 156.472L104.265 154.902Z" fill="#70A1FD"/>
<path d="M110.359 156.067L111.492 155.412C111.773 155.25 112.006 155.033 112.19 154.762C112.373 154.491 112.466 154.139 112.466 153.707C112.466 153.274 112.373 153.029 112.19 152.971C112.006 152.911 111.773 152.963 111.492 153.125L110.359 153.78V156.067ZM111.492 150.731C111.934 150.477 112.328 150.321 112.676 150.264C113.024 150.207 113.32 150.253 113.564 150.4C113.808 150.547 113.996 150.808 114.126 151.18C114.256 151.553 114.322 152.038 114.322 152.635C114.322 153.408 114.218 154.109 114.011 154.738C113.804 155.367 113.509 155.927 113.128 156.414L114.372 159.373L114.402 159.525C114.402 159.618 114.38 159.71 114.337 159.802C114.294 159.894 114.241 159.958 114.181 159.992L112.817 160.78C112.683 160.858 112.588 160.866 112.531 160.807C112.474 160.747 112.429 160.68 112.396 160.607L111.282 157.943L110.359 158.476V161.782C110.359 161.895 110.332 162.009 110.278 162.123C110.224 162.236 110.161 162.314 110.088 162.356L108.773 163.115C108.699 163.157 108.637 163.153 108.583 163.102C108.529 163.051 108.502 162.968 108.502 162.854V152.875C108.502 152.762 108.529 152.649 108.583 152.535C108.637 152.421 108.699 152.344 108.773 152.302L111.492 150.731Z" fill="#70A1FD"/>
<path d="M119.9 152.581C119.906 152.392 119.912 152.182 119.92 151.951C119.926 151.721 119.93 151.487 119.93 151.25C119.93 151.014 119.926 150.786 119.92 150.569C119.912 150.352 119.906 150.157 119.9 149.985C119.886 149.735 119.851 149.519 119.794 149.336C119.737 149.152 119.657 149.011 119.553 148.911C119.45 148.811 119.321 148.76 119.167 148.756C119.014 148.752 118.833 148.81 118.625 148.929C118.418 149.049 118.237 149.2 118.083 149.381C117.929 149.563 117.801 149.763 117.697 149.982C117.593 150.203 117.512 150.437 117.457 150.686C117.399 150.935 117.364 151.192 117.351 151.457C117.338 151.64 117.329 151.843 117.326 152.066C117.322 152.29 117.321 152.519 117.321 152.757C117.321 152.993 117.322 153.225 117.326 153.448C117.329 153.674 117.338 153.875 117.351 154.052C117.378 154.553 117.493 154.913 117.697 155.135C117.902 155.357 118.21 155.348 118.625 155.108C119.04 154.869 119.348 154.522 119.549 154.066C119.749 153.61 119.866 153.116 119.9 152.581ZM115.494 152.452C115.514 151.864 115.596 151.273 115.74 150.68C115.884 150.087 116.088 149.527 116.352 148.998C116.617 148.47 116.938 147.985 117.316 147.546C117.693 147.106 118.13 146.744 118.625 146.457C119.114 146.176 119.549 146.035 119.93 146.037C120.311 146.038 120.633 146.151 120.897 146.374C121.162 146.597 121.366 146.922 121.51 147.349C121.653 147.776 121.736 148.272 121.755 148.837C121.769 149.272 121.776 149.732 121.776 150.216C121.776 150.7 121.769 151.157 121.755 151.587C121.736 152.175 121.653 152.765 121.51 153.359C121.366 153.951 121.162 154.514 120.897 155.048C120.633 155.582 120.311 156.066 119.93 156.503C119.549 156.939 119.114 157.299 118.625 157.58C118.13 157.866 117.693 158.01 117.316 158.013C116.938 158.013 116.617 157.901 116.352 157.672C116.088 157.444 115.884 157.116 115.74 156.69C115.596 156.262 115.514 155.767 115.494 155.201C115.481 154.787 115.475 154.338 115.475 153.854C115.475 153.369 115.481 152.903 115.494 152.452Z" fill="#70A1FD"/>
<path d="M125.036 147.591L126.169 146.936C126.451 146.774 126.683 146.557 126.868 146.287C127.051 146.016 127.143 145.664 127.143 145.232C127.143 144.798 127.051 144.553 126.868 144.495C126.683 144.436 126.451 144.488 126.169 144.65L125.036 145.305V147.591ZM126.169 142.256C126.611 142.001 127.006 141.845 127.354 141.788C127.701 141.731 127.997 141.778 128.242 141.925C128.485 142.072 128.673 142.332 128.803 142.704C128.934 143.077 128.999 143.562 128.999 144.16C128.999 144.932 128.895 145.633 128.688 146.263C128.481 146.892 128.186 147.451 127.805 147.939L129.05 150.897L129.079 151.049C129.079 151.142 129.058 151.235 129.014 151.327C128.971 151.418 128.919 151.483 128.859 151.517L127.494 152.305C127.36 152.382 127.265 152.391 127.209 152.33C127.151 152.271 127.106 152.204 127.073 152.131L125.959 149.468L125.036 150.001V153.307C125.036 153.42 125.009 153.534 124.955 153.647C124.902 153.76 124.839 153.838 124.765 153.88L123.45 154.639C123.377 154.682 123.314 154.677 123.26 154.627C123.206 154.575 123.18 154.492 123.18 154.379V144.399C123.18 144.287 123.206 144.173 123.26 144.059C123.314 143.946 123.377 143.868 123.45 143.826L126.169 142.256Z" fill="#70A1FD"/>
<path d="M80.2776 187.577L81.4697 186.889C81.7621 186.721 81.9957 186.498 82.1695 186.22C82.3439 185.942 82.4305 185.582 82.4305 185.139C82.4305 184.698 82.3439 184.442 82.1695 184.373C81.9957 184.304 81.7621 184.354 81.4697 184.523L80.2776 185.211V187.577ZM81.5082 183.021C82.128 182.662 82.6108 182.609 82.9542 182.861C83.297 183.112 83.469 183.671 83.469 184.54C83.469 185.408 83.297 186.171 82.9542 186.827C82.6108 187.482 82.128 187.99 81.5082 188.347L80.2776 189.058V191.698C80.2776 191.785 80.2574 191.871 80.2165 191.958C80.1755 192.045 80.1269 192.104 80.0706 192.137L79.4478 192.496C79.3909 192.53 79.3422 192.526 79.3013 192.486C79.2598 192.447 79.2402 192.384 79.2402 192.297V184.65C79.2402 184.563 79.2598 184.477 79.3013 184.389C79.3422 184.302 79.3909 184.242 79.4478 184.21L81.5082 183.021Z" fill="#DADBD8"/>
<path d="M87.1282 184.973L86.2824 182.087L85.4361 185.949L87.1282 184.973ZM86.7053 180.02C86.7871 179.973 86.8482 179.97 86.8897 180.014C86.9307 180.057 86.9669 180.137 86.9971 180.254L88.8808 186.647L88.8885 186.726C88.8885 186.813 88.8683 186.9 88.8274 186.986C88.7865 187.074 88.7378 187.133 88.6815 187.165L88.1281 187.485C88.0249 187.544 87.9532 187.552 87.9122 187.508C87.8713 187.465 87.8434 187.417 87.828 187.362L87.4971 186.238L85.0672 187.641L84.7368 189.147C84.7208 189.219 84.6935 189.3 84.652 189.391C84.6111 189.482 84.5393 189.557 84.4367 189.616L83.8828 189.936C83.827 189.968 83.7784 189.965 83.7369 189.924C83.6959 189.886 83.6758 189.822 83.6758 189.736L83.6835 189.648L85.5672 181.079C85.598 180.927 85.6336 180.805 85.6751 180.715C85.716 180.625 85.7771 180.555 85.859 180.508L86.7053 180.02Z" fill="#DADBD8"/>
<path d="M89.4803 181.483C89.4903 181.004 89.5467 180.539 89.6499 180.089C89.7525 179.639 89.9008 179.218 90.0959 178.825C90.2904 178.433 90.53 178.078 90.8147 177.759C91.0988 177.44 91.4309 177.172 91.8099 176.953C92.2559 176.696 92.6243 176.573 92.9137 176.582C93.2031 176.593 93.4338 176.673 93.6052 176.822C93.7772 176.971 93.8976 177.159 93.967 177.383C94.0358 177.608 94.0761 177.808 94.0862 177.982C94.0916 178.076 94.072 178.163 94.0287 178.248C93.9848 178.331 93.935 178.39 93.8786 178.423L93.2559 178.782C93.199 178.815 93.1545 178.819 93.1213 178.795L93.0477 178.701C93.0382 178.675 93.0109 178.622 92.9676 178.541C92.9232 178.459 92.8544 178.388 92.7595 178.329C92.6652 178.269 92.5406 178.239 92.387 178.236C92.2328 178.235 92.0406 178.3 91.8099 178.433C91.4262 178.654 91.1184 178.992 90.8877 179.445C90.657 179.898 90.5342 180.397 90.5188 180.943C90.5081 181.249 90.5028 181.574 90.5028 181.916C90.5028 182.259 90.5081 182.579 90.5188 182.872C90.5342 183.518 90.657 183.923 90.8877 184.085C91.1184 184.248 91.4262 184.219 91.8099 183.997C91.9997 183.888 92.1747 183.755 92.333 183.6C92.492 183.445 92.629 183.264 92.7446 183.055C92.8597 182.846 92.9493 182.607 93.0133 182.338C93.0774 182.068 93.11 181.763 93.11 181.424V181.329L92.1717 181.87C92.1148 181.903 92.0661 181.9 92.0252 181.861C91.9837 181.821 91.9641 181.758 91.9641 181.671V180.83C91.9641 180.744 91.9837 180.657 92.0252 180.57C92.0661 180.483 92.1148 180.424 92.1717 180.391L93.9397 179.37C93.9967 179.338 94.0453 179.341 94.0862 179.38C94.1271 179.42 94.1479 179.483 94.1479 179.57V180.872C94.1479 181.345 94.0993 181.81 94.002 182.264C93.9047 182.719 93.7582 183.147 93.5637 183.547C93.3686 183.948 93.1248 184.313 92.833 184.643C92.5406 184.975 92.2002 185.251 91.8099 185.476C91.4203 185.702 91.0822 185.818 90.7957 185.826C90.5081 185.834 90.2697 185.751 90.0805 185.576C89.8907 185.401 89.7454 185.144 89.6457 184.802C89.5461 184.461 89.4903 184.057 89.4803 183.591C89.4755 183.443 89.4714 183.28 89.4684 183.099C89.466 182.92 89.4648 182.735 89.4648 182.546C89.4648 182.355 89.466 182.17 89.4684 181.987C89.4714 181.804 89.4755 181.636 89.4803 181.483Z" fill="#DADBD8"/>
<path d="M98.8934 179.789C98.9498 179.757 98.9984 179.761 99.0393 179.8C99.0802 179.84 99.1016 179.903 99.1016 179.99V180.829C99.1016 180.917 99.0802 181.004 99.0393 181.09C98.9984 181.178 98.9498 181.237 98.8934 181.27L95.5187 183.218C95.4618 183.25 95.4131 183.247 95.3716 183.208C95.3307 183.169 95.3105 183.105 95.3105 183.019V175.371C95.3105 175.285 95.3307 175.198 95.3716 175.111C95.4131 175.024 95.4618 174.965 95.5187 174.932L98.8317 173.018C98.8887 172.986 98.9373 172.989 98.9788 173.028C99.0192 173.068 99.0393 173.132 99.0393 173.218V174.059C99.0393 174.146 99.0192 174.232 98.9788 174.319C98.9373 174.406 98.8887 174.466 98.8317 174.498L96.3485 175.932V177.814L98.6627 176.477C98.719 176.445 98.7677 176.449 98.8086 176.489C98.8501 176.528 98.8709 176.591 98.8709 176.678V177.518C98.8709 177.606 98.8501 177.692 98.8086 177.779C98.7677 177.866 98.719 177.926 98.6627 177.958L96.3485 179.293V181.259L98.8934 179.789Z" fill="#DADBD8"/>
<path d="M105.682 177.35C105.595 177.4 105.528 177.403 105.482 177.359L105.382 177.251L103.229 173.569V178.447C103.229 178.533 103.209 178.621 103.168 178.706C103.128 178.794 103.079 178.853 103.022 178.886L102.4 179.245C102.343 179.278 102.294 179.275 102.253 179.235C102.212 179.196 102.191 179.133 102.191 179.046V171.398C102.191 171.311 102.212 171.226 102.253 171.137C102.294 171.051 102.343 170.991 102.4 170.959L102.938 170.648C103.025 170.598 103.091 170.595 103.137 170.64L103.237 170.747L105.391 174.428V169.552C105.391 169.465 105.411 169.379 105.452 169.291C105.493 169.204 105.542 169.145 105.598 169.112L106.22 168.752C106.277 168.72 106.325 168.723 106.367 168.763C106.408 168.803 106.428 168.866 106.428 168.953V176.599C106.428 176.686 106.408 176.773 106.367 176.86C106.325 176.947 106.277 177.007 106.22 177.04L105.682 177.35Z" fill="#DADBD8"/>
<path d="M111.117 169.074C111.097 168.517 110.977 168.146 110.76 167.96C110.542 167.774 110.254 167.784 109.895 167.991C109.535 168.198 109.248 168.521 109.03 168.959C108.812 169.396 108.693 169.905 108.672 170.485C108.662 170.791 108.657 171.127 108.657 171.494C108.657 171.861 108.662 172.192 108.672 172.486C108.693 173.042 108.812 173.411 109.03 173.593C109.248 173.776 109.535 173.763 109.895 173.556C110.254 173.349 110.542 173.028 110.76 172.594C110.977 172.161 111.097 171.654 111.117 171.074C111.127 170.768 111.133 170.432 111.133 170.065C111.133 169.698 111.127 169.368 111.117 169.074ZM107.634 171.025C107.649 170.574 107.705 170.127 107.799 169.681C107.894 169.236 108.034 168.816 108.219 168.421C108.403 168.026 108.634 167.665 108.911 167.335C109.187 167.006 109.515 166.731 109.895 166.512C110.269 166.296 110.594 166.191 110.871 166.197C111.148 166.203 111.379 166.299 111.563 166.484C111.748 166.669 111.889 166.927 111.986 167.258C112.083 167.589 112.14 167.974 112.155 168.415C112.16 168.563 112.164 168.726 112.167 168.906C112.169 169.086 112.171 169.272 112.171 169.466C112.171 169.659 112.169 169.847 112.167 170.03C112.164 170.213 112.16 170.381 112.155 170.534C112.14 170.985 112.085 171.433 111.99 171.878C111.895 172.324 111.755 172.744 111.571 173.138C111.386 173.533 111.155 173.894 110.875 174.221C110.595 174.547 110.269 174.819 109.895 175.036C109.515 175.254 109.187 175.361 108.911 175.355C108.634 175.349 108.403 175.256 108.219 175.074C108.034 174.893 107.894 174.634 107.799 174.298C107.705 173.962 107.649 173.578 107.634 173.144C107.629 172.998 107.626 172.834 107.623 172.654C107.62 172.473 107.619 172.288 107.619 172.094C107.619 171.901 107.62 171.712 107.623 171.529C107.626 171.346 107.629 171.178 107.634 171.025Z" fill="#DADBD8"/>
<path d="M116.838 162.622C116.894 162.59 116.943 162.593 116.984 162.633C117.025 162.672 117.046 162.735 117.046 162.822V163.663C117.046 163.749 117.025 163.836 116.984 163.923C116.943 164.01 116.894 164.07 116.838 164.102L115.455 164.901V171.388C115.455 171.475 115.434 171.562 115.392 171.649C115.351 171.736 115.303 171.796 115.246 171.828L114.624 172.187C114.568 172.22 114.519 172.217 114.478 172.177C114.437 172.138 114.416 172.075 114.416 171.988V165.501L113.032 166.3C112.976 166.332 112.927 166.328 112.886 166.289C112.845 166.249 112.824 166.187 112.824 166.1V165.259C112.824 165.173 112.845 165.086 112.886 164.998C112.927 164.911 112.976 164.852 113.032 164.82L116.838 162.622Z" fill="#DADBD8"/>
<path d="M123.25 158.92C123.306 158.888 123.355 158.89 123.396 158.93C123.438 158.97 123.458 159.032 123.458 159.119V159.96C123.458 160.047 123.438 160.134 123.396 160.22C123.355 160.307 123.306 160.367 123.25 160.399L120.798 161.816V164.112L123.096 162.785C123.153 162.752 123.201 162.756 123.243 162.795C123.284 162.835 123.304 162.898 123.304 162.985V163.825C123.304 163.912 123.284 163.998 123.243 164.085C123.201 164.172 123.153 164.232 123.096 164.265L120.798 165.592V168.303C120.798 168.39 120.777 168.477 120.736 168.563C120.696 168.65 120.647 168.71 120.59 168.742L119.967 169.102C119.91 169.134 119.862 169.131 119.821 169.091C119.78 169.053 119.76 168.988 119.76 168.902V161.255C119.76 161.168 119.78 161.081 119.821 160.994C119.862 160.907 119.91 160.848 119.967 160.815L123.25 158.92Z" fill="#DADBD8"/>
<path d="M127.78 159.454C127.759 158.897 127.64 158.527 127.422 158.341C127.204 158.155 126.916 158.165 126.557 158.372C126.198 158.58 125.91 158.902 125.692 159.34C125.474 159.777 125.355 160.286 125.335 160.866C125.324 161.172 125.32 161.508 125.32 161.875C125.32 162.241 125.324 162.573 125.335 162.867C125.355 163.423 125.474 163.792 125.692 163.974C125.91 164.156 126.198 164.143 126.557 163.936C126.916 163.729 127.204 163.409 127.422 162.975C127.64 162.541 127.759 162.035 127.78 161.455C127.79 161.149 127.795 160.812 127.795 160.446C127.795 160.079 127.79 159.748 127.78 159.454ZM124.297 161.405C124.311 160.955 124.367 160.507 124.462 160.061C124.556 159.617 124.696 159.196 124.881 158.801C125.066 158.407 125.296 158.044 125.572 157.716C125.849 157.386 126.178 157.111 126.557 156.892C126.931 156.677 127.256 156.571 127.533 156.578C127.811 156.584 128.041 156.679 128.226 156.864C128.41 157.05 128.552 157.308 128.649 157.639C128.746 157.969 128.803 158.355 128.818 158.795C128.823 158.942 128.827 159.105 128.829 159.286C128.831 159.466 128.833 159.653 128.833 159.846C128.833 160.04 128.831 160.228 128.829 160.411C128.827 160.594 128.823 160.762 128.818 160.915C128.803 161.366 128.747 161.814 128.653 162.259C128.557 162.705 128.417 163.125 128.234 163.519C128.049 163.914 127.817 164.274 127.537 164.601C127.258 164.928 126.931 165.2 126.557 165.415C126.178 165.635 125.849 165.742 125.572 165.736C125.296 165.729 125.066 165.635 124.881 165.454C124.696 165.273 124.556 165.014 124.462 164.679C124.367 164.342 124.311 163.958 124.297 163.525C124.291 163.377 124.287 163.214 124.285 163.033C124.282 162.854 124.281 162.668 124.281 162.474C124.281 162.281 124.282 162.092 124.285 161.91C124.287 161.726 124.291 161.559 124.297 161.405Z" fill="#DADBD8"/>
<path d="M134.185 152.607C134.241 152.575 134.29 152.578 134.331 152.617C134.372 152.657 134.393 152.721 134.393 152.807V157.661C134.393 158.15 134.347 158.619 134.254 159.066C134.162 159.515 134.024 159.934 133.838 160.324C133.655 160.714 133.423 161.067 133.146 161.38C132.87 161.695 132.55 161.956 132.186 162.166C131.817 162.379 131.495 162.488 131.221 162.492C130.947 162.497 130.717 162.411 130.533 162.233C130.348 162.056 130.211 161.795 130.121 161.452C130.031 161.11 129.986 160.694 129.986 160.205V155.351C129.986 155.264 130.007 155.177 130.049 155.09C130.089 155.004 130.138 154.944 130.195 154.911L130.817 154.552C130.873 154.52 130.922 154.523 130.963 154.562C131.004 154.602 131.024 154.665 131.024 154.751V159.546C131.024 159.869 131.053 160.13 131.11 160.325C131.165 160.522 131.245 160.663 131.347 160.751C131.45 160.837 131.573 160.873 131.716 160.857C131.86 160.841 132.016 160.784 132.186 160.687C132.355 160.589 132.513 160.464 132.659 160.313C132.805 160.162 132.929 159.984 133.031 159.778C133.134 159.573 133.215 159.338 133.273 159.076C133.333 158.813 133.362 158.52 133.362 158.196V153.402C133.362 153.316 133.382 153.229 133.423 153.141C133.464 153.054 133.513 152.995 133.569 152.963L134.185 152.607Z" fill="#DADBD8"/>
<path d="M139.237 157.977C139.149 158.028 139.083 158.031 139.037 157.986L138.937 157.878L136.784 154.196V159.074C136.784 159.161 136.763 159.248 136.722 159.334C136.681 159.422 136.633 159.481 136.576 159.513L135.954 159.872C135.897 159.905 135.849 159.903 135.808 159.862C135.766 159.824 135.746 159.76 135.746 159.673V152.026C135.746 151.938 135.766 151.853 135.808 151.765C135.849 151.678 135.897 151.619 135.954 151.587L136.492 151.275C136.579 151.225 136.646 151.222 136.692 151.267L136.792 151.374L138.945 155.056V150.179C138.945 150.092 138.965 150.006 139.006 149.918C139.047 149.832 139.096 149.772 139.152 149.74L139.775 149.38C139.831 149.347 139.88 149.351 139.921 149.39C139.962 149.43 139.983 149.493 139.983 149.58V157.226C139.983 157.314 139.962 157.401 139.921 157.487C139.88 157.575 139.831 157.635 139.775 157.667L139.237 157.977Z" fill="#DADBD8"/>
<path d="M144.741 149.779C144.731 149.533 144.699 149.317 144.645 149.13C144.591 148.944 144.511 148.801 144.407 148.7C144.301 148.599 144.169 148.549 144.011 148.55C143.852 148.55 143.662 148.615 143.441 148.743L142.411 149.337V154.664L143.48 154.047C143.69 153.926 143.872 153.776 144.025 153.596C144.18 153.417 144.308 153.219 144.41 153C144.512 152.784 144.591 152.55 144.645 152.298C144.699 152.046 144.731 151.79 144.741 151.532C144.761 150.936 144.761 150.352 144.741 149.779ZM143.48 147.24C143.859 147.021 144.188 146.908 144.468 146.9C144.747 146.893 144.98 146.978 145.168 147.154C145.354 147.33 145.498 147.59 145.598 147.935C145.698 148.28 145.758 148.695 145.779 149.18C145.799 149.753 145.799 150.336 145.779 150.932C145.758 151.441 145.698 151.926 145.598 152.386C145.498 152.847 145.356 153.271 145.171 153.662C144.987 154.054 144.757 154.405 144.483 154.716C144.209 155.029 143.887 155.292 143.518 155.505L141.581 156.623C141.524 156.656 141.476 156.653 141.435 156.612C141.393 156.574 141.373 156.51 141.373 156.424V148.776C141.373 148.689 141.393 148.603 141.435 148.515C141.476 148.428 141.524 148.37 141.581 148.337L143.48 147.24Z" fill="#DADBD8"/>
</svg>
