<svg width="16" height="16" viewBox="0 0 16 16" fill="none" xmlns="http://www.w3.org/2000/svg">
<g clip-path="url(#clip0_8268_72066)">
<path d="M13.9905 5.41917C13.5005 5.51177 12.9964 5.49826 12.5121 5.37956C12.0278 5.26087 11.5746 5.03974 11.183 4.73108C10.7871 4.42774 10.4598 4.04409 10.2226 3.6053C9.98543 3.16652 9.84374 2.68254 9.80684 2.18512L10.1647 1.70345H5.05898C4.52171 1.70434 3.98992 1.81151 3.49424 2.01877C2.99855 2.22604 2.54877 2.52932 2.17079 2.91114C1.7928 3.29296 1.49408 3.74579 1.29183 4.24354C1.08958 4.74129 0.987794 5.27413 0.992333 5.81139V11.2405C0.990523 11.7763 1.09427 12.3073 1.29766 12.803C1.50105 13.2988 1.8001 13.7496 2.17772 14.1298C2.55534 14.51 3.00415 14.812 3.49852 15.0188C3.99289 15.2255 4.52313 15.3328 5.05898 15.3346H10.7495C11.8281 15.3255 12.8593 14.8898 13.6175 14.1225C14.3757 13.3553 14.7992 12.3191 14.7955 11.2405V5.81139C14.7951 5.40567 14.7348 5.00224 14.6166 4.6141L13.9905 5.41917ZM10.4743 10.0638C10.2755 10.334 9.99214 10.5302 9.66922 10.6212L7.55677 11.2611C7.39638 11.3086 7.22819 11.3241 7.06182 11.3066C6.89545 11.2891 6.73417 11.239 6.58718 11.1591C6.4402 11.0792 6.3104 10.9711 6.20522 10.841C6.10003 10.711 6.02151 10.5614 5.97415 10.401C5.94711 10.2906 5.93326 10.1774 5.93286 10.0638V7.80687C5.93997 7.46986 6.05047 7.14318 6.24939 6.87105L8.7747 3.51315C9.09498 4.40013 9.66343 5.17638 10.4124 5.74946C11.162 6.31505 12.0568 6.65627 12.9927 6.73344L10.4743 10.0638ZM14.6029 4.55905H14.6579C14.9314 4.19511 15.0501 3.73793 14.9882 3.28694C14.9264 2.83594 14.689 2.4276 14.3276 2.15072L12.8138 1.01536C12.6356 0.879649 12.4323 0.780512 12.2156 0.723645C11.999 0.666779 11.7732 0.653305 11.5513 0.684C11.3294 0.714694 11.1158 0.788951 10.9227 0.9025C10.7296 1.01605 10.5608 1.16665 10.4261 1.34564L10.1234 1.7241H10.7495C11.6212 1.72444 12.4695 2.00579 13.1686 2.52639C13.8677 3.04699 14.3803 3.77911 14.6304 4.6141L14.6029 4.55905Z" fill="#1255FB"/>
</g>
<defs>
<clipPath id="clip0_8268_72066">
<rect width="16" height="16" fill="white"/>
</clipPath>
</defs>
</svg>
