<svg width="48" height="49" viewBox="0 0 48 49" fill="none" xmlns="http://www.w3.org/2000/svg">
<path d="M33.5446 8.10938H14.4316C12.6701 8.10912 10.9791 8.80089 9.72285 10.0356C8.46661 11.2703 7.74574 12.9492 7.71558 14.7104V33.8234C7.71558 35.6046 8.42315 37.3128 9.68265 38.5723C10.9421 39.8318 12.6504 40.5394 14.4316 40.5394H33.5446C35.3258 40.5394 37.034 39.8318 38.2935 38.5723C39.553 37.3128 40.2606 35.6046 40.2606 33.8234V14.7104C40.2304 12.9492 39.5095 11.2703 38.2533 10.0356C36.9971 8.80089 35.306 8.10912 33.5446 8.10938ZM32.0726 29.1774C32.0426 30.0742 31.662 30.9235 31.0126 31.5428C30.3632 32.162 29.4968 32.5019 28.5996 32.4894H18.9166C18.0077 32.4894 17.136 32.1283 16.4933 31.4856C15.8506 30.8429 15.4896 29.9713 15.4896 29.0624V19.3334C15.4896 18.4245 15.8506 17.5528 16.4933 16.9101C17.136 16.2674 18.0077 15.9064 18.9166 15.9064H28.5996C29.5085 15.9064 30.3801 16.2674 31.0228 16.9101C31.6655 17.5528 32.0266 18.4245 32.0266 19.3334L32.0726 29.1774Z" fill="white"/>
<path d="M21.0333 35.9004V45.4453C21.0273 45.9171 20.8359 46.3678 20.5001 46.6992C20.1643 47.0307 19.7112 47.2158 19.2394 47.2158C18.7697 47.2158 18.3195 47.0294 17.9874 46.6973C17.6553 46.3652 17.4679 45.915 17.4679 45.4453V35.9004H21.0333ZM30.5079 45.4453C30.5079 45.9149 30.3214 46.3652 29.9894 46.6973C29.6573 47.0293 29.207 47.2157 28.7374 47.2158C28.2677 47.2158 27.8166 47.0294 27.4845 46.6973C27.1526 46.3652 26.966 45.9148 26.9659 45.4453V35.9004H30.5079V45.4453ZM13.2355 30.7178H2.77063C2.30093 30.7178 1.84983 30.5304 1.5177 30.1982C1.18584 29.8662 0.999146 29.4158 0.999146 28.9463C0.999163 28.4768 1.18581 28.0264 1.5177 27.6943C1.84983 27.3622 2.30093 27.1758 2.77063 27.1758H13.2355V30.7178ZM45.2286 27.1758C45.6983 27.1758 46.1485 27.3623 46.4806 27.6943C46.8127 28.0264 47.0001 28.4766 47.0001 28.9463C47.0001 29.416 46.8127 29.8661 46.4806 30.1982C46.1485 30.5304 45.6983 30.7178 45.2286 30.7178H35.3615V27.1758H45.2286ZM13.2355 21.2441H2.77063C2.29887 21.2381 1.8482 21.0467 1.51672 20.7109C1.18524 20.3752 0.999107 19.922 0.999146 19.4502C0.999166 18.9807 1.18581 18.5303 1.5177 18.1982C1.84983 17.8661 2.30093 17.6797 2.77063 17.6797H13.2355V21.2441ZM45.2286 17.6797C45.6983 17.6797 46.1485 17.8662 46.4806 18.1982C46.8127 18.5304 47.0001 18.9805 47.0001 19.4502C47.0002 19.922 46.814 20.3752 46.4825 20.7109C46.1511 21.0467 45.7004 21.2381 45.2286 21.2441H35.3615V17.6797H45.2286ZM19.2394 1.21484C19.7112 1.2148 20.1643 1.4 20.5001 1.73145C20.8359 2.06291 21.0273 2.51358 21.0333 2.98535V12.7148H17.4689V3.00879C17.4658 2.77429 17.5092 2.54077 17.5968 2.32324C17.6844 2.10594 17.8141 1.90797 17.9786 1.74121C18.1434 1.57431 18.3404 1.442 18.5568 1.35156C18.773 1.26121 19.005 1.21484 19.2394 1.21484ZM28.7374 1.21484C29.207 1.21491 29.6573 1.40133 29.9894 1.7334C30.3214 2.0655 30.5079 2.51573 30.5079 2.98535V12.7148H26.9659V2.98535C26.966 2.51583 27.1526 2.06548 27.4845 1.7334C27.8166 1.40127 28.2677 1.21484 28.7374 1.21484Z" fill="white"/>
</svg>
