<svg width="242" height="220" viewBox="0 0 242 220" fill="none" xmlns="http://www.w3.org/2000/svg">
<path d="M176.203 66.7975C176.203 77.5158 172.966 87.9935 166.9 96.9054C160.834 105.817 152.213 112.763 142.125 116.865C132.038 120.967 120.939 122.04 110.23 119.949C99.5219 117.858 89.6856 112.697 81.9652 105.118C74.2449 97.5386 68.9873 87.8824 66.8572 77.37C64.7272 66.8576 65.8204 55.9612 69.9986 46.0587C74.1769 36.1562 81.2524 27.6925 90.3306 21.7377C99.4088 15.7829 110.082 12.6045 121 12.6045C135.641 12.6045 149.682 18.3141 160.035 28.4772C170.387 38.6404 176.203 52.4246 176.203 66.7975ZM206.013 229.376C207.818 229.477 209.624 229.194 211.308 228.548C212.991 227.903 214.514 226.908 215.771 225.633C217.028 224.358 217.99 222.831 218.593 221.158C219.195 219.485 219.424 217.704 219.262 215.936C212.196 175.183 170.904 143.86 121 143.86C71.0961 143.86 29.8039 175.183 22.7378 215.936C22.5763 217.704 22.8046 219.485 23.4071 221.158C24.0096 222.831 24.9721 224.358 26.2293 225.633C27.4864 226.908 29.0086 227.903 30.6924 228.548C32.3761 229.194 34.1818 229.477 35.9867 229.376H206.013Z" fill="#C1C1C1"/>
</svg>
