<svg width="37" height="43" viewBox="0 0 37 43" fill="none" xmlns="http://www.w3.org/2000/svg">
<path d="M7.9657 10.9726C7.9657 19.0824 16.7449 24.1511 23.7682 20.0962C27.0277 18.2143 29.0357 14.7364 29.0357 10.9726C29.0357 2.86274 20.2565 -2.20591 13.2332 1.84902C9.97366 3.73091 7.9657 7.20879 7.9657 10.9726ZM15.7435 27.45L17.2744 30.0014L14.5336 40.199L11.5706 28.1084C11.406 27.4418 10.7641 27.0055 10.0974 27.1784C4.33606 28.6187 0.0644531 33.8368 0.0644531 40.0508C0.0644531 41.45 1.20026 42.5776 2.5912 42.5776H34.4102C35.8094 42.5776 36.937 41.4418 36.937 40.0508C36.937 33.8368 32.6653 28.6187 26.904 27.1784C26.2373 27.0138 25.5954 27.45 25.4308 28.1084L22.4678 40.199L19.727 30.0014L21.2579 27.45C21.7847 26.5693 21.1509 25.4582 20.1303 25.4582H16.8793C15.8587 25.4582 15.225 26.5776 15.7517 27.45H15.7435Z" fill="#1255FB"/>
</svg>
