<svg width="18" height="18" viewBox="0 0 18 18" fill="none" xmlns="http://www.w3.org/2000/svg">
<g clip-path="url(#clip0_8943_23158)">
<path opacity="0.1" d="M16.9509 12.1295C16.9588 13.3877 16.4675 14.5977 15.5848 15.4943C14.702 16.3909 13.4998 16.901 12.2416 16.9127H5.7211C4.46292 16.901 3.2607 16.3909 2.37795 15.4943C1.4952 14.5977 1.00393 13.3877 1.01181 12.1295V5.80116C1.00393 4.54295 1.4952 3.33293 2.37795 2.43633C3.2607 1.53972 4.46292 1.02966 5.7211 1.01794H10.4599C10.5115 1.01095 10.5637 1.01095 10.6152 1.01794H10.6596C10.7203 1.04092 10.7757 1.07615 10.8222 1.12144L16.7365 7.13188C16.8036 7.2011 16.8518 7.28642 16.8764 7.37964C16.901 7.47286 16.9012 7.57085 16.877 7.66417C16.8812 7.70101 16.8812 7.73822 16.877 7.77506L16.9509 12.1295Z" fill="#1255FB"/>
<path d="M9.1795 10.7625C9.13146 10.8186 9.07282 10.8647 9.00693 10.8981C8.94104 10.9315 8.8692 10.9515 8.79554 10.9571C8.72188 10.9627 8.64784 10.9536 8.57768 10.9305C8.50753 10.9074 8.44263 10.8706 8.38672 10.8223L7.19007 9.78273V13.597C7.19007 13.7458 7.13097 13.8885 7.02578 13.9937C6.92059 14.0989 6.77791 14.158 6.62914 14.158C6.48038 14.158 6.3377 14.0989 6.23251 13.9937C6.12731 13.8885 6.06822 13.7458 6.06822 13.597V9.74533L4.68459 10.8373C4.5873 10.9159 4.46565 10.9582 4.34056 10.9569C4.25536 10.9567 4.17135 10.937 4.0949 10.8994C4.01844 10.8618 3.95155 10.8073 3.89929 10.74C3.80671 10.6214 3.76427 10.4712 3.78104 10.3216C3.79782 10.1721 3.87248 10.035 3.98904 9.93979L6.27763 8.09994C6.30245 8.08065 6.33024 8.06549 6.3599 8.05507L6.42721 8.01767C6.48184 8.01071 6.53712 8.01071 6.59175 8.01767H6.62914C6.69903 8.0167 6.76818 8.03207 6.83108 8.06255L6.89839 8.09994C6.93073 8.11285 6.96098 8.13049 6.98814 8.1523L9.11966 9.99962C9.21989 10.0982 9.28114 10.2297 9.29213 10.3699C9.30313 10.51 9.26313 10.6495 9.1795 10.7625ZM17.0624 12.1985C17.0704 13.4713 16.5734 14.6954 15.6803 15.6025C14.7873 16.5095 13.5711 17.0255 12.2983 17.0374H5.70174C4.42891 17.0255 3.21269 16.5095 2.31965 15.6025C1.42662 14.6954 0.929621 13.4713 0.937594 12.1985V5.7964C0.929621 4.52353 1.42662 3.29942 2.31965 2.39237C3.21269 1.48531 4.42891 0.969311 5.70174 0.957458H10.4958C10.5479 0.950378 10.6008 0.950378 10.6529 0.957458H10.6977C10.7592 0.980699 10.8152 1.01634 10.8623 1.06216L16.8455 7.14262C16.9134 7.21265 16.9621 7.29897 16.987 7.39327C17.0119 7.48758 17.0121 7.58671 16.9876 7.68112C16.9919 7.71839 16.9919 7.75603 16.9876 7.7933L17.0624 12.1985ZM11.0792 5.1158C11.0772 5.62103 11.2749 6.10657 11.6294 6.46661C11.9838 6.82665 12.4662 7.032 12.9714 7.03792H15.1478L11.0567 2.90201L11.0792 5.1158ZM15.963 12.1985V8.17473H12.9714C12.1706 8.16097 11.4075 7.83215 10.8475 7.25955C10.2875 6.68695 9.9757 5.91671 9.97975 5.1158V2.12419H5.70174C4.73301 2.13208 3.80663 2.52245 3.12442 3.21027C2.4422 3.89809 2.05942 4.82763 2.05945 5.7964V12.1985C2.05551 12.6807 2.14659 13.159 2.3275 13.606C2.50841 14.0531 2.7756 14.4601 3.11383 14.8039C3.45205 15.1477 3.85467 15.4215 4.29871 15.6096C4.74274 15.7978 5.2195 15.8967 5.70174 15.9006H12.2983C12.7805 15.8967 13.2573 15.7978 13.7013 15.6096C14.1453 15.4215 14.548 15.1477 14.8862 14.8039C15.2244 14.4601 15.4916 14.0531 15.6725 13.606C15.8534 13.159 15.9445 12.6807 15.9405 12.1985H15.963Z" fill="#ffffffff"/>
</g>
<defs>
<clipPath id="clip0_8943_23158">
<rect width="18" height="18" fill="white"/>
</clipPath>
</defs>
</svg>
