<svg width="249" height="275" viewBox="0 0 249 275" fill="none" xmlns="http://www.w3.org/2000/svg">
<path d="M248.258 227.17V226.845C248.446 226.882 248.633 226.918 248.82 226.951C248.633 227.025 248.446 227.097 248.258 227.17Z" fill="#6379D7"/>
<path d="M0.183594 274.015H248.257V51.4746H0.183594V274.015Z" fill="#F5F9FF"/>
<path d="M248.257 77.7913H0.183594V51.4744H248.257V77.7913Z" fill="#D0E2FE"/>
<path d="M20.1958 64.633C20.1958 67.4245 17.9328 69.6875 15.1404 69.6875C12.3489 69.6875 10.0859 67.4245 10.0859 64.633C10.0859 61.8415 12.3489 59.5776 15.1404 59.5776C17.9328 59.5776 20.1958 61.8415 20.1958 64.633Z" fill="#EDF4FF"/>
<path d="M37.2193 64.633C37.2193 67.4245 34.9562 69.6875 32.1639 69.6875C29.3724 69.6875 27.1094 67.4245 27.1094 64.633C27.1094 61.8415 29.3724 59.5776 32.1639 59.5776C34.9562 59.5776 37.2193 61.8415 37.2193 64.633Z" fill="#EDF4FF"/>
<path d="M54.2349 64.633C54.2349 67.4245 51.9719 69.6875 49.1795 69.6875C46.388 69.6875 44.125 67.4245 44.125 64.633C44.125 61.8415 46.388 59.5776 49.1795 59.5776C51.9719 59.5776 54.2349 61.8415 54.2349 64.633Z" fill="#EDF4FF"/>
<path d="M211.905 153.77C213.094 150.756 211.415 148.289 208.174 148.289H88.769C85.5289 148.289 81.9059 150.756 80.717 153.77L54.2495 220.891C53.0605 223.905 54.7389 226.372 57.9789 226.372H177.385C180.624 226.372 184.248 223.905 185.437 220.891L211.905 153.77Z" fill="#A0C3FE"/>
<path d="M48.525 215.167L74.9925 148.046C76.1814 145.032 79.8044 142.565 83.0445 142.565H176.78V136.617C176.78 133.377 174.129 130.726 170.889 130.726H129.076C125.835 130.726 121.92 128.396 120.373 125.548L114.681 115.061C113.134 112.213 109.218 109.884 105.978 109.884H52.2553C49.0152 109.884 46.3633 112.535 46.3633 115.775V214.756C46.3633 217.602 48.4093 219.992 51.1012 220.532C48.6356 220.013 47.4867 217.799 48.525 215.167Z" fill="#A0C3FE"/>
<path d="M146.171 196.811L142.962 200.018L135.278 192.334L127.593 200.018L124.385 196.811L132.069 189.126L124.385 181.442L127.593 178.233L135.278 185.919L142.962 178.233L146.171 181.442L138.486 189.126L146.171 196.811ZM135.278 166.864C122.983 166.864 113.016 176.832 113.016 189.126C113.016 201.421 122.983 211.388 135.278 211.388C147.573 211.388 157.539 201.421 157.539 189.126C157.539 176.832 147.573 166.864 135.278 166.864Z" fill="#4C84FC"/>
<path d="M36.8455 273.644C36.8464 273.644 36.8506 273.643 36.8515 273.643C36.8498 273.644 36.8472 273.644 36.8455 273.644ZM36.9792 273.621C36.98 273.62 36.98 273.621 36.9809 273.62L36.9792 273.621ZM37.2413 273.572C37.243 273.572 37.2438 273.571 37.2455 273.571C37.243 273.571 37.243 273.572 37.2413 273.572ZM37.2779 273.565C37.2821 273.564 37.2864 273.563 37.2906 273.563C37.2864 273.563 37.283 273.564 37.2779 273.565ZM37.546 273.515C37.5485 273.515 37.5494 273.515 37.5519 273.514C37.5502 273.514 37.5477 273.515 37.546 273.515ZM37.5911 273.506C37.5928 273.506 37.5928 273.506 37.5936 273.506C37.5928 273.506 37.5919 273.506 37.5911 273.506ZM37.6353 273.499C37.637 273.499 37.6404 273.498 37.6421 273.497C37.6387 273.498 37.6379 273.498 37.6353 273.499ZM37.7213 273.483C37.723 273.482 37.7247 273.482 37.7264 273.482C37.7247 273.482 37.7238 273.482 37.7213 273.483ZM37.8089 273.466C37.8124 273.466 37.8132 273.466 37.8158 273.465C37.8141 273.465 37.8115 273.466 37.8089 273.466ZM37.9426 273.441L37.9451 273.44C37.9443 273.441 37.9434 273.441 37.9426 273.441ZM37.9826 273.433C37.9868 273.432 37.9894 273.432 37.9936 273.432C37.9894 273.432 37.986 273.432 37.9826 273.433ZM38.2915 273.374C38.2941 273.374 38.2941 273.374 38.2966 273.374C38.2949 273.374 38.2932 273.374 38.2915 273.374ZM38.4251 273.349C38.4268 273.349 38.4251 273.349 38.4268 273.349H38.4251ZM38.6864 273.299C38.689 273.299 38.6898 273.298 38.6932 273.298C38.6915 273.298 38.6881 273.299 38.6864 273.299ZM38.9945 273.239C38.997 273.239 38.9979 273.239 39.0004 273.239C38.9987 273.239 38.9962 273.239 38.9945 273.239ZM39.083 273.222C39.0856 273.221 39.089 273.221 39.0915 273.221C39.089 273.221 39.0856 273.221 39.083 273.222ZM39.1239 273.214C39.1281 273.213 39.1324 273.213 39.1366 273.212C39.1315 273.213 39.129 273.213 39.1239 273.214ZM39.1707 273.205C39.1715 273.204 39.1724 273.204 39.1741 273.204C39.1724 273.204 39.1715 273.205 39.1707 273.205ZM39.2158 273.196H39.2183C39.2175 273.196 39.2166 273.196 39.2158 273.196ZM39.4354 273.153C39.4362 273.152 39.4362 273.152 39.4379 273.152C39.437 273.152 39.4362 273.153 39.4354 273.153ZM39.4762 273.145C39.4779 273.145 39.4813 273.144 39.4822 273.144C39.4805 273.144 39.4788 273.145 39.4762 273.145ZM39.563 273.128C39.5673 273.127 39.569 273.127 39.5732 273.126C39.5698 273.126 39.5673 273.127 39.563 273.128ZM39.6549 273.11C39.6592 273.109 39.6643 273.108 39.6685 273.107C39.6643 273.107 39.6592 273.109 39.6549 273.11ZM39.6924 273.102C39.6992 273.101 39.706 273.1 39.7128 273.098C39.706 273.1 39.7 273.101 39.6924 273.102ZM39.7307 273.095C39.7392 273.093 39.7468 273.091 39.7554 273.09C39.7477 273.091 39.7383 273.093 39.7307 273.095ZM39.7647 273.088C39.7732 273.086 39.7817 273.084 39.7902 273.083C39.7809 273.084 39.7741 273.086 39.7647 273.088ZM39.826 273.076C39.832 273.074 39.8353 273.074 39.8413 273.072C39.8362 273.073 39.8302 273.075 39.826 273.076ZM39.9613 273.049C39.9647 273.048 39.969 273.047 39.9724 273.046C39.9681 273.047 39.9656 273.048 39.9613 273.049ZM40.0022 273.04C40.0081 273.039 40.0115 273.038 40.0166 273.037C40.0124 273.038 40.0073 273.039 40.0022 273.04ZM40.043 273.032C40.0473 273.031 40.0524 273.031 40.0566 273.03C40.0524 273.03 40.0464 273.031 40.043 273.032ZM40.0915 273.022C40.0958 273.021 40.0983 273.021 40.1026 273.02C40.0992 273.021 40.0949 273.021 40.0915 273.022ZM40.1809 273.005C40.1834 273.003 40.1834 273.005 40.1868 273.004C40.1843 273.004 40.1826 273.005 40.1809 273.005ZM40.2702 272.987C40.272 272.987 40.2762 272.986 40.2771 272.985C40.2745 272.986 40.2728 272.986 40.2702 272.987ZM40.3154 272.977C40.3171 272.977 40.3154 272.977 40.3171 272.977H40.3154ZM40.443 272.952C40.4481 272.951 40.4498 272.95 40.4558 272.949C40.4515 272.95 40.4473 272.951 40.443 272.952ZM40.489 272.942C40.4915 272.941 40.4915 272.941 40.4941 272.941C40.4932 272.941 40.4898 272.942 40.489 272.942ZM40.6175 272.916C40.62 272.916 40.626 272.914 40.6285 272.914C40.6251 272.914 40.6209 272.915 40.6175 272.916ZM41.0192 272.834C41.02 272.833 41.0226 272.833 41.0243 272.832C41.0226 272.833 41.0209 272.833 41.0192 272.834ZM41.1452 272.808C41.152 272.806 41.1588 272.805 41.1656 272.803C41.1588 272.805 41.1528 272.806 41.1452 272.808ZM41.1928 272.797C41.1937 272.797 41.1979 272.797 41.1996 272.797C41.1971 272.797 41.1954 272.797 41.1928 272.797ZM41.2379 272.788C41.2396 272.788 41.2413 272.788 41.2422 272.787C41.2413 272.787 41.2388 272.788 41.2379 272.788ZM41.769 272.678C41.7698 272.678 41.7707 272.677 41.7715 272.677C41.7698 272.678 41.7707 272.677 41.769 272.678ZM41.8098 272.669C41.8115 272.668 41.8149 272.668 41.8158 272.667C41.8132 272.668 41.8124 272.668 41.8098 272.669ZM41.8549 272.659C41.8583 272.659 41.8635 272.657 41.8669 272.657C41.8626 272.658 41.8592 272.659 41.8549 272.659ZM41.8992 272.65C41.9026 272.649 41.9035 272.649 41.906 272.649C41.9043 272.649 41.9009 272.649 41.8992 272.65ZM42.0754 272.613C42.0762 272.612 42.0796 272.612 42.0805 272.611C42.0788 272.612 42.0771 272.612 42.0754 272.613ZM42.1647 272.593C42.1664 272.593 42.1707 272.593 42.1724 272.592C42.169 272.593 42.1681 272.593 42.1647 272.593ZM42.2022 272.586C42.2064 272.585 42.2132 272.583 42.2175 272.582C42.2124 272.583 42.2073 272.585 42.2022 272.586ZM42.3409 272.556C42.3443 272.555 42.3435 272.556 42.346 272.555C42.3443 272.555 42.3435 272.556 42.3409 272.556Z" fill="#1255FB"/>
<path d="M207.196 50.0719L170.327 38.894L148.156 112.021L205.446 129.39L221.599 76.1088L207.196 50.0719Z" fill="#EDF4FF"/>
<path d="M203.116 79.2647L200.481 74.3369L188.677 80.6485L182.364 68.845L177.437 71.4791L183.75 83.2834L171.945 89.5958L174.58 94.5227L186.385 88.2103L192.697 100.015L197.624 97.3797L191.311 85.5762L203.116 79.2647Z" fill="#70A1FD"/>
<path d="M109.358 -6.86646e-05L71.9258 9.1183L90.0102 83.3616L148.174 69.1929L134.998 15.0996L109.358 -6.86646e-05Z" fill="#EDF4FF"/>
<path d="M120.847 26.7851L116.075 23.8812L109.118 35.3179L97.6803 28.3613L94.7773 33.1349L106.214 40.0907L99.2574 51.5266L104.031 54.4304L110.988 42.9946L122.424 49.9504L125.327 45.1767L113.891 38.2209L120.847 26.7851Z" fill="#70A1FD"/>
</svg>
