<svg width="24" height="24" viewBox="0 0 24 24" fill="none" xmlns="http://www.w3.org/2000/svg">
<path d="M16.1062 22.7498H7.89382C6.14843 22.7631 4.46897 22.0842 3.22357 20.8619C1.97818 19.6395 1.26846 17.9735 1.25 16.229V8.57971C1.25523 7.71335 1.4313 6.85652 1.76814 6.05824C2.10498 5.25996 2.59598 4.53589 3.21305 3.92746C3.83012 3.31903 4.56116 2.83817 5.36433 2.5124C6.1675 2.18662 7.02706 2.02233 7.89382 2.02891H11.4305C11.5289 2.02891 11.6264 2.04828 11.7173 2.08592C11.8082 2.12355 11.8908 2.17872 11.9604 2.24827C12.0299 2.31781 12.0851 2.40038 12.1228 2.49124C12.1605 2.58211 12.1798 2.6795 12.1798 2.77785C12.1798 2.87621 12.1605 2.9736 12.1228 3.06446C12.0851 3.15533 12.0299 3.23789 11.9604 3.30744C11.8908 3.37699 11.8082 3.43215 11.7173 3.46979C11.6264 3.50743 11.5289 3.5268 11.4305 3.5268H7.89382C6.55538 3.51871 5.26771 4.03837 4.31011 4.97308C3.35252 5.90779 2.80222 7.18217 2.77858 8.51979V16.169C2.80222 17.5067 3.35252 18.781 4.31011 19.7158C5.26771 20.6505 6.55538 21.1701 7.89382 21.162H16.1062C17.4446 21.1701 18.7323 20.6505 19.6899 19.7158C20.6475 18.781 21.1978 17.5067 21.2214 16.169V11.1561C21.2429 10.9685 21.3327 10.7954 21.4736 10.6698C21.6146 10.5441 21.7968 10.4747 21.9857 10.4747C22.1746 10.4747 22.3569 10.5441 22.4978 10.6698C22.6387 10.7954 22.7285 10.9685 22.75 11.1561V16.229C22.7315 17.9735 22.0218 19.6395 20.7764 20.8619C19.531 22.0842 17.8516 22.7631 16.1062 22.7498ZM17.6747 2.77785C17.5294 2.77507 17.3855 2.80717 17.2551 2.87146C17.1247 2.93575 17.0117 3.03035 16.9254 3.14734L16.336 3.90627C16.5346 4.71333 17.0168 5.42215 17.6947 5.90346C18.3219 6.37817 19.0859 6.63739 19.8727 6.64243H19.9926L20.582 5.88349C20.6556 5.7879 20.7094 5.67862 20.7402 5.56204C20.7711 5.44546 20.7785 5.3239 20.7618 5.20445C20.7473 5.08496 20.7077 4.96987 20.6457 4.86665C20.5838 4.76343 20.5008 4.67439 20.4022 4.60529L18.2342 2.96759C18.074 2.84385 17.8771 2.77708 17.6747 2.77785ZM17.6747 1.27996C18.2074 1.27995 18.7259 1.45154 19.1533 1.76927L21.3413 3.387C21.5986 3.57517 21.8156 3.81294 21.9795 4.08628C22.1434 4.35962 22.2508 4.663 22.2955 4.97851C22.3402 5.29403 22.3212 5.6153 22.2397 5.92337C22.1582 6.23144 22.0158 6.52007 21.8209 6.77224L21.1615 7.63104C21.0646 7.75909 20.9431 7.86655 20.8041 7.94713C20.6652 8.02772 20.5116 8.07982 20.3522 8.10038H19.8727C18.7572 8.10557 17.669 7.75583 16.7656 7.10178C15.7328 6.35869 15.0191 5.25296 14.7674 4.00613C14.7437 3.8479 14.7527 3.68648 14.794 3.53188C14.8352 3.37729 14.9078 3.2328 15.0072 3.10739L15.6666 2.2486C15.8992 1.93854 16.2009 1.68689 16.5477 1.51356C16.8946 1.34024 17.277 1.25 17.6647 1.25L17.6747 1.27996ZM13.119 8.07042L10.881 11.0163C10.783 11.1385 10.7269 11.2891 10.7212 11.4457V14.6012C10.7164 14.6401 10.7211 14.6795 10.7351 14.716C10.749 14.7526 10.7717 14.7852 10.8011 14.811C10.8622 14.8723 10.9444 14.908 11.0309 14.9108H11.1208L14.178 14.0121C14.3288 13.9624 14.4611 13.8685 14.5576 13.7425L16.7955 10.8465C16.0845 10.5604 15.413 10.1845 14.7974 9.72809C14.1789 9.26773 13.6245 8.72706 13.1489 8.12035M13.1989 5.96338C13.3123 5.96072 13.4241 5.99027 13.5214 6.0486C13.6186 6.10693 13.6974 6.19165 13.7484 6.29292C14.2497 7.17062 14.9306 7.93282 15.7465 8.52978C16.5585 9.1359 17.4925 9.5584 18.484 9.76804C18.5913 9.7846 18.6923 9.82955 18.7765 9.89823C18.8606 9.96691 18.9249 10.0568 18.9626 10.1587C19.0003 10.2605 19.0101 10.3706 18.9909 10.4775C18.9718 10.5844 18.9244 10.6842 18.8536 10.7666L15.8564 14.6811C15.563 15.0642 15.1526 15.3412 14.6875 15.47L11.6004 16.3688C11.4318 16.4196 11.2569 16.4465 11.0809 16.4487C10.8392 16.4527 10.5992 16.4082 10.375 16.3179C10.1508 16.2277 9.94696 16.0934 9.77559 15.923C9.60421 15.7526 9.46874 15.5496 9.37719 15.3261C9.28564 15.1025 9.23986 14.8628 9.24256 14.6212V11.4657C9.25044 10.9867 9.41541 10.5236 9.71213 10.1475L12.7093 6.233C12.7698 6.1587 12.8459 6.09868 12.9323 6.05724C13.0186 6.01581 13.1131 5.99399 13.2089 5.99334L13.1989 5.96338Z" fill="#323232"/>
<path d="M16.1062 22.7498H7.89382C6.14843 22.7631 4.46897 22.0842 3.22357 20.8619C1.97818 19.6395 1.26846 17.9735 1.25 16.229V8.57971C1.25523 7.71335 1.4313 6.85652 1.76814 6.05824C2.10498 5.25996 2.59598 4.53589 3.21305 3.92746C3.83012 3.31903 4.56116 2.83817 5.36433 2.5124C6.1675 2.18662 7.02706 2.02233 7.89382 2.02891H11.4305C11.5289 2.02891 11.6264 2.04828 11.7173 2.08592C11.8082 2.12355 11.8908 2.17872 11.9604 2.24827C12.0299 2.31781 12.0851 2.40038 12.1228 2.49124C12.1605 2.58211 12.1798 2.6795 12.1798 2.77785C12.1798 2.87621 12.1605 2.9736 12.1228 3.06446C12.0851 3.15533 12.0299 3.23789 11.9604 3.30744C11.8908 3.37699 11.8082 3.43215 11.7173 3.46979C11.6264 3.50743 11.5289 3.5268 11.4305 3.5268H7.89382C6.55538 3.51871 5.26771 4.03837 4.31011 4.97308C3.35252 5.90779 2.80222 7.18217 2.77858 8.51979V16.169C2.80222 17.5067 3.35252 18.781 4.31011 19.7158C5.26771 20.6505 6.55538 21.1701 7.89382 21.162H16.1062C17.4446 21.1701 18.7323 20.6505 19.6899 19.7158C20.6475 18.781 21.1978 17.5067 21.2214 16.169V11.1561C21.2429 10.9685 21.3327 10.7954 21.4736 10.6698C21.6146 10.5441 21.7968 10.4747 21.9857 10.4747C22.1746 10.4747 22.3569 10.5441 22.4978 10.6698C22.6387 10.7954 22.7285 10.9685 22.75 11.1561V16.229C22.7315 17.9735 22.0218 19.6395 20.7764 20.8619C19.531 22.0842 17.8516 22.7631 16.1062 22.7498ZM17.6747 2.77785C17.5294 2.77507 17.3855 2.80717 17.2551 2.87146C17.1247 2.93575 17.0117 3.03035 16.9254 3.14734L16.336 3.90627C16.5346 4.71333 17.0168 5.42215 17.6947 5.90346C18.3219 6.37817 19.0859 6.63739 19.8727 6.64243H19.9926L20.582 5.88349C20.6556 5.7879 20.7094 5.67862 20.7402 5.56204C20.7711 5.44546 20.7785 5.3239 20.7618 5.20445C20.7473 5.08496 20.7077 4.96987 20.6457 4.86665C20.5838 4.76343 20.5008 4.67439 20.4022 4.60529L18.2342 2.96759C18.074 2.84385 17.8771 2.77708 17.6747 2.77785ZM17.6747 1.27996C18.2074 1.27995 18.7259 1.45154 19.1533 1.76927L21.3413 3.387C21.5986 3.57517 21.8156 3.81294 21.9795 4.08628C22.1434 4.35962 22.2508 4.663 22.2955 4.97851C22.3402 5.29403 22.3212 5.6153 22.2397 5.92337C22.1582 6.23144 22.0158 6.52007 21.8209 6.77224L21.1615 7.63104C21.0646 7.75909 20.9431 7.86655 20.8041 7.94713C20.6652 8.02772 20.5116 8.07982 20.3522 8.10038H19.8727C18.7572 8.10557 17.669 7.75583 16.7656 7.10178C15.7328 6.35869 15.0191 5.25296 14.7674 4.00613C14.7437 3.8479 14.7527 3.68648 14.794 3.53188C14.8352 3.37729 14.9078 3.2328 15.0072 3.10739L15.6666 2.2486C15.8992 1.93854 16.2009 1.68689 16.5477 1.51356C16.8946 1.34024 17.277 1.25 17.6647 1.25L17.6747 1.27996ZM13.119 8.07042L10.881 11.0163C10.783 11.1385 10.7269 11.2891 10.7212 11.4457V14.6012C10.7164 14.6401 10.7211 14.6795 10.7351 14.716C10.749 14.7526 10.7717 14.7852 10.8011 14.811C10.8622 14.8723 10.9444 14.908 11.0309 14.9108H11.1208L14.178 14.0121C14.3288 13.9624 14.4611 13.8685 14.5576 13.7425L16.7955 10.8465C16.0845 10.5604 15.413 10.1845 14.7974 9.72809C14.1789 9.26773 13.6245 8.72706 13.1489 8.12035M13.1989 5.96338C13.3123 5.96072 13.4241 5.99027 13.5214 6.0486C13.6186 6.10693 13.6974 6.19165 13.7484 6.29292C14.2497 7.17062 14.9306 7.93282 15.7465 8.52978C16.5585 9.1359 17.4925 9.5584 18.484 9.76804C18.5913 9.7846 18.6923 9.82955 18.7765 9.89823C18.8606 9.96691 18.9249 10.0568 18.9626 10.1587C19.0003 10.2605 19.0101 10.3706 18.9909 10.4775C18.9718 10.5844 18.9244 10.6842 18.8536 10.7666L15.8564 14.6811C15.563 15.0642 15.1526 15.3412 14.6875 15.47L11.6004 16.3688C11.4318 16.4196 11.2569 16.4465 11.0809 16.4487C10.8392 16.4527 10.5992 16.4082 10.375 16.3179C10.1508 16.2277 9.94696 16.0934 9.77559 15.923C9.60421 15.7526 9.46874 15.5496 9.37719 15.3261C9.28564 15.1025 9.23986 14.8628 9.24256 14.6212V11.4657C9.25044 10.9867 9.41541 10.5236 9.71213 10.1475L12.7093 6.233C12.7698 6.1587 12.8459 6.09868 12.9323 6.05724C13.0186 6.01581 13.1131 5.99399 13.2089 5.99334L13.1989 5.96338Z" fill="black" fill-opacity="0.2"/>
<path d="M16.1062 22.7498H7.89382C6.14843 22.7631 4.46897 22.0842 3.22357 20.8619C1.97818 19.6395 1.26846 17.9735 1.25 16.229V8.57971C1.25523 7.71335 1.4313 6.85652 1.76814 6.05824C2.10498 5.25996 2.59598 4.53589 3.21305 3.92746C3.83012 3.31903 4.56116 2.83817 5.36433 2.5124C6.1675 2.18662 7.02706 2.02233 7.89382 2.02891H11.4305C11.5289 2.02891 11.6264 2.04828 11.7173 2.08592C11.8082 2.12355 11.8908 2.17872 11.9604 2.24827C12.0299 2.31781 12.0851 2.40038 12.1228 2.49124C12.1605 2.58211 12.1798 2.6795 12.1798 2.77785C12.1798 2.87621 12.1605 2.9736 12.1228 3.06446C12.0851 3.15533 12.0299 3.23789 11.9604 3.30744C11.8908 3.37699 11.8082 3.43215 11.7173 3.46979C11.6264 3.50743 11.5289 3.5268 11.4305 3.5268H7.89382C6.55538 3.51871 5.26771 4.03837 4.31011 4.97308C3.35252 5.90779 2.80222 7.18217 2.77858 8.51979V16.169C2.80222 17.5067 3.35252 18.781 4.31011 19.7158C5.26771 20.6505 6.55538 21.1701 7.89382 21.162H16.1062C17.4446 21.1701 18.7323 20.6505 19.6899 19.7158C20.6475 18.781 21.1978 17.5067 21.2214 16.169V11.1561C21.2429 10.9685 21.3327 10.7954 21.4736 10.6698C21.6146 10.5441 21.7968 10.4747 21.9857 10.4747C22.1746 10.4747 22.3569 10.5441 22.4978 10.6698C22.6387 10.7954 22.7285 10.9685 22.75 11.1561V16.229C22.7315 17.9735 22.0218 19.6395 20.7764 20.8619C19.531 22.0842 17.8516 22.7631 16.1062 22.7498ZM17.6747 2.77785C17.5294 2.77507 17.3855 2.80717 17.2551 2.87146C17.1247 2.93575 17.0117 3.03035 16.9254 3.14734L16.336 3.90627C16.5346 4.71333 17.0168 5.42215 17.6947 5.90346C18.3219 6.37817 19.0859 6.63739 19.8727 6.64243H19.9926L20.582 5.88349C20.6556 5.7879 20.7094 5.67862 20.7402 5.56204C20.7711 5.44546 20.7785 5.3239 20.7618 5.20445C20.7473 5.08496 20.7077 4.96987 20.6457 4.86665C20.5838 4.76343 20.5008 4.67439 20.4022 4.60529L18.2342 2.96759C18.074 2.84385 17.8771 2.77708 17.6747 2.77785ZM17.6747 1.27996C18.2074 1.27995 18.7259 1.45154 19.1533 1.76927L21.3413 3.387C21.5986 3.57517 21.8156 3.81294 21.9795 4.08628C22.1434 4.35962 22.2508 4.663 22.2955 4.97851C22.3402 5.29403 22.3212 5.6153 22.2397 5.92337C22.1582 6.23144 22.0158 6.52007 21.8209 6.77224L21.1615 7.63104C21.0646 7.75909 20.9431 7.86655 20.8041 7.94713C20.6652 8.02772 20.5116 8.07982 20.3522 8.10038H19.8727C18.7572 8.10557 17.669 7.75583 16.7656 7.10178C15.7328 6.35869 15.0191 5.25296 14.7674 4.00613C14.7437 3.8479 14.7527 3.68648 14.794 3.53188C14.8352 3.37729 14.9078 3.2328 15.0072 3.10739L15.6666 2.2486C15.8992 1.93854 16.2009 1.68689 16.5477 1.51356C16.8946 1.34024 17.277 1.25 17.6647 1.25L17.6747 1.27996ZM13.119 8.07042L10.881 11.0163C10.783 11.1385 10.7269 11.2891 10.7212 11.4457V14.6012C10.7164 14.6401 10.7211 14.6795 10.7351 14.716C10.749 14.7526 10.7717 14.7852 10.8011 14.811C10.8622 14.8723 10.9444 14.908 11.0309 14.9108H11.1208L14.178 14.0121C14.3288 13.9624 14.4611 13.8685 14.5576 13.7425L16.7955 10.8465C16.0845 10.5604 15.413 10.1845 14.7974 9.72809C14.1789 9.26773 13.6245 8.72706 13.1489 8.12035M13.1989 5.96338C13.3123 5.96072 13.4241 5.99027 13.5214 6.0486C13.6186 6.10693 13.6974 6.19165 13.7484 6.29292C14.2497 7.17062 14.9306 7.93282 15.7465 8.52978C16.5585 9.1359 17.4925 9.5584 18.484 9.76804C18.5913 9.7846 18.6923 9.82955 18.7765 9.89823C18.8606 9.96691 18.9249 10.0568 18.9626 10.1587C19.0003 10.2605 19.0101 10.3706 18.9909 10.4775C18.9718 10.5844 18.9244 10.6842 18.8536 10.7666L15.8564 14.6811C15.563 15.0642 15.1526 15.3412 14.6875 15.47L11.6004 16.3688C11.4318 16.4196 11.2569 16.4465 11.0809 16.4487C10.8392 16.4527 10.5992 16.4082 10.375 16.3179C10.1508 16.2277 9.94696 16.0934 9.77559 15.923C9.60421 15.7526 9.46874 15.5496 9.37719 15.3261C9.28564 15.1025 9.23986 14.8628 9.24256 14.6212V11.4657C9.25044 10.9867 9.41541 10.5236 9.71213 10.1475L12.7093 6.233C12.7698 6.1587 12.8459 6.09868 12.9323 6.05724C13.0186 6.01581 13.1131 5.99399 13.2089 5.99334L13.1989 5.96338Z" fill="black" fill-opacity="0.2"/>
</svg>
