<svg width="254" height="252" viewBox="0 0 254 252" fill="none" xmlns="http://www.w3.org/2000/svg">
<path fill-rule="evenodd" clip-rule="evenodd" d="M43.1571 125.833L1.06772 83.9346L0.915894 84.0791V167.58L64.2084 230.569L106.298 188.677L43.1571 125.833Z" fill="#1255FB"/>
<path fill-rule="evenodd" clip-rule="evenodd" d="M1.06738 83.9346L43.1568 125.833L169.438 0.144545L169.293 0H85.398L1.06738 83.9346Z" fill="#1255FB"/>
<path fill-rule="evenodd" clip-rule="evenodd" d="M253.624 83.9346L211.534 125.826L190.483 146.779L127.342 83.9346L85.2531 125.826L148.394 188.671L85.2531 251.515L85.3983 251.659L169.293 251.666L253.769 167.58V84.0791L253.624 83.9346Z" fill="#ED7632"/>
<path fill-rule="evenodd" clip-rule="evenodd" d="M148.394 62.9821L211.535 125.826L253.624 83.9345L190.483 21.0903L148.394 62.9821Z" fill="#ED7632"/>
<path fill-rule="evenodd" clip-rule="evenodd" d="M51.3227 117.705L1.39769 83.606L1.06763 83.9345L43.157 125.833L51.3227 117.705Z" fill="#1255FB"/>
<path fill-rule="evenodd" clip-rule="evenodd" d="M203.369 117.705L253.294 83.606L253.624 83.9345L211.535 125.833L203.369 117.705Z" fill="#ED7632"/>
</svg>
