<svg width="188" height="35" viewBox="0 0 188 35" fill="none" xmlns="http://www.w3.org/2000/svg">
<path d="M42.5391 7.04688H48.2966V20.7735H57.2838V25.2594H42.5391V7.04688Z" fill="#ED7632"/>
<path d="M62.7383 7.04688H68.5113V25.2594H62.7383V7.04688Z" fill="#1255FB"/>
<path d="M75.2812 7.04688H80.6588L87.6764 17.1212V7.04688H93.1044V25.2594H87.6764L80.6976 15.2609V25.2594H75.2812V7.04688Z" fill="#ED7632"/>
<path d="M99.5586 7.04676H105.316V13.9271L111.349 7.04676H119.006L112.206 13.9196L119.313 25.2555H112.221L108.294 17.7651L105.32 20.8113V25.2555H99.5625V7.04297L99.5586 7.04676Z" fill="#ED7632"/>
<path d="M123.852 7.04688H138.088V10.9607H129.636V14.1394H136.855V17.8183H129.636V25.2594H123.852V7.04688Z" fill="#ED7632"/>
<path d="M144.023 7.04688H149.796V25.2594H144.023V7.04688Z" fill="#1255FB"/>
<path d="M156.758 7.04688H162.531V25.2594H156.758V7.04688Z" fill="#1255FB"/>
<path d="M169.301 7.04688H174.678L181.696 17.1212V7.04688H187.124V25.2594H181.696L174.717 15.2609V25.2594H169.301V7.04688Z" fill="#ED7632"/>
<path fill-rule="evenodd" clip-rule="evenodd" d="M5.83548 17.0657L0.0209745 11.3828L0 11.4024V22.7281L8.74364 31.2715L14.5581 25.5895L5.83548 17.0657Z" fill="#1255FB"/>
<path fill-rule="evenodd" clip-rule="evenodd" d="M0.0195312 11.3844L5.83403 17.0673L23.2794 0.0196053L23.2593 0H11.6695L0.0195312 11.3844Z" fill="#1255FB"/>
<path fill-rule="evenodd" clip-rule="evenodd" d="M34.9122 11.3828L29.0977 17.0648L26.1895 19.9067L17.4668 11.3828L11.6523 17.0648L20.375 25.5886L11.6523 34.1125L11.6724 34.1321L23.2622 34.133L34.9322 22.7281V11.4024L34.9122 11.3828Z" fill="#ED7632"/>
<path fill-rule="evenodd" clip-rule="evenodd" d="M20.375 8.54135L29.0977 17.0652L34.9122 11.3832L26.1895 2.85938L20.375 8.54135Z" fill="#ED7632"/>
<path fill-rule="evenodd" clip-rule="evenodd" d="M6.9621 15.9649L0.065128 11.3398L0.0195312 11.3844L5.83403 17.0673L6.9621 15.9649Z" fill="#1255FB"/>
<path fill-rule="evenodd" clip-rule="evenodd" d="M27.9688 15.9649L34.8657 11.3398L34.9113 11.3844L29.0968 17.0673L27.9688 15.9649Z" fill="#ED7632"/>
</svg>
