<svg width="127" height="166" viewBox="0 0 127 166" fill="none" xmlns="http://www.w3.org/2000/svg">
<path d="M2.43481 165.203V143.501H6.85358V161.517H17.8418V165.203H2.43481Z" fill="white"/>
<path d="M20.855 165.203V143.318H25.2738V165.203H20.855Z" fill="white"/>
<path d="M29.5291 165.203V143.318H33.8302L42.7855 157.934V143.318H46.8905V165.203H42.4586L33.6341 150.934V165.203H29.5291Z" fill="white"/>
<path d="M51.623 165.203V143.318H56.0418V153.038L64.9709 143.318H70.9128L62.67 151.842L71.3573 165.203H65.6377L59.6239 154.934L56.0418 158.595V165.21H51.623V165.203Z" fill="white"/>
<path d="M73.6648 165.203V143.318H88.6665V147.018H78.0836V152.195H87.2219V155.895H78.0836V165.197H73.6648V165.203Z" fill="white"/>
<path d="M92.1768 165.203V143.318H96.5956V165.203H92.1768Z" fill="white"/>
<path d="M100.674 165.203V143.318H105.093V165.203H100.674Z" fill="white"/>
<path d="M109.342 165.203V143.318H113.643L122.598 157.934V143.318H126.703V165.203H122.272L113.447 150.934V165.203H109.342Z" fill="white"/>
<path fill-rule="evenodd" clip-rule="evenodd" d="M21.1362 62.8912L0.414912 42.1699L0.343018 42.2418V83.5406L31.4968 114.701L52.2247 93.9731L21.1362 62.8912Z" fill="white"/>
<path fill-rule="evenodd" clip-rule="evenodd" d="M0.414551 42.1699L21.1358 62.8912L83.3062 0.720829L83.2343 0.648926H41.929L0.414551 42.1699Z" fill="white"/>
<path fill-rule="evenodd" clip-rule="evenodd" d="M124.756 42.1699L104.028 62.8912L93.6672 73.2518L62.5852 42.1699L41.8574 62.8912L72.9459 93.9731L41.8574 125.062L41.9359 125.133H83.2346L124.828 83.5406V42.2418L124.756 42.1699Z" fill="white"/>
<path fill-rule="evenodd" clip-rule="evenodd" d="M72.946 31.8028L104.028 62.8913L124.756 42.17L93.6673 11.0815L72.946 31.8028Z" fill="white"/>
<path fill-rule="evenodd" clip-rule="evenodd" d="M25.1559 58.871L0.577968 42.0063L0.414551 42.1698L21.1358 62.891L25.1559 58.871Z" fill="white"/>
<path fill-rule="evenodd" clip-rule="evenodd" d="M100.008 58.871L124.592 42.0063L124.756 42.1698L104.028 62.891L100.008 58.871Z" fill="white"/>
</svg>
