<svg width="32" height="32" viewBox="0 0 32 32" fill="none" xmlns="http://www.w3.org/2000/svg">
<path fill-rule="evenodd" clip-rule="evenodd" d="M6.96182 16.0541L2.41679 11.5078L2.40039 11.5235V20.584L9.23504 27.4188L13.7801 22.8732L6.96182 16.0541Z" fill="white"/>
<path fill-rule="evenodd" clip-rule="evenodd" d="M2.41602 11.506L6.96105 16.0523L20.5976 2.41412L20.5819 2.39844H11.5225L2.41602 11.506Z" fill="white"/>
<path fill-rule="evenodd" clip-rule="evenodd" d="M29.6894 11.5078L25.1443 16.0534L22.8711 18.3269L16.0528 11.5078L11.5078 16.0534L18.3261 22.8725L11.5078 29.6916L11.5235 29.7072L20.5829 29.708L29.705 20.584V11.5235L29.6894 11.5078Z" fill="white"/>
<path fill-rule="evenodd" clip-rule="evenodd" d="M18.3262 9.23308L25.1444 16.0522L29.6895 11.5066L22.8712 4.6875L18.3262 9.23308Z" fill="white"/>
<path fill-rule="evenodd" clip-rule="evenodd" d="M7.84282 15.1688L2.45166 11.4688L2.41602 11.5044L6.96104 16.0507L7.84282 15.1688Z" fill="white"/>
<path fill-rule="evenodd" clip-rule="evenodd" d="M24.2617 15.1688L29.6529 11.4688L29.6885 11.5044L25.1435 16.0507L24.2617 15.1688Z" fill="white"/>
</svg>
