<svg width="49" height="60" viewBox="0 0 49 60" fill="none" xmlns="http://www.w3.org/2000/svg">
<path d="M1.22266 53.7422H3.08535V58.2653H5.99292V59.7435H1.22266V53.7422Z" fill="#ED7632"/>
<path d="M7.75781 53.7422H9.62553V59.7435H7.75781V53.7422Z" fill="#1255FB"/>
<path d="M11.8164 53.7422H13.5562L15.8265 57.0618V53.7422H17.5826V59.7435H15.8265L13.5687 56.4488V59.7435H11.8164V53.7422Z" fill="#ED7632"/>
<path d="M19.6719 53.7434H21.5346V56.0106L23.4863 53.7434H25.9637L23.7635 56.0081L26.0627 59.7435H23.7686L22.4979 57.2753L21.5358 58.2791V59.7435H19.6731V53.7422L19.6719 53.7434Z" fill="#ED7632"/>
<path d="M27.5312 53.7422H32.1372V55.0318H29.4027V56.0793H31.7383V57.2915H29.4027V59.7435H27.5312V53.7422Z" fill="#ED7632"/>
<path d="M34.0547 53.7422H35.9224V59.7435H34.0547V53.7422Z" fill="#1255FB"/>
<path d="M38.1758 53.7422H40.0435V59.7435H38.1758V53.7422Z" fill="#1255FB"/>
<path d="M42.2344 53.7422H43.9741L46.2445 57.0618V53.7422H48.0006V59.7435H46.2445L43.9867 56.4488V59.7435H42.2344V53.7422Z" fill="#ED7632"/>
<path fill-rule="evenodd" clip-rule="evenodd" d="M8.60466 24.4379L0.606975 16.4766L0.578125 16.504V32.3706L12.6047 44.3395L20.6024 36.3794L8.60466 24.4379Z" fill="#1255FB"/>
<path fill-rule="evenodd" clip-rule="evenodd" d="M0.605469 16.4763L8.60315 24.4377L32.5987 0.55481L32.5711 0.527344H16.6297L0.605469 16.4763Z" fill="#1255FB"/>
<path fill-rule="evenodd" clip-rule="evenodd" d="M48.5987 16.4766L40.601 24.4367L36.6009 28.418L24.6031 16.4766L16.6055 24.4367L28.6032 36.3781L16.6055 48.3196L16.6331 48.347L32.5745 48.3483L48.6263 32.3706V16.504L48.5987 16.4766Z" fill="#ED7632"/>
<path fill-rule="evenodd" clip-rule="evenodd" d="M28.6016 12.4953L40.5993 24.4367L48.597 16.4766L36.5992 4.53516L28.6016 12.4953Z" fill="#ED7632"/>
<path fill-rule="evenodd" clip-rule="evenodd" d="M10.1548 22.8935L0.668186 16.4141L0.605469 16.4765L8.60315 24.4379L10.1548 22.8935Z" fill="#1255FB"/>
<path fill-rule="evenodd" clip-rule="evenodd" d="M39.0469 22.8935L48.5335 16.4141L48.5962 16.4765L40.5985 24.4379L39.0469 22.8935Z" fill="#ED7632"/>
</svg>
