<svg width="41" height="41" viewBox="0 0 41 41" fill="none" xmlns="http://www.w3.org/2000/svg">
<path d="M0.333252 8.97165C0.333252 4.14619 4.24506 0.234375 9.07052 0.234375H31.596C36.4214 0.234375 40.3333 4.14618 40.3333 8.97164V31.4971C40.3333 36.3226 36.4214 40.2344 31.596 40.2344H9.07052C4.24506 40.2344 0.333252 36.3226 0.333252 31.4971V8.97165Z" fill="#337FFF"/>
<path d="M25.2271 21.5366L25.797 17.9156H22.2863V15.5619C22.2863 14.5717 22.7764 13.6042 24.3437 13.6042H25.9623V10.5206C25.0197 10.3703 24.0673 10.289 23.1127 10.2773C20.2232 10.2773 18.3367 12.0143 18.3367 15.1545V17.9156H15.1338V21.5366H18.3367V30.2951H22.2863V21.5366H25.2271Z" fill="white"/>
</svg>
