<svg width="41" height="41" viewBox="0 0 41 41" fill="none" xmlns="http://www.w3.org/2000/svg">
<path d="M0.333252 8.97165C0.333252 4.14619 4.24506 0.234375 9.07052 0.234375H31.596C36.4214 0.234375 40.3333 4.14618 40.3333 8.97164V31.4971C40.3333 36.3226 36.4214 40.2344 31.596 40.2344H9.07052C4.24506 40.2344 0.333252 36.3226 0.333252 31.4971V8.97165Z" fill="url(#paint0_linear_6324_295581)"/>
<path d="M17.0045 20.2862C17.0045 18.4437 18.4973 16.9497 20.3393 16.9497C22.1812 16.9497 23.6749 18.4437 23.6749 20.2862C23.6749 22.1287 22.1812 23.6228 20.3393 23.6228C18.4973 23.6228 17.0045 22.1287 17.0045 20.2862ZM15.2013 20.2862C15.2013 23.1248 17.5016 25.4257 20.3393 25.4257C23.177 25.4257 25.4772 23.1248 25.4772 20.2862C25.4772 17.4477 23.177 15.1468 20.3393 15.1468C17.5016 15.1468 15.2013 17.4477 15.2013 20.2862ZM24.4799 14.943C24.4798 15.1806 24.5501 15.4128 24.682 15.6104C24.8138 15.8079 25.0013 15.962 25.2207 16.0529C25.44 16.1439 25.6815 16.1678 25.9144 16.1216C26.1473 16.0753 26.3613 15.961 26.5293 15.7931C26.6973 15.6252 26.8117 15.4112 26.8582 15.1783C26.9046 14.9453 26.8809 14.7038 26.7901 14.4843C26.6993 14.2648 26.5455 14.0772 26.3481 13.9451C26.1507 13.8131 25.9186 13.7425 25.6811 13.7424C25.3628 13.7426 25.057 13.8691 24.8319 14.0942C24.6068 14.3193 24.4802 14.6246 24.4799 14.943ZM16.2968 28.4332C15.3213 28.3888 14.791 28.2262 14.4387 28.0889C13.9715 27.907 13.6382 27.6903 13.2877 27.3403C12.9373 26.9902 12.7204 26.6571 12.5393 26.1898C12.4019 25.8375 12.2394 25.3069 12.1951 24.3311C12.1466 23.2761 12.1369 22.9592 12.1369 20.2863C12.1369 17.6135 12.1474 17.2974 12.1951 16.2415C12.2395 15.2657 12.4032 14.7362 12.5393 14.3828C12.7212 13.9155 12.9378 13.5821 13.2877 13.2316C13.6377 12.881 13.9707 12.664 14.4387 12.4829C14.7909 12.3455 15.3213 12.183 16.2968 12.1386C17.3515 12.0901 17.6684 12.0804 20.3393 12.0804C23.0101 12.0804 23.3273 12.0909 24.3829 12.1386C25.3584 12.183 25.8878 12.3468 26.241 12.4829C26.7082 12.664 27.0415 12.8815 27.392 13.2316C27.7424 13.5816 27.9585 13.9155 28.1404 14.3828C28.2778 14.7351 28.4403 15.2657 28.4846 16.2415C28.5331 17.2974 28.5428 17.6135 28.5428 20.2863C28.5428 22.9592 28.5331 23.2752 28.4846 24.3311C28.4402 25.3069 28.2769 25.8373 28.1404 26.1898C27.9585 26.6571 27.7419 26.9905 27.392 27.3403C27.042 27.69 26.7082 27.907 26.241 28.0889C25.8888 28.2263 25.3584 28.3889 24.3829 28.4332C23.3282 28.4818 23.0113 28.4914 20.3393 28.4914C17.6672 28.4914 17.3512 28.4818 16.2968 28.4332ZM16.214 10.338C15.1488 10.3865 14.4209 10.5554 13.7852 10.8029C13.1269 11.0584 12.5696 11.4011 12.0127 11.9573C11.4558 12.5135 11.114 13.0718 10.8586 13.7303C10.6113 14.3666 10.4424 15.0943 10.3938 16.1598C10.3445 17.227 10.3333 17.5681 10.3333 20.2862C10.3333 23.0043 10.3445 23.3455 10.3938 24.4127C10.4424 25.4783 10.6113 26.2059 10.8586 26.8421C11.114 27.5002 11.4559 28.0592 12.0127 28.6151C12.5696 29.1711 13.1269 29.5134 13.7852 29.7696C14.4221 30.017 15.1488 30.186 16.214 30.2345C17.2814 30.283 17.6219 30.2951 20.3393 30.2951C23.0566 30.2951 23.3976 30.2838 24.4645 30.2345C25.5298 30.186 26.2572 30.017 26.8933 29.7696C27.5512 29.5134 28.1089 29.1713 28.6658 28.6151C29.2227 28.059 29.5637 27.5002 29.8199 26.8421C30.0672 26.2059 30.2369 25.4782 30.2847 24.4127C30.3332 23.3447 30.3445 23.0043 30.3445 20.2862C30.3445 17.5681 30.3332 17.227 30.2847 16.1598C30.2361 15.0942 30.0672 14.3662 29.8199 13.7303C29.5637 13.0722 29.2218 12.5144 28.6658 11.9573C28.1098 11.4003 27.5512 11.0584 26.8941 10.8029C26.2572 10.5554 25.5297 10.3857 24.4653 10.338C23.3984 10.2894 23.0574 10.2773 20.3401 10.2773C17.6227 10.2773 17.2814 10.2886 16.214 10.338Z" fill="white"/>
<defs>
<linearGradient id="paint0_linear_6324_295581" x1="39.5645" y1="40.2344" x2="-0.435547" y2="0.234374" gradientUnits="userSpaceOnUse">
<stop stop-color="#FBE18A"/>
<stop offset="0.21" stop-color="#FCBB45"/>
<stop offset="0.38" stop-color="#F75274"/>
<stop offset="0.52" stop-color="#D53692"/>
<stop offset="0.74" stop-color="#8F39CE"/>
<stop offset="1" stop-color="#5B4FE9"/>
</linearGradient>
</defs>
</svg>
