<svg width="41" height="41" viewBox="0 0 41 41" fill="none" xmlns="http://www.w3.org/2000/svg">
<path d="M0.333252 8.97165C0.333252 4.14619 4.24506 0.234375 9.07052 0.234375H31.596C36.4214 0.234375 40.3333 4.14618 40.3333 8.97164V31.4971C40.3333 36.3226 36.4214 40.2344 31.596 40.2344H9.07052C4.24506 40.2344 0.333252 36.3226 0.333252 31.4971V8.97165Z" fill="#FF0000"/>
<path d="M31.4584 14.7326C31.1972 13.7507 30.4247 12.9762 29.4417 12.7107C27.6644 12.2344 20.5335 12.2344 20.5335 12.2344C20.5335 12.2344 13.4063 12.2344 11.6254 12.7107C10.646 12.9726 9.87347 13.7471 9.6087 14.7326C9.13354 16.5144 9.13354 20.2344 9.13354 20.2344C9.13354 20.2344 9.13354 23.9544 9.6087 25.7362C9.86985 26.718 10.6424 27.4926 11.6254 27.758C13.4063 28.2344 20.5335 28.2344 20.5335 28.2344C20.5335 28.2344 27.6644 28.2344 29.4417 27.758C30.421 27.4962 31.1936 26.7216 31.4584 25.7362C31.9335 23.9544 31.9335 20.2344 31.9335 20.2344C31.9335 20.2344 31.9335 16.5144 31.4584 14.7326Z" fill="white"/>
<path d="M18.2557 23.6635L24.1788 20.2344L18.2557 16.8053V23.6635Z" fill="#FF0000"/>
</svg>
