<svg width="41" height="41" viewBox="0 0 41 41" fill="none" xmlns="http://www.w3.org/2000/svg">
<path d="M0.333252 9.12326C0.333252 4.21407 4.31294 0.234375 9.22214 0.234375H31.4444C36.3536 0.234375 40.3333 4.21407 40.3333 9.12326V31.3455C40.3333 36.2547 36.3536 40.2344 31.4444 40.2344H9.22214C4.31294 40.2344 0.333252 36.2547 0.333252 31.3455V9.12326Z" fill="white"/>
<path fill-rule="evenodd" clip-rule="evenodd" d="M31.4444 0.678819H9.22214C4.5584 0.678819 0.777696 4.45953 0.777696 9.12326V31.3455C0.777696 36.0092 4.5584 39.7899 9.22214 39.7899H31.4444C36.1081 39.7899 39.8888 36.0092 39.8888 31.3455V9.12326C39.8888 4.45953 36.1081 0.678819 31.4444 0.678819ZM9.22214 0.234375C4.31294 0.234375 0.333252 4.21407 0.333252 9.12326V31.3455C0.333252 36.2547 4.31294 40.2344 9.22214 40.2344H31.4444C36.3536 40.2344 40.3333 36.2547 40.3333 31.3455V9.12326C40.3333 4.21407 36.3536 0.234375 31.4444 0.234375H9.22214Z" fill="white"/>
<path d="M17.3862 21.7762C16.0884 21.7628 14.7906 21.7717 13.3995 21.7717C13.5506 21.5717 13.644 21.4517 13.7373 21.3317C14.9417 19.8028 16.1462 18.2784 17.3462 16.7495C17.6973 16.3051 18.0484 15.8562 18.2662 15.3273C18.5195 14.7228 18.244 14.1495 17.6262 13.9362C17.3462 13.8384 17.0528 13.8295 16.764 13.8295C15.124 13.8251 13.4884 13.8251 11.8484 13.8295C11.6217 13.8295 11.3862 13.8517 11.1684 13.9139C10.7062 14.0428 10.4351 14.4162 10.4395 14.8606C10.444 15.3006 10.724 15.6695 11.1862 15.7939C11.404 15.8517 11.6395 15.8695 11.8662 15.8695C12.8617 15.8784 13.8573 15.8695 14.8528 15.8784C14.9595 15.8784 15.0973 15.8073 15.1862 15.9673C15.1062 16.074 15.0217 16.1851 14.9373 16.2917C13.5195 18.0962 12.0973 19.9006 10.6751 21.7051C10.324 22.1539 10.1462 22.6473 10.3995 23.1984C10.6528 23.7495 11.1773 23.8517 11.7106 23.8828C12.1373 23.9095 12.5684 23.8917 12.9951 23.8917C14.4795 23.8917 15.964 23.9006 17.4484 23.8873C18.2351 23.8784 18.6617 23.3984 18.5728 22.6695C18.5106 22.0917 18.1151 21.7806 17.3862 21.7762Z" fill="#0180C7"/>
<path d="M24.8838 16.056C24.5061 16.1315 24.2838 16.3982 24.0572 16.6782C22.9105 15.6782 21.6438 15.616 20.3994 16.3493C18.8972 17.2338 18.3372 18.6738 18.5283 20.3493C18.7061 21.9093 19.3816 23.1849 21.0172 23.7182C22.0394 24.0471 22.9816 23.9271 23.8172 23.2515C24.0349 23.0782 24.1016 23.1093 24.2572 23.3049C24.5727 23.7049 25.0661 23.8204 25.5372 23.6604C25.9905 23.5093 26.3016 23.1227 26.3016 22.6204C26.3149 20.7849 26.3238 18.9493 26.2972 17.1093C26.2883 16.376 25.6038 15.9093 24.8838 16.056ZM23.6083 21.1449C23.0127 21.9493 21.7905 21.9493 21.1994 21.1493C20.9238 20.7804 20.8216 20.3538 20.8127 20.0382C20.7994 18.7404 21.5061 17.9627 22.5149 18.0204C22.9683 18.0471 23.3327 18.2382 23.6038 18.6071C24.1194 19.3004 24.1238 20.4515 23.6083 21.1449Z" fill="#0180C7"/>
<path d="M34.1059 15.8929C31.9059 15.9596 30.3548 17.7241 30.4259 20.0841C30.3904 22.3774 32.2926 24.1152 34.6793 23.8752C36.8748 23.6574 38.3015 22.0085 38.2304 19.6885C38.1593 17.3952 36.4437 15.8218 34.1059 15.8929ZM35.5104 21.1685C34.9148 21.9374 33.7104 21.9285 33.1282 21.1507C32.8437 20.7685 32.7326 20.3285 32.737 19.8618C32.7415 18.7196 33.4348 17.9596 34.4259 18.0129C34.8793 18.0352 35.2437 18.2263 35.5193 18.5907C36.0437 19.2929 36.0437 20.4707 35.5104 21.1685Z" fill="#0180C7"/>
<path d="M29.617 14.1008C29.6126 13.3674 29.1459 12.9097 28.4481 12.9141C27.7726 12.923 27.3237 13.3808 27.3103 14.0874C27.3015 14.5141 27.3103 14.9452 27.3103 15.3719C27.3103 17.8074 27.3103 20.2385 27.3103 22.6741C27.3103 23.2474 27.657 23.7408 28.1237 23.8563C28.897 24.0519 29.6126 23.5008 29.6215 22.6874C29.6303 21.2652 29.6259 19.843 29.6259 18.4163C29.6215 16.9763 29.6259 15.5363 29.617 14.1008Z" fill="#0180C7"/>
<path d="M40.333 29.959V31.3457C40.333 35.879 36.9419 39.6123 32.5641 40.1634C32.3463 40.1901 32.1241 40.2123 31.9019 40.2212C31.7463 40.2301 31.5908 40.2345 31.4352 40.2345H11.1019C10.9863 40.0257 10.7285 39.959 10.5685 39.799C10.0752 39.3012 9.56854 38.8212 9.04854 38.3457C7.9552 37.3457 6.90632 36.2968 5.78632 35.3145C5.72409 35.2568 5.68854 35.1545 5.63965 35.0701C5.75076 35.0923 5.85743 35.1101 5.96854 35.1234C8.32854 35.5234 10.6308 35.1945 12.9019 34.5012C13.7019 34.2568 14.5063 34.0212 15.3241 33.8123C15.8752 33.6745 16.4219 33.6923 16.9819 33.8879C23.1285 35.9901 29.1863 35.799 35.1463 33.1901C37.0396 32.3679 38.7641 31.2879 40.333 29.959Z" fill="#0172B1"/>
<path d="M11.4888 39.9499C11.5999 40.061 11.7644 40.1277 11.8844 40.2344H9.22214C4.31103 40.2344 0.333252 36.2566 0.333252 31.3455V9.12326C0.333252 4.2166 4.31103 0.234375 9.22214 0.234375H13.9688C12.1199 1.31882 10.4355 2.6166 9.0177 4.2166C6.67548 6.86104 5.06214 9.90549 4.51103 13.4299C3.54214 19.6744 5.48881 24.9588 9.90214 29.381C10.6888 30.1677 10.791 30.7899 10.1555 31.8566C9.40436 33.1277 8.2577 33.9988 7.03992 34.7899C6.91103 34.8744 6.77325 34.9544 6.65325 35.0522C6.57325 35.1188 6.54659 35.1677 6.55548 35.2122C6.55992 35.2833 6.64436 35.3277 6.74214 35.3722C6.79103 35.4522 6.8177 35.5499 6.88436 35.6077C7.95548 36.5588 8.96881 37.5722 10.0221 38.541C10.5199 38.9988 11.0088 39.4655 11.4888 39.9499Z" fill="#0180C7"/>
</svg>
