<svg id="Layer_1" data-name="Layer 1" xmlns="http://www.w3.org/2000/svg" viewBox="0 0 90 90"><defs><style>.cls-1{fill:#1f337a;}</style></defs><title>icon_borrower</title><path class="cls-1" d="M45,5A40,40,0,1,0,85,45,40,40,0,0,0,45,5Zm-.75,16.57V19.92a1.51,1.51,0,0,1,1.51-1.51h1.51a1.51,1.51,0,0,1,1.51,1.51v1.67a6.88,6.88,0,0,1,3,1.08,1.13,1.13,0,0,1,.14,1.73L50.25,26a1.17,1.17,0,0,1-1.33.19A2.42,2.42,0,0,0,48,26H44.87a.79.79,0,0,0-.22,1.55l4.71,1.35a5.52,5.52,0,0,1,4,4.49,5.3,5.3,0,0,1-4.64,5.93V41a1.51,1.51,0,0,1-1.51,1.51H45.74A1.51,1.51,0,0,1,44.24,41V39.33a6.88,6.88,0,0,1-3-1.08,1.13,1.13,0,0,1-.14-1.73l1.65-1.65a1.17,1.17,0,0,1,1.33-.19,2.42,2.42,0,0,0,1,.21h3.09a.79.79,0,0,0,.22-1.55L43.64,32a5.52,5.52,0,0,1-4-4.49A5.3,5.3,0,0,1,44.25,21.57ZM69.53,53.89,56.09,65.28a5.51,5.51,0,0,1-3.56,1.32H20.82a1.47,1.47,0,0,1-1.42-1.51v-9a1.47,1.47,0,0,1,1.42-1.51h4.93L29.88,51a10.06,10.06,0,0,1,6.58-2.48H50.69a3,3,0,0,1-.15,6h-7a1.51,1.51,0,0,0,0,3H54.09a5.47,5.47,0,0,0,3.56-1.32l8.21-7a2.83,2.83,0,0,1,3.79,0A3.13,3.13,0,0,1,69.53,53.89Z"/></svg>