<svg id="Layer_1" data-name="Layer 1" xmlns="http://www.w3.org/2000/svg" viewBox="0 0 90 90"><defs><style>.cls-1{fill:#1f337a;}</style></defs><title>icon_personal</title><path class="cls-1" d="M45,5A40,40,0,1,0,85,45,40,40,0,0,0,45,5Zm0,13.83A12.34,12.34,0,1,1,32.66,31.17,12.34,12.34,0,0,1,45,18.83ZM66.6,63.57A4.63,4.63,0,0,1,62,68.2H28a4.63,4.63,0,0,1-4.63-4.63v-4a12.94,12.94,0,0,1,12.36-12.9l4.61,18.46L43.46,52l-3.09-5.4h9.26L46.54,52l3.09,13.11,4.61-18.46A12.94,12.94,0,0,1,66.6,59.56Z"/></svg>