<svg id="Layer_1" data-name="Layer 1" xmlns="http://www.w3.org/2000/svg" viewBox="0 0 90 90"><defs><style>.cls-1{fill:#1f337a;}</style></defs><title>icon_investor</title><circle class="cls-1" cx="57.86" cy="48.86" r="2.57"/><path class="cls-1" d="M45,5A40,40,0,1,0,85,45,40,40,0,0,0,45,5ZM65.57,59.14A4,4,0,0,1,61.49,63H29.57a5.14,5.14,0,0,1-5.14-5.14V32.14A5.14,5.14,0,0,1,29.57,27H59.14A3.86,3.86,0,0,1,63,30.86a1.29,1.29,0,0,1-1.29,1.29H30.86a1.29,1.29,0,1,0,0,2.57H61.49a4,4,0,0,1,4.08,3.86Z"/></svg>