<svg id="Layer_1" data-name="Layer 1" xmlns="http://www.w3.org/2000/svg" viewBox="0 0 90 90"><defs><style>.cls-1{fill:#1f337a;}</style></defs><title>icon_business</title><rect class="cls-1" x="36.14" y="44.26" width="5.99" height="5.99" rx="1.12" ry="1.12"/><path class="cls-1" d="M45.12,5a40,40,0,1,0,40,40A40,40,0,0,0,45.12,5Zm21,63.2H24.17V66.33a1.12,1.12,0,0,1,1.12-1.12h1.87V22.56a2.24,2.24,0,0,1,2.24-2.24H60.83a2.24,2.24,0,0,1,2.24,2.24V65.21h1.87a1.12,1.12,0,0,1,1.12,1.12Z"/><rect class="cls-1" x="36.14" y="35.28" width="5.99" height="5.99" rx="1.12" ry="1.12"/><rect class="cls-1" x="36.14" y="26.3" width="5.99" height="5.99" rx="1.12" ry="1.12"/><path class="cls-1" d="M47,56.23H43.25a1.12,1.12,0,0,0-1.12,1.12v7.86h6V57.35A1.12,1.12,0,0,0,47,56.23Z"/><rect class="cls-1" x="48.11" y="44.26" width="5.99" height="5.99" rx="1.12" ry="1.12"/><rect class="cls-1" x="48.11" y="26.3" width="5.99" height="5.99" rx="1.12" ry="1.12"/><rect class="cls-1" x="48.11" y="35.28" width="5.99" height="5.99" rx="1.12" ry="1.12"/></svg>